<svg width="25" height="25" viewBox="0 0 25 25" fill="none" xmlns="http://www.w3.org/2000/svg">
  <path d="M8.24609 17.4261L17.4336 17.4261C17.796 17.4261 18.0898 17.1703 18.0898 16.8547L18.0898 13.9976C18.0898 13.682 17.796 13.4261 17.4336 13.4261L8.24609 13.4261C7.88366 13.4261 7.58984 13.682 7.58984 13.9976L7.58984 16.8547C7.58984 17.1703 7.88366 17.4261 8.24609 17.4261Z" fill="#F5F5F5" />
  <path d="M8.15234 11.9261L16.0273 11.9261C16.338 11.9261 16.5898 11.6703 16.5898 11.3547L16.5898 8.49758C16.5898 8.18198 16.338 7.92615 16.0273 7.92615L8.15234 7.92615C7.84168 7.92615 7.58984 8.18198 7.58984 8.49757L7.58984 11.3547C7.58984 11.6703 7.84168 11.9261 8.15234 11.9261Z" fill="#F5F5F5" />
  <path fill-rule="evenodd" clip-rule="evenodd" d="M5.33984 21.6761C4.92563 21.6761 4.58984 21.318 4.58984 20.8761L4.58985 4.47617C4.58985 4.03433 4.92563 3.67615 5.33985 3.67615C5.75406 3.67615 6.08985 4.03433 6.08985 4.47617L6.08984 20.8761C6.08984 21.318 5.75406 21.6761 5.33984 21.6761Z" fill="#F5F5F5" />
</svg>
  