<svg width="25" height="25" viewBox="0 0 25 25" fill="none" xmlns="http://www.w3.org/2000/svg">
  <path d="M17.4805 7.92615H8.29297C7.93053 7.92615 7.63672 8.18198 7.63672 8.49758V11.3547C7.63672 11.6703 7.93053 11.9261 8.29297 11.9261H17.4805C17.8429 11.9261 18.1367 11.6703 18.1367 11.3547V8.49758C18.1367 8.18198 17.8429 7.92615 17.4805 7.92615Z" fill="#F5F5F5" />
  <path d="M17.5742 13.4261H9.69922C9.38856 13.4261 9.13672 13.682 9.13672 13.9976V16.8547C9.13672 17.1703 9.38856 17.4261 9.69922 17.4261H17.5742C17.8849 17.4261 18.1367 17.1703 18.1367 16.8547V13.9976C18.1367 13.682 17.8849 13.4261 17.5742 13.4261Z" fill="#F5F5F5" />
  <path fill-rule="evenodd" clip-rule="evenodd" d="M20.3867 3.67615C20.8009 3.67615 21.1367 4.03433 21.1367 4.47617L21.1367 20.8761C21.1367 21.318 20.8009 21.6761 20.3867 21.6761C19.9725 21.6761 19.6367 21.318 19.6367 20.8761L19.6367 4.47617C19.6367 4.03433 19.9725 3.67615 20.3867 3.67615Z" fill="#F5F5F5" />
</svg>
  