<svg width="25" height="25" viewBox="0 0 25 25" fill="none" xmlns="http://www.w3.org/2000/svg">
  <path d="M12.7612 21.2292C12.8512 21.1892 12.9312 21.1392 13.0012 21.0692L19.7512 14.3192C20.0412 14.0292 20.0412 13.5492 19.7512 13.2592C19.4612 12.9692 18.9812 12.9692 18.6912 13.2592L13.2212 18.7292L13.2213 4.03918C13.2213 3.62918 12.8812 3.28918 12.4713 3.28918C12.0613 3.28918 11.7212 3.62918 11.7212 4.03918L11.7212 18.7292L6.25125 13.2592C5.96125 12.9692 5.48125 12.9692 5.19125 13.2592C5.04125 13.4092 4.97125 13.5992 4.97125 13.7892C4.97125 13.9792 5.04125 14.1692 5.19125 14.3192L11.9412 21.0692C12.0112 21.1392 12.0912 21.1892 12.1812 21.2292C12.3612 21.3092 12.5712 21.3092 12.7512 21.2292L12.7612 21.2292Z" fill="#F5F5F5" />
</svg>
  