<svg width="25" height="25" viewBox="0 0 25 25" fill="none" xmlns="http://www.w3.org/2000/svg">
  <path d="M3.19672 11.9979C3.23672 11.9079 3.28672 11.8279 3.35672 11.7579L10.1067 5.00794C10.3967 4.71794 10.8767 4.71794 11.1667 5.00794C11.4567 5.29794 11.4567 5.77794 11.1667 6.06794L5.69672 11.5379H20.3867C20.7967 11.5379 21.1367 11.8779 21.1367 12.2879C21.1367 12.6979 20.7967 13.0379 20.3867 13.0379H5.69672L11.1667 18.5079C11.4567 18.7979 11.4567 19.2779 11.1667 19.5679C11.0167 19.7179 10.8267 19.7879 10.6367 19.7879C10.4467 19.7879 10.2567 19.7179 10.1067 19.5679L3.35672 12.8179C3.28672 12.7479 3.23672 12.6679 3.19672 12.5779C3.11672 12.3979 3.11672 12.1879 3.19672 12.0079V11.9979Z" fill="#F5F5F5" />
</svg>
  