<svg width="25" height="25" viewBox="0 0 25 25" fill="none" xmlns="http://www.w3.org/2000/svg">
  <path fill-rule="evenodd" clip-rule="evenodd" d="M12.1367 3.93823C12.5509 3.93823 12.8867 4.27402 12.8867 4.68823L12.8867 21.1882C12.8867 21.6024 12.5509 21.9382 12.1367 21.9382C11.7225 21.9382 11.3867 21.6024 11.3867 21.1882L11.3867 4.68823C11.3867 4.27402 11.7225 3.93823 12.1367 3.93823Z" fill="#F5F5F5" />
  <path d="M9.82672 12.647C9.78672 12.557 9.73672 12.477 9.66672 12.407L6.66672 9.40698C6.37672 9.11698 5.89672 9.11698 5.60672 9.40698C5.31672 9.69698 5.31672 10.177 5.60672 10.467L7.32672 12.187H1.63672C1.22672 12.187 0.886719 12.527 0.886719 12.937C0.886719 13.347 1.22672 13.687 1.63672 13.687H7.32672L5.60672 15.407C5.31672 15.697 5.31672 16.177 5.60672 16.467C5.75672 16.617 5.94672 16.687 6.13672 16.687C6.32672 16.687 6.51672 16.617 6.66672 16.467L9.66672 13.467C9.73672 13.397 9.78672 13.317 9.82672 13.227C9.86672 13.137 9.88672 13.047 9.88672 12.937C9.88672 12.827 9.86672 12.737 9.82672 12.647Z" fill="#F5F5F5" />
  <path d="M14.4467 12.647C14.4867 12.557 14.5367 12.477 14.6067 12.407L17.6067 9.40698C17.8967 9.11698 18.3767 9.11698 18.6667 9.40698C18.9567 9.69698 18.9567 10.177 18.6667 10.467L16.9467 12.187H22.6367C23.0467 12.187 23.3867 12.527 23.3867 12.937C23.3867 13.347 23.0467 13.687 22.6367 13.687H16.9467L18.6667 15.407C18.9567 15.697 18.9567 16.177 18.6667 16.467C18.5167 16.617 18.3267 16.687 18.1367 16.687C17.9467 16.687 17.7567 16.617 17.6067 16.467L14.6067 13.467C14.5367 13.397 14.4867 13.317 14.4467 13.227C14.4067 13.137 14.3867 13.047 14.3867 12.937C14.3867 12.827 14.4067 12.737 14.4467 12.647Z" fill="#F5F5F5" />
</svg>
  