<svg width="25" height="25" viewBox="0 0 25 25" fill="none" xmlns="http://www.w3.org/2000/svg">
  <path fill-rule="evenodd" clip-rule="evenodd" d="M21.1367 4.17548C21.1367 3.76126 20.8009 3.42548 20.3867 3.42548L3.88672 3.42548C3.47251 3.42548 3.13672 3.76126 3.13672 4.17548C3.13672 4.58969 3.47251 4.92548 3.88672 4.92548L20.3867 4.92548C20.8009 4.92548 21.1367 4.58969 21.1367 4.17548Z" fill="#F5F5F5" />
  <path fill-rule="evenodd" clip-rule="evenodd" d="M12.421 6.93824C12.5105 6.97485 12.5944 7.0295 12.6671 7.10218L16.3648 10.7999C16.6577 11.0928 16.6577 11.5676 16.3648 11.8605C16.0719 12.1534 15.597 12.1534 15.3041 11.8605L12.8868 9.44316L12.8868 21.7009C12.8868 22.1151 12.551 22.4509 12.1368 22.4509C11.7226 22.4509 11.3868 22.1151 11.3868 21.7009L11.3868 9.44318L8.96943 11.8605C8.67654 12.1534 8.20167 12.1534 7.90877 11.8605C7.61588 11.5676 7.61588 11.0928 7.90877 10.7999L11.6044 7.10426C11.6111 7.09751 11.6179 7.09088 11.6248 7.08439C11.7589 6.95916 11.9389 6.88251 12.1368 6.88251C12.2374 6.88251 12.3334 6.90231 12.421 6.93824Z" fill="#F5F5F5" />
</svg>
  