<svg width="25" height="25" viewBox="0 0 25 25" fill="none" xmlns="http://www.w3.org/2000/svg">
  <path fill-rule="evenodd" clip-rule="evenodd" d="M20.8994 21.9382C21.3136 21.9382 21.6494 21.6024 21.6494 21.1882L21.6494 4.68823C21.6494 4.27402 21.3136 3.93823 20.8994 3.93823C20.4852 3.93823 20.1494 4.27402 20.1494 4.68823L20.1494 21.1882C20.1494 21.6024 20.4852 21.9382 20.8994 21.9382Z" fill="#F5F5F5" />
  <path fill-rule="evenodd" clip-rule="evenodd" d="M18.1366 13.2225C18.1 13.312 18.0454 13.3959 17.9727 13.4686L14.275 17.1663C13.9821 17.4591 13.5073 17.4591 13.2144 17.1663C12.9215 16.8734 12.9215 16.3985 13.2144 16.1056L15.6317 13.6882L3.37397 13.6882C2.95975 13.6882 2.62397 13.3524 2.62397 12.9382C2.62397 12.524 2.95975 12.1882 3.37397 12.1882L15.6317 12.1882L13.2144 9.77089C12.9215 9.47799 12.9215 9.00312 13.2144 8.71023C13.5073 8.41733 13.9821 8.41733 14.275 8.71023L17.9706 12.4058C17.9774 12.4125 17.984 12.4194 17.9905 12.4263C18.1157 12.5603 18.1924 12.7403 18.1924 12.9382C18.1924 13.0388 18.1726 13.1348 18.1366 13.2225Z" fill="#F5F5F5" />
</svg>
  