<svg width="25" height="25" viewBox="0 0 25 25" fill="none" xmlns="http://www.w3.org/2000/svg">
  <path fill-rule="evenodd" clip-rule="evenodd" d="M3.37402 21.9382C2.95981 21.9382 2.62402 21.6024 2.62402 21.1882L2.62402 4.68823C2.62402 4.27402 2.95981 3.93823 3.37402 3.93823C3.78824 3.93823 4.12402 4.27402 4.12402 4.68823L4.12402 21.1882C4.12402 21.6024 3.78824 21.9382 3.37402 21.9382Z" fill="#F5F5F5" />
  <path fill-rule="evenodd" clip-rule="evenodd" d="M6.13679 13.2225C6.1734 13.312 6.22804 13.3959 6.30072 13.4686L9.99841 17.1663C10.2913 17.4591 10.7662 17.4591 11.0591 17.1663C11.352 16.8734 11.352 16.3985 11.0591 16.1056L8.64171 13.6882L20.8995 13.6882C21.3137 13.6882 21.6495 13.3524 21.6495 12.9382C21.6495 12.524 21.3137 12.1882 20.8995 12.1882L8.64172 12.1882L11.0591 9.77089C11.352 9.47799 11.352 9.00312 11.0591 8.71023C10.7662 8.41733 10.2913 8.41733 9.99841 8.71023L6.3028 12.4058C6.29605 12.4125 6.28943 12.4194 6.28294 12.4263C6.15771 12.5603 6.08105 12.7403 6.08105 12.9382C6.08105 13.0388 6.10086 13.1348 6.13679 13.2225Z" fill="#F5F5F5" />
</svg>
  