<svg width="31" height="31" viewBox="0 0 31 31" fill="none" xmlns="http://www.w3.org/2000/svg">
<path fill-rule="evenodd" clip-rule="evenodd" d="M4.30713 10.7442H25.8038C26.356 10.7442 26.8038 11.1919 26.8038 11.7442V19.1172C26.8038 19.6695 26.356 20.1904 25.8038 20.1904H4.30713C3.75484 20.1904 3.30713 19.6695 3.30713 19.1172V11.7442C3.30713 11.1919 3.75484 10.7442 4.30713 10.7442ZM9.02148 16.6246C9.66549 16.6246 10.1876 16.1025 10.1876 15.4585C10.1876 14.8145 9.66549 14.2924 9.02148 14.2924C8.37747 14.2924 7.8554 14.8145 7.8554 15.4585C7.8554 16.1025 8.37747 16.6246 9.02148 16.6246ZM16.2198 15.4585C16.2198 16.1025 15.6977 16.6246 15.0537 16.6246C14.4097 16.6246 13.8876 16.1025 13.8876 15.4585C13.8876 14.8145 14.4097 14.2924 15.0537 14.2924C15.6977 14.2924 16.2198 14.8145 16.2198 15.4585ZM21.0859 16.6246C21.7299 16.6246 22.252 16.1025 22.252 15.4585C22.252 14.8145 21.7299 14.2924 21.0859 14.2924C20.4419 14.2924 19.9199 14.8145 19.9199 15.4585C19.9199 16.1025 20.4419 16.6246 21.0859 16.6246Z" fill="#F5F5F5"/>
</svg>
