<svg width="24" height="24" viewBox="0 0 24 24" fill="none" xmlns="http://www.w3.org/2000/svg">
<path fill-rule="evenodd" clip-rule="evenodd" d="M2.25 7.75C2.25 6.92157 2.92157 6.25 3.75 6.25H17.25C18.0784 6.25 18.75 6.92157 18.75 7.75V18.25C18.75 19.0784 18.0784 19.75 17.25 19.75H3.75C2.92157 19.75 2.25 19.0784 2.25 18.25V7.75ZM17.25 7.75H3.75V18.25H17.25V7.75Z" fill="#F5F5F5"/>
<path fill-rule="evenodd" clip-rule="evenodd" d="M5.25 4C5.25 3.58579 5.58579 3.25 6 3.25H20.25C20.6478 3.25 21.0294 3.40804 21.3107 3.68934C21.592 3.97065 21.75 4.35218 21.75 4.75V16C21.75 16.4142 21.4142 16.75 21 16.75C20.5858 16.75 20.25 16.4142 20.25 16L20.25 4.75L6 4.75C5.58579 4.75 5.25 4.41421 5.25 4Z" fill="#F5F5F5"/>
</svg>
