<svg width="25" height="25" viewBox="0 0 25 25" fill="none" xmlns="http://www.w3.org/2000/svg">
  <path d="M20.5402 3.14819H3.73308C3.32785 3.14819 2.93922 3.30917 2.65268 3.59571C2.36614 3.88225 2.20516 4.27088 2.20516 4.67611V19.8407C2.20212 20.1329 2.28456 20.4197 2.44235 20.6657C2.60013 20.9117 2.82638 21.1063 3.09326 21.2254C3.29142 21.3263 3.51071 21.3786 3.73308 21.3782C4.09348 21.377 4.44187 21.2485 4.71668 21.0153L7.75341 18.4656L20.5402 18.4274C20.9454 18.4274 21.334 18.2664 21.6206 17.9799C21.9071 17.6933 22.0681 17.3047 22.0681 16.8995V4.67611C22.0681 4.27088 21.9071 3.88225 21.6206 3.59571C21.334 3.30917 20.9454 3.14819 20.5402 3.14819ZM7.55287 11.9337C7.32623 11.9337 7.10467 11.8665 6.91622 11.7406C6.72778 11.6147 6.5809 11.4357 6.49416 11.2263C6.40743 11.0169 6.38474 10.7865 6.42895 10.5642C6.47317 10.3419 6.58231 10.1377 6.74257 9.97748C6.90283 9.81722 7.10702 9.70808 7.32931 9.66387C7.5516 9.61965 7.78201 9.64234 7.99141 9.72908C8.2008 9.81581 8.37977 9.96269 8.50569 10.1511C8.6316 10.3396 8.69881 10.5611 8.69881 10.7878C8.69881 11.0917 8.57808 11.3832 8.36317 11.5981C8.14827 11.813 7.8568 11.9337 7.55287 11.9337ZM12.1366 11.9337C11.91 11.9337 11.6884 11.8665 11.5 11.7406C11.3115 11.6147 11.1647 11.4357 11.0779 11.2263C10.9912 11.0169 10.9685 10.7865 11.0127 10.5642C11.0569 10.3419 11.1661 10.1377 11.3263 9.97748C11.4866 9.81722 11.6908 9.70808 11.9131 9.66387C12.1354 9.61965 12.3658 9.64234 12.5752 9.72908C12.7846 9.81581 12.9635 9.96269 13.0894 10.1511C13.2154 10.3396 13.2826 10.5611 13.2826 10.7878C13.2826 11.0917 13.1618 11.3832 12.9469 11.5981C12.732 11.813 12.4406 11.9337 12.1366 11.9337ZM16.7204 11.9337C16.4937 11.9337 16.2722 11.8665 16.0837 11.7406C15.8953 11.6147 15.7484 11.4357 15.6617 11.2263C15.5749 11.0169 15.5522 10.7865 15.5965 10.5642C15.6407 10.3419 15.7498 10.1377 15.9101 9.97748C16.0703 9.81722 16.2745 9.70808 16.4968 9.66387C16.7191 9.61965 16.9495 9.64234 17.1589 9.72908C17.3683 9.81581 17.5473 9.96269 17.6732 10.1511C17.7991 10.3396 17.8663 10.5611 17.8663 10.7878C17.8663 11.0917 17.7456 11.3832 17.5307 11.5981C17.3158 11.813 17.0243 11.9337 16.7204 11.9337Z" fill="#F5F5F5" />
</svg>
  