<svg width="30" height="30" viewBox="0 0 30 30" fill="none" xmlns="http://www.w3.org/2000/svg">
<path fill-rule="evenodd" clip-rule="evenodd" d="M3.25 4.95909C3.25 4.01519 4.01519 3.25 4.95909 3.25H25.0409C25.9848 3.25 26.75 4.01519 26.75 4.95909V25.0409C26.75 25.9848 25.9848 26.75 25.0409 26.75H4.95909C4.01519 26.75 3.25 25.9848 3.25 25.0409V4.95909ZM21.8351 12.6168C22.3046 12.1689 22.3221 11.4251 21.8742 10.9556C21.4262 10.486 20.6825 10.4685 20.2129 10.9165L13.1938 17.6128L10.0961 14.6525C9.6269 14.2042 8.88313 14.2211 8.43479 14.6902C7.98645 15.1594 8.00332 15.9031 8.47248 16.3515L12.3813 20.0869C12.8352 20.5206 13.5499 20.5209 14.0041 20.0875L21.8351 12.6168Z" fill="#F5F5F5"/>
</svg>
