<svg width="31" height="31" viewBox="0 0 31 31" fill="none" xmlns="http://www.w3.org/2000/svg">
<path fill-rule="evenodd" clip-rule="evenodd" d="M18.0412 5.92932C17.9447 6.41692 17.4712 6.73398 16.9836 6.63748C15.0511 6.25504 13.0459 6.54499 11.3009 7.4592C9.55589 8.3734 8.17599 9.85688 7.39027 11.6634C6.60454 13.4699 6.46024 15.4908 6.98132 17.3906C7.5024 19.2904 8.65751 20.9549 10.2549 22.1078C11.8523 23.2607 13.796 23.8326 15.7632 23.7286C17.7305 23.6246 19.603 22.851 21.07 21.5362C22.537 20.2213 23.5102 18.4443 23.8281 16.5002C23.9957 15.4749 23.9758 14.4356 23.777 13.4308C23.6805 12.9432 23.9975 12.4697 24.4851 12.3733C24.9727 12.2768 25.4462 12.5938 25.5427 13.0814C25.783 14.2956 25.8071 15.5516 25.6045 16.7907C25.2203 19.1401 24.0442 21.2876 22.2713 22.8766C20.4985 24.4655 18.2356 25.4004 15.8582 25.5261C13.4808 25.6517 11.132 24.9606 9.20153 23.5674C7.27108 22.1741 5.87514 20.1626 5.24543 17.8667C4.61572 15.5708 4.7901 13.1286 5.73964 10.9455C6.68918 8.76233 8.35676 6.96956 10.4656 5.86476C12.5744 4.75995 14.9976 4.40955 17.333 4.87173C17.8206 4.96822 18.1377 5.44172 18.0412 5.92932Z" fill="#F5F5F5"/>
<path fill-rule="evenodd" clip-rule="evenodd" d="M20.2192 6.98721C20.5159 6.58847 21.0797 6.5058 21.4785 6.80256C22.3278 7.43465 23.0759 8.19262 23.6969 9.05028C23.9884 9.45288 23.8983 10.0156 23.4957 10.3071C23.0931 10.5986 22.5304 10.5085 22.2389 10.1059C21.7252 9.39644 21.1064 8.76942 20.4038 8.24654C20.0051 7.94978 19.9224 7.38596 20.2192 6.98721Z" fill="#F5F5F5"/>
</svg>
