<svg width="31" height="31" viewBox="0 0 31 31" fill="none" xmlns="http://www.w3.org/2000/svg">
<path fill-rule="evenodd" clip-rule="evenodd" d="M18.2969 5.8189C18.1876 6.37096 17.6515 6.72993 17.0995 6.62068C15.0525 6.21559 12.9286 6.52271 11.0802 7.49106C9.23182 8.45941 7.7702 10.0308 6.93794 11.9443C6.10568 13.8578 5.95284 15.9983 6.50477 18.0107C7.05671 20.023 8.28024 21.7861 9.97226 23.0072C11.6643 24.2284 13.723 24.8342 15.8068 24.724C17.8905 24.6139 19.874 23.7945 21.4278 22.4018C22.9817 21.009 24.0126 19.1268 24.3493 17.0675C24.5646 15.7505 24.4878 14.4117 24.1352 13.1428C23.9845 12.6006 24.3019 12.0389 24.8441 11.8882C25.3863 11.7375 25.948 12.0549 26.0987 12.5971C26.5299 14.1487 26.6239 15.7858 26.3605 17.3964C25.9488 19.9146 24.6882 22.2163 22.788 23.9194C20.8879 25.6224 18.4625 26.6245 15.9144 26.7592C13.3662 26.8938 10.8487 26.1531 8.77961 24.6598C6.71052 23.1665 5.21433 21.0105 4.53939 18.5497C3.86446 16.0889 4.05136 13.4713 5.06909 11.1314C6.08682 8.79149 7.87417 6.86998 10.1344 5.68583C12.3947 4.50169 14.992 4.12613 17.4951 4.62149C18.0472 4.73074 18.4061 5.26684 18.2969 5.8189Z" fill="#F5F5F5"/>
</svg>
