<svg width="25" height="25" viewBox="0 0 25 25" fill="none" xmlns="http://www.w3.org/2000/svg">
  <path fill-rule="evenodd" clip-rule="evenodd" d="M15.6229 4.39038C14.706 4.08474 13.7296 4.00137 12.7741 4.14713C11.8186 4.29289 10.9115 4.66361 10.1274 5.22874C9.34332 5.79387 8.70476 6.53724 8.26434 7.39757C7.82391 8.25791 7.59424 9.21059 7.59424 10.1771C7.59424 10.5913 7.25845 10.9271 6.84424 10.9271C6.43002 10.9271 6.09424 10.5913 6.09424 10.1771C6.09424 9.50378 6.18371 8.83583 6.35852 8.19038C5.1808 8.09328 3.98352 8.50985 3.12945 9.35546C2.37945 10.1055 1.94945 11.1555 1.94945 12.2155C1.94945 13.2755 2.36945 14.3155 3.12945 15.0755C3.88945 15.8355 4.90945 16.2555 5.98945 16.2555H10.3447V15.4426V15.4426V12.2205V12.2205V12.2205C10.3447 10.9276 11.2951 9.92218 12.4658 9.28364C13.6648 8.62964 15.27 8.24832 17.002 8.24832C17.9064 8.24832 18.7763 8.3523 19.5718 8.54479C19.5543 8.4831 19.5358 8.42098 19.5163 8.35836C19.2281 7.43581 18.7248 6.59494 18.0479 5.90506C17.371 5.21517 16.5398 4.69602 15.6229 4.39038ZM10.3447 17.7655V18.6647C10.3447 19.9573 11.2952 20.9627 12.4658 21.6013C13.6648 22.2554 15.2699 22.6369 17.002 22.6369C18.734 22.6369 20.3392 22.2554 21.5382 21.6013C22.7087 20.9627 23.6592 19.9573 23.6592 18.6647V15.4426V15.4426V12.2236L23.6592 12.2205C23.6592 10.9276 22.7088 9.92218 21.5382 9.28364C21.4368 9.22834 21.3325 9.175 21.2255 9.12367C21.168 8.71746 21.0748 8.31687 20.948 7.91111C20.589 6.76169 19.9619 5.71405 19.1186 4.85451C18.2752 3.99498 17.2396 3.34816 16.0972 2.96736C14.9548 2.58656 13.7383 2.48268 12.5479 2.66428C11.3575 2.84588 10.2272 3.30777 9.25034 4.01187C8.27344 4.71598 7.47785 5.64215 6.92912 6.71405C6.92375 6.72454 6.91841 6.73503 6.9131 6.74554C5.1625 6.46709 3.33087 7.03326 2.05945 8.29546C1.01945 9.34546 0.439453 10.7455 0.439453 12.2255C0.439453 13.7055 1.00945 15.0955 2.05945 16.1455C3.10945 17.1855 4.49945 17.7655 5.97945 17.7655H10.3447ZM22.1592 14.7667V15.4426V15.4426C22.1592 15.9289 21.7873 16.5346 20.8198 17.0624C19.8808 17.5746 18.5324 17.9148 17.002 17.9148C15.4716 17.9148 14.1231 17.5746 13.1841 17.0624C12.2167 16.5346 11.8447 15.9289 11.8447 15.4426V15.4426V14.7667C12.0412 14.9091 12.2497 15.0394 12.4658 15.1573C13.6648 15.8113 15.27 16.1926 17.002 16.1926C18.734 16.1926 20.3392 15.8113 21.5382 15.1573C21.7542 15.0394 21.9628 14.9091 22.1592 14.7667ZM21.5382 18.3792C21.7542 18.2613 21.9628 18.131 22.1592 17.9886V18.6647C22.1592 19.151 21.7873 19.7567 20.8198 20.2845C19.8808 20.7967 18.5324 21.1369 17.002 21.1369C15.4716 21.1369 14.1231 20.7967 13.1841 20.2845C12.2167 19.7567 11.8447 19.151 11.8447 18.6647V17.9886C12.0412 18.131 12.2497 18.2613 12.4658 18.3792C13.6648 19.0333 15.2699 19.4148 17.002 19.4148C18.734 19.4148 20.3392 19.0333 21.5382 18.3792ZM22.1592 12.2192L22.1592 12.2205V12.2224C22.1582 12.7087 21.786 13.3135 20.8199 13.8404C19.8809 14.3526 18.5325 14.6926 17.002 14.6926C15.4715 14.6926 14.1231 14.3526 13.1841 13.8404C12.2167 13.3128 11.8447 12.7071 11.8447 12.2205C11.8447 11.7338 12.2167 11.1281 13.1841 10.6005C14.1231 10.0883 15.4715 9.74832 17.002 9.74832C18.5325 9.74832 19.8809 10.0883 20.8199 10.6005C21.7864 11.1277 22.1586 11.7328 22.1592 12.2192Z" fill="#F5F5F5" />
</svg>
  