<svg width="24" height="25" viewBox="0 0 24 25" fill="none" xmlns="http://www.w3.org/2000/svg">
<path fill-rule="evenodd" clip-rule="evenodd" d="M16.227 6.09906C14.9176 5.83861 13.5604 5.97229 12.327 6.48318C11.0936 6.99407 10.0394 7.85923 9.29774 8.96926C8.55604 10.0793 8.16016 11.3843 8.16016 12.7194C8.16016 13.1336 7.82437 13.4694 7.41016 13.4694C6.99594 13.4694 6.66016 13.1336 6.66016 12.7194C6.66016 11.958 6.76551 11.2045 6.97001 10.4796C6.86704 10.4727 6.76379 10.4693 6.66044 10.4694C5.46696 10.4694 4.32209 10.9435 3.47818 11.7874C2.63426 12.6313 2.16016 13.7759 2.16016 14.9694C2.16016 16.1628 2.63426 17.3074 3.47818 18.1513C4.32209 18.9953 5.46668 19.4694 6.66016 19.4694L14.9102 19.4694C16.2452 19.4694 17.5502 19.0735 18.6603 18.3318C19.7703 17.5901 20.6355 16.5359 21.1463 15.3025C21.6572 14.0691 21.7909 12.7119 21.5305 11.4025C21.27 10.0931 20.6271 8.8904 19.6831 7.94639C18.7391 7.00239 17.5364 6.35951 16.227 6.09906ZM7.53052 9.03107C7.68438 8.72321 7.85791 8.42418 8.05053 8.13591C8.95705 6.7792 10.2455 5.72178 11.753 5.09736C13.2605 4.47293 14.9193 4.30956 16.5197 4.62789C18.12 4.94621 19.59 5.73195 20.7438 6.88573C21.8976 8.03952 22.6833 9.50953 23.0016 11.1099C23.32 12.7102 23.1566 14.369 22.5322 15.8765C21.9077 17.384 20.8503 18.6725 19.4936 19.579C18.1369 20.4855 16.5419 20.9694 14.9102 20.9694L6.66016 20.9694C5.06886 20.9694 3.54273 20.3372 2.41752 19.212C1.2923 18.0868 0.660156 16.5607 0.660156 14.9694C0.660156 13.3781 1.2923 11.8519 2.41752 10.7267C3.54267 9.60157 5.06868 8.96944 6.65987 8.96936M7.53052 9.03107C7.24249 8.98993 6.95136 8.96927 6.65987 8.96936L7.53052 9.03107Z" fill="#B8B8B8"/>
<path fill-rule="evenodd" clip-rule="evenodd" d="M12.5035 13.3806C12.2106 13.6735 11.7357 13.6735 11.4428 13.3806C11.1499 13.0877 11.1499 12.6129 11.4428 12.32L14.4196 9.34315C14.5227 9.2401 14.6483 9.1733 14.7805 9.14277C14.8083 9.13633 14.8367 9.13145 14.8657 9.1282C14.9016 9.12416 14.9379 9.12271 14.974 9.12387C15.1772 9.13021 15.36 9.21736 15.4914 9.35424L18.4571 12.32C18.75 12.6129 18.75 13.0877 18.4571 13.3806C18.1642 13.6735 17.6893 13.6735 17.3964 13.3806L15.7002 11.6844L15.7002 16.8984C15.7002 17.3126 15.3644 17.6484 14.9502 17.6484C14.536 17.6484 14.2002 17.3126 14.2002 16.8984L14.2002 11.6839L12.5035 13.3806Z" fill="#B8B8B8"/>
</svg>
