<svg width="24" height="24" viewBox="0 0 24 24" fill="none" xmlns="http://www.w3.org/2000/svg">
<path fill-rule="evenodd" clip-rule="evenodd" d="M15.705 4.0063C15.8466 3.61702 15.6458 3.1867 15.2565 3.04515C14.8672 2.90359 14.4369 3.10441 14.2954 3.49368L8.29536 19.9937C8.1538 20.383 8.35462 20.8133 8.7439 20.9548C9.13317 21.0964 9.56349 20.8956 9.70505 20.5063L15.705 4.0063ZM6.87939 7.76985C7.14456 8.08806 7.10157 8.56098 6.78336 8.82615L2.97476 12L6.78336 15.1738C7.10157 15.439 7.14456 15.9119 6.87939 16.2301C6.61422 16.5483 6.14129 16.5913 5.82308 16.3262L1.32308 12.5762C1.15209 12.4337 1.05322 12.2226 1.05322 12C1.05322 11.7774 1.15209 11.5663 1.32308 11.4238L5.82308 7.67382C6.14129 7.40865 6.61422 7.45164 6.87939 7.76985ZM17.1211 7.76985C17.3863 7.45164 17.8592 7.40865 18.1774 7.67382L22.6774 11.4238C22.8484 11.5663 22.9473 11.7774 22.9473 12C22.9473 12.2226 22.8484 12.4337 22.6774 12.5762L18.1774 16.3262C17.8592 16.5913 17.3863 16.5483 17.1211 16.2301C16.8559 15.9119 16.8989 15.439 17.2171 15.1738L21.0257 12L17.2171 8.82615C16.8989 8.56098 16.8559 8.08806 17.1211 7.76985Z" fill="#B8B8B8"/>
</svg>
