<svg width="30" height="31" viewBox="0 0 30 31" fill="none" xmlns="http://www.w3.org/2000/svg">
<circle cx="4.99927" cy="25.1427" r="0.999268" transform="rotate(-180 4.99927 25.1427)" fill="#F5F5F5"/>
<circle cx="25.0007" cy="25.1427" r="0.999268" transform="rotate(-180 25.0007 25.1427)" fill="#F5F5F5"/>
<circle cx="4.99927" cy="15.1423" r="0.999268" transform="rotate(-180 4.99927 15.1423)" fill="#F5F5F5"/>
<circle cx="4.99927" cy="10.1422" r="0.999268" transform="rotate(-180 4.99927 10.1422)" fill="#F5F5F5"/>
<circle cx="25.0007" cy="10.1422" r="0.999268" transform="rotate(-180 25.0007 10.1422)" fill="#F5F5F5"/>
<circle cx="15.0833" cy="10.1422" r="0.999268" transform="rotate(-180 15.0833 10.1422)" fill="#F5F5F5"/>
<circle cx="4.99927" cy="20.1425" r="0.999268" transform="rotate(-180 4.99927 20.1425)" fill="#F5F5F5"/>
<circle cx="25.0007" cy="20.1426" r="0.999268" transform="rotate(-180 25.0007 20.1426)" fill="#F5F5F5"/>
<circle cx="15.0833" cy="20.1426" r="0.999268" transform="rotate(-180 15.0833 20.1426)" fill="#F5F5F5"/>
<circle cx="25.0007" cy="15.1423" r="0.999268" transform="rotate(-180 25.0007 15.1423)" fill="#F5F5F5"/>
<circle cx="15.0833" cy="15.1423" r="0.999268" transform="rotate(-180 15.0833 15.1423)" fill="#F5F5F5"/>
<circle cx="4.99927" cy="5.14209" r="0.999268" transform="rotate(-180 4.99927 5.14209)" fill="#F5F5F5"/>
<circle cx="25.0007" cy="5.14209" r="0.999268" transform="rotate(-180 25.0007 5.14209)" fill="#F5F5F5"/>
<circle cx="20.0007" cy="5.1416" r="0.999268" transform="rotate(-180 20.0007 5.1416)" fill="#F5F5F5"/>
<circle cx="20.0007" cy="25.1423" r="0.999268" transform="rotate(-180 20.0007 25.1423)" fill="#F5F5F5"/>
<circle cx="9.99975" cy="5.14184" r="0.999268" transform="rotate(-180 9.99975 5.14184)" fill="#F5F5F5"/>
<circle cx="15.0002" cy="5.14184" r="0.999268" transform="rotate(-180 15.0002 5.14184)" fill="#F5F5F5"/>
<circle cx="9.99975" cy="25.1427" r="0.999268" transform="rotate(-180 9.99975 25.1427)" fill="#F5F5F5"/>
<circle cx="15.0002" cy="25.1427" r="0.999268" transform="rotate(-180 15.0002 25.1427)" fill="#F5F5F5"/>
</svg>
