<svg width="24" height="25" viewBox="0 0 24 25" fill="none" xmlns="http://www.w3.org/2000/svg">
<path d="M10.5 4.66052H4.5C4.08579 4.66052 3.75 4.99631 3.75 5.41052V11.4105C3.75 11.8247 4.08579 12.1605 4.5 12.1605H10.5C10.9142 12.1605 11.25 11.8247 11.25 11.4105V5.41052C11.25 4.99631 10.9142 4.66052 10.5 4.66052Z" fill="#B8B8B8"/>
<path d="M19.9058 4.66052H13.9058C13.4915 4.66052 13.1558 4.99631 13.1558 5.41052V11.4105C13.1558 11.8247 13.4915 12.1605 13.9058 12.1605H19.9058C20.32 12.1605 20.6558 11.8247 20.6558 11.4105V5.41052C20.6558 4.99631 20.32 4.66052 19.9058 4.66052Z" fill="#B8B8B8"/>
<path d="M10.5 13.9723H4.5C4.08579 13.9723 3.75 14.3081 3.75 14.7223V20.7223C3.75 21.1365 4.08579 21.4723 4.5 21.4723H10.5C10.9142 21.4723 11.25 21.1365 11.25 20.7223V14.7223C11.25 14.3081 10.9142 13.9723 10.5 13.9723Z" fill="#B8B8B8"/>
<path d="M19.9058 13.9723H13.9058C13.4915 13.9723 13.1558 14.3081 13.1558 14.7223V20.7223C13.1558 21.1365 13.4915 21.4723 13.9058 21.4723H19.9058C20.32 21.4723 20.6558 21.1365 20.6558 20.7223V14.7223C20.6558 14.3081 20.32 13.9723 19.9058 13.9723Z" fill="#B8B8B8"/>
</svg>
