<svg width="25" height="25" viewBox="0 0 25 25" fill="none" xmlns="http://www.w3.org/2000/svg">
  <path d="M10.6367 4.10107H4.63672C4.22251 4.10107 3.88672 4.43686 3.88672 4.85107V10.8511C3.88672 11.2653 4.22251 11.6011 4.63672 11.6011H10.6367C11.0509 11.6011 11.3867 11.2653 11.3867 10.8511V4.85107C11.3867 4.43686 11.0509 4.10107 10.6367 4.10107Z" fill="#F5F5F5" />
  <path d="M20.0425 4.10107H14.0425C13.6283 4.10107 13.2925 4.43686 13.2925 4.85107V10.8511C13.2925 11.2653 13.6283 11.6011 14.0425 11.6011H20.0425C20.4567 11.6011 20.7925 11.2653 20.7925 10.8511V4.85107C20.7925 4.43686 20.4567 4.10107 20.0425 4.10107Z" fill="#F5F5F5" />
  <path d="M10.6367 13.4129H4.63672C4.22251 13.4129 3.88672 13.7487 3.88672 14.1629V20.1629C3.88672 20.5771 4.22251 20.9129 4.63672 20.9129H10.6367C11.0509 20.9129 11.3867 20.5771 11.3867 20.1629V14.1629C11.3867 13.7487 11.0509 13.4129 10.6367 13.4129Z" fill="#F5F5F5" />
  <path d="M20.0425 13.4129H14.0425C13.6283 13.4129 13.2925 13.7487 13.2925 14.1629V20.1629C13.2925 20.5771 13.6283 20.9129 14.0425 20.9129H20.0425C20.4567 20.9129 20.7925 20.5771 20.7925 20.1629V14.1629C20.7925 13.7487 20.4567 13.4129 20.0425 13.4129Z" fill="#F5F5F5" />
</svg>
  