<svg width="24" height="24" viewBox="0 0 24 24" fill="none" xmlns="http://www.w3.org/2000/svg">
<path fill-rule="evenodd" clip-rule="evenodd" d="M4.73087 13.2163C4.05911 12.5445 4.05911 11.4554 4.73087 10.7837L10.7835 4.73102C11.4553 4.05926 12.5444 4.05927 13.2161 4.73102L19.2688 10.7837C19.9405 11.4554 19.9405 12.5445 19.2688 13.2163L13.2161 19.2689C12.5444 19.9407 11.4553 19.9407 10.7835 19.2689L4.73087 13.2163ZM5.77342 11.8262C5.67746 11.9222 5.67746 12.0778 5.77342 12.1737L11.8261 18.2264C11.922 18.3224 12.0776 18.3224 12.1736 18.2264L18.2262 12.1737C18.3222 12.0778 18.3222 11.9222 18.2262 11.8262L12.1736 5.77358C12.0776 5.67761 11.922 5.67761 11.8261 5.77358L5.77342 11.8262Z" fill="#B8B8B8"/>
</svg>
