<svg width="24" height="24" viewBox="0 0 24 24" fill="none" xmlns="http://www.w3.org/2000/svg">
<path d="M11.2932 5.56691C11.6837 5.17639 12.3168 5.17639 12.7074 5.56691L18.7403 11.5999C19.1309 11.9904 19.1309 12.6236 18.7403 13.0141L12.7074 19.0471C12.3168 19.4376 11.6837 19.4376 11.2932 19.0471L5.26018 13.0141C4.86965 12.6236 4.86965 11.9904 5.26018 11.5999L11.2932 5.56691Z" fill="#B8B8B8"/>
<path fill-rule="evenodd" clip-rule="evenodd" d="M10.7628 5.03658C11.4462 4.35316 12.5543 4.35316 13.2377 5.03658L19.2707 11.0696C19.9541 11.753 19.9541 12.861 19.2707 13.5444L13.2377 19.5774C12.5543 20.2608 11.4462 20.2608 10.7628 19.5774L4.72985 13.5444C4.04643 12.861 4.04643 11.753 4.72985 11.0696L10.7628 5.03658ZM12.177 6.09724C12.0794 5.99961 11.9211 5.99961 11.8235 6.09724L5.79051 12.1302C5.69288 12.2279 5.69288 12.3861 5.79051 12.4838L11.8235 18.5168C11.9211 18.6144 12.0794 18.6144 12.177 18.5168L18.21 12.4838C18.3077 12.3861 18.3077 12.2279 18.21 12.1302L12.177 6.09724Z" fill="#B8B8B8"/>
</svg>
