<svg width="25" height="25" viewBox="0 0 25 25" fill="none" xmlns="http://www.w3.org/2000/svg">
<path fill-rule="evenodd" clip-rule="evenodd" d="M8.38672 2.26318C7.97251 2.26318 7.63672 2.59897 7.63672 3.01318V6.76318H3.88672C3.47251 6.76318 3.13672 7.09897 3.13672 7.51318V21.5132C3.13672 21.9274 3.47251 22.2632 3.88672 22.2632H15.8867C16.3009 22.2632 16.6367 21.9274 16.6367 21.5132V17.7632H20.3867C20.8009 17.7632 21.1367 17.4274 21.1367 17.0132V3.01318C21.1367 2.59897 20.8009 2.26318 20.3867 2.26318H8.38672ZM16.6367 16.2632H19.6367V3.76318H9.13672V6.76318H15.8867C16.3009 6.76318 16.6367 7.09897 16.6367 7.51318V16.2632ZM4.63672 20.7632V8.26318H15.1367V17.0132V20.7632H4.63672Z" fill="#F5F5F5"/>
</svg>
