<svg width="24" height="24" viewBox="0 0 24 24" fill="none" xmlns="http://www.w3.org/2000/svg">
<path fill-rule="evenodd" clip-rule="evenodd" d="M18.1381 5.56425C18.1381 5.32927 17.9137 5.0271 17.4962 5.0271L6.50331 5.0271C6.08583 5.0271 5.86142 5.32927 5.86142 5.56425L5.86142 18.4358C5.86142 18.6707 6.08583 18.9729 6.50331 18.9729H17.4962C17.9137 18.9729 18.1381 18.6707 18.1381 18.4358V5.56425ZM17.4962 3.5271C18.5965 3.5271 19.6025 4.37748 19.6025 5.56425V18.4358C19.6025 19.6225 18.5965 20.4729 17.4962 20.4729H6.50331C5.40298 20.4729 4.39697 19.6225 4.39697 18.4358L4.39697 5.56425C4.39697 4.37748 5.40298 3.5271 6.50331 3.5271L17.4962 3.5271Z" fill="#F5F5F5"/>
<path d="M11.8152 7.97765C12.2595 7.97765 12.6197 7.61748 12.6197 7.17318C12.6197 6.72889 12.2595 6.36871 11.8152 6.36871C11.3709 6.36871 11.0107 6.72889 11.0107 7.17318C11.0107 7.61748 11.3709 7.97765 11.8152 7.97765Z" fill="#F5F5F5"/>
</svg>
