<svg width="24" height="24" viewBox="0 0 24 24" fill="none" xmlns="http://www.w3.org/2000/svg">
<path fill-rule="evenodd" clip-rule="evenodd" d="M16.3574 4.97807C16.3574 4.68717 16.1216 4.45135 15.8307 4.45135L8.17042 4.45135C7.87952 4.45135 7.64371 4.68717 7.64371 4.97807L7.64371 19.0219C7.64371 19.3128 7.87952 19.5486 8.17042 19.5486H15.8307C16.1216 19.5486 16.3574 19.3128 16.3574 19.0219V4.97807ZM15.8307 2.95135C16.95 2.95135 17.8574 3.85875 17.8574 4.97807V19.0219C17.8574 20.1413 16.95 21.0486 15.8307 21.0486H8.17042C7.0511 21.0486 6.14371 20.1413 6.14371 19.0219L6.14371 4.97807C6.14371 3.85875 7.0511 2.95135 8.17042 2.95135L15.8307 2.95135Z" fill="#F5F5F5"/>
<path fill-rule="evenodd" clip-rule="evenodd" d="M9.69727 6.78748C9.69727 6.37326 10.0331 6.03748 10.4473 6.03748H13.5526C13.9668 6.03748 14.3026 6.37326 14.3026 6.78748C14.3026 7.20169 13.9668 7.53748 13.5526 7.53748H10.4473C10.0331 7.53748 9.69727 7.20169 9.69727 6.78748Z" fill="#F5F5F5"/>
</svg>
