<svg width="24" height="24" viewBox="0 0 24 24" fill="none" xmlns="http://www.w3.org/2000/svg">
<path fill-rule="evenodd" clip-rule="evenodd" d="M4.06415 5.28364C4.22841 5.11938 4.45119 5.0271 4.68349 5.0271H19.3164C19.5487 5.0271 19.7714 5.11938 19.9357 5.28364C20.0999 5.4479 20.1922 5.67068 20.1922 5.90297V15.7211H3.80762V5.90297C3.80762 5.67068 3.8999 5.4479 4.06415 5.28364ZM3.05182 17.2211C3.05375 17.2211 3.05568 17.2212 3.05762 17.2212C3.05955 17.2212 3.06148 17.2211 3.06341 17.2211H20.9364C20.9384 17.2211 20.9403 17.2212 20.9422 17.2212C20.9442 17.2212 20.9461 17.2211 20.948 17.2211H21.818V18.097C21.818 18.3293 21.7257 18.5521 21.5615 18.7163C21.3972 18.8806 21.1744 18.9729 20.9421 18.9729H3.05751C2.82522 18.9729 2.60244 18.8806 2.43818 18.7163C2.27392 18.5521 2.18164 18.3293 2.18164 18.097V17.2211H3.05182ZM2.30762 15.7211V5.90297C2.30762 5.27285 2.55793 4.66854 3.00349 4.22298C3.44906 3.77741 4.05337 3.5271 4.68349 3.5271H19.3164C19.9465 3.5271 20.5508 3.77741 20.9963 4.22298C21.4419 4.66854 21.6922 5.27285 21.6922 5.90297V15.7211H22.568C22.9822 15.7211 23.318 16.0569 23.318 16.4711V18.097C23.318 18.7271 23.0677 19.3314 22.6221 19.777C22.1766 20.2226 21.5722 20.4729 20.9421 20.4729H3.05751C2.42739 20.4729 1.82308 20.2226 1.37752 19.777C0.931955 19.3314 0.681641 18.7271 0.681641 18.097V16.4711C0.681641 16.0569 1.01743 15.7211 1.43164 15.7211H2.30762Z" fill="#F5F5F5"/>
</svg>
