<svg width="31" height="30" viewBox="0 0 31 30" fill="none" xmlns="http://www.w3.org/2000/svg">
<path d="M18.4092 4.59467C18.6853 4.59467 18.9092 4.81852 18.9092 5.09467L18.9092 24.5738C18.9092 24.8499 18.6853 25.0738 18.4092 25.0738L11.8642 25.0738C11.5881 25.0738 11.3642 24.8499 11.3642 24.5738L11.3642 5.09466C11.3642 4.81852 11.5881 4.59467 11.8642 4.59467L18.4092 4.59467Z" fill="#F5F5F5"/>
<path fill-rule="evenodd" clip-rule="evenodd" d="M28.3003 15.7358C28.7145 15.7358 29.0503 15.4001 29.0503 14.9858C29.0503 14.5716 28.7145 14.2358 28.3003 14.2358L23.85 14.2358L25.0308 13.055C25.3237 12.7622 25.3237 12.2873 25.0308 11.9944C24.7379 11.7015 24.2631 11.7015 23.9702 11.9944L21.512 14.4525C21.3745 14.5885 21.2894 14.7772 21.2894 14.9858C21.2894 15.2009 21.3799 15.3949 21.5249 15.5316L23.9702 17.9768C24.2631 18.2697 24.7379 18.2697 25.0308 17.9768C25.3237 17.684 25.3237 17.2091 25.0308 16.9162L23.8505 15.7358L28.3003 15.7358Z" fill="#F5F5F5"/>
<path fill-rule="evenodd" clip-rule="evenodd" d="M5.24315 13.055C4.95025 12.7622 4.95025 12.2873 5.24315 11.9944C5.53604 11.7015 6.01091 11.7015 6.30381 11.9944L8.7647 14.4553C9.0576 14.7482 9.0576 15.2231 8.7647 15.5159L6.30381 17.9768C6.01091 18.2697 5.53604 18.2697 5.24315 17.9768C4.95025 17.684 4.95025 17.2091 5.24315 16.9162L6.42349 15.7358L1.97318 15.7358C1.55897 15.7358 1.22318 15.4001 1.22318 14.9858C1.22318 14.5716 1.55897 14.2358 1.97318 14.2358L6.42394 14.2358L5.24315 13.055Z" fill="#F5F5F5"/>
</svg>
