<svg width="31" height="30" viewBox="0 0 31 30" fill="none" xmlns="http://www.w3.org/2000/svg">
<path d="M4.86523 11.7159C4.86523 11.4397 5.08909 11.2159 5.36523 11.2159H24.9084C25.1846 11.2159 25.4084 11.4397 25.4084 11.7159V18.2844C25.4084 18.5606 25.1846 18.7844 24.9084 18.7844H5.36524C5.08909 18.7844 4.86523 18.5606 4.86523 18.2844V11.7159Z" fill="#F5F5F5"/>
<path fill-rule="evenodd" clip-rule="evenodd" d="M16.0391 1.79535C16.0391 1.38114 15.7033 1.04535 15.2891 1.04535C14.8748 1.04535 14.5391 1.38114 14.5391 1.79535V6.26515L13.3506 5.07673C13.0577 4.78383 12.5829 4.78383 12.29 5.07673C11.9971 5.36962 11.9971 5.84449 12.29 6.13739L14.7529 8.60032C14.8891 8.7395 15.079 8.82587 15.2891 8.82587C15.5034 8.82587 15.6967 8.73597 15.8334 8.59182L18.2878 6.13739C18.5807 5.84449 18.5807 5.36962 18.2878 5.07673C17.9949 4.78383 17.5201 4.78383 17.2272 5.07673L16.0391 6.26483V1.79535Z" fill="#F5F5F5"/>
<path fill-rule="evenodd" clip-rule="evenodd" d="M13.3506 24.9231C13.0577 25.2159 12.5829 25.2159 12.29 24.9231C11.9971 24.6302 11.9971 24.1553 12.29 23.8624L14.7586 21.3938C14.8564 21.296 14.9745 21.2308 15.0994 21.1984C15.132 21.1899 15.1654 21.1835 15.1996 21.1794C15.2439 21.1742 15.2885 21.1728 15.333 21.1754C15.5268 21.1866 15.7009 21.2714 15.8277 21.4023L18.2878 23.8624C18.5807 24.1553 18.5807 24.6302 18.2878 24.9231C17.9949 25.2159 17.5201 25.2159 17.2272 24.9231L16.0391 23.7349V28.2047C16.0391 28.6189 15.7033 28.9547 15.2891 28.9547C14.8748 28.9547 14.5391 28.6189 14.5391 28.2047V23.7346L13.3506 24.9231Z" fill="#F5F5F5"/>
</svg>
