<svg width="24" height="24" viewBox="0 0 24 24" fill="none" xmlns="http://www.w3.org/2000/svg">
<path d="M17.1927 12C17.1927 12.8983 17.9209 13.6266 18.8192 13.6266C19.7176 13.6266 20.4458 12.8983 20.4458 12C20.4458 11.1017 19.7176 10.3734 18.8192 10.3734C17.9209 10.3734 17.1927 11.1017 17.1927 12Z" fill="#F5F5F5"/>
<path d="M10.3733 12C10.3733 12.8983 11.1016 13.6266 11.9999 13.6266C12.8982 13.6266 13.6265 12.8983 13.6265 12C13.6265 11.1017 12.8982 10.3734 11.9999 10.3734C11.1016 10.3734 10.3733 11.1017 10.3733 12Z" fill="#F5F5F5"/>
<path d="M3.554 12C3.554 12.8983 4.28224 13.6266 5.18056 13.6266C6.07889 13.6266 6.80713 12.8983 6.80713 12C6.80713 11.1017 6.07889 10.3734 5.18056 10.3734C4.28224 10.3734 3.554 11.1017 3.554 12Z" fill="#F5F5F5"/>
</svg>
