<svg width="31" height="31" viewBox="0 0 31 31" fill="none" xmlns="http://www.w3.org/2000/svg">
<path fill-rule="evenodd" clip-rule="evenodd" d="M24.0504 17.4524C23.7557 17.7471 23.278 17.7471 22.9834 17.4524L20.3812 14.8503C20.0866 14.5556 20.0866 14.0779 20.3812 13.7832C20.6759 13.4886 21.1536 13.4886 21.4482 13.7832L23.5169 15.8519L25.5855 13.7832C25.8802 13.4886 26.3579 13.4886 26.6525 13.7832C26.9472 14.0779 26.9472 14.5556 26.6525 14.8503L24.0504 17.4524Z" fill="#F5F5F5"/>
<path fill-rule="evenodd" clip-rule="evenodd" d="M17.2441 8.85429C17.2441 8.43759 16.9063 8.09979 16.4896 8.09979H4.12787C3.71117 8.09979 3.37336 8.43759 3.37336 8.85429C3.37336 9.27099 3.71117 9.60879 4.12787 9.60879H16.4896C16.9063 9.60879 17.2441 9.27099 17.2441 8.85429Z" fill="#F5F5F5"/>
<path fill-rule="evenodd" clip-rule="evenodd" d="M17.2441 13.3633C17.2441 12.9466 16.9063 12.6088 16.4896 12.6088H4.12787C3.71117 12.6088 3.37336 12.9466 3.37336 13.3633C3.37336 13.78 3.71117 14.1178 4.12787 14.1178H16.4896C16.9063 14.1178 17.2441 13.78 17.2441 13.3633Z" fill="#F5F5F5"/>
<path fill-rule="evenodd" clip-rule="evenodd" d="M17.2441 17.8722C17.2441 17.4555 16.9063 17.1177 16.4896 17.1177H4.12787C3.71117 17.1177 3.37336 17.4555 3.37336 17.8722C3.37336 18.2889 3.71117 18.6267 4.12787 18.6267H16.4896C16.9063 18.6267 17.2441 18.2889 17.2441 17.8722Z" fill="#F5F5F5"/>
<path fill-rule="evenodd" clip-rule="evenodd" d="M17.2441 22.3812C17.2441 21.9645 16.9063 21.6267 16.4896 21.6267H4.12787C3.71117 21.6267 3.37336 21.9645 3.37336 22.3812C3.37336 22.7979 3.71117 23.1357 4.12787 23.1357H16.4896C16.9063 23.1357 17.2441 22.7979 17.2441 22.3812Z" fill="#F5F5F5"/>
</svg>
