<svg width="25" height="25" viewBox="0 0 25 25" fill="none" xmlns="http://www.w3.org/2000/svg">
<path fill-rule="evenodd" clip-rule="evenodd" d="M5.79688 4.30721V20.8072H18.2969V8.86787L13.7362 4.30719L5.79688 4.30721ZM5.74688 2.80721L14.0469 2.80719C14.2458 2.80719 14.4366 2.88621 14.5772 3.02686L19.5772 8.02689C19.7179 8.16754 19.7969 8.3583 19.7969 8.55721V20.8072C19.7969 21.189 19.6558 21.5646 19.3901 21.8493C19.1228 22.1357 18.7488 22.3072 18.3469 22.3072H5.74688C5.34496 22.3072 4.97091 22.1357 4.70361 21.8493C4.43794 21.5646 4.29688 21.189 4.29688 20.8072V4.30721C4.29688 3.92545 4.43794 3.54979 4.70361 3.26515C4.97091 2.97875 5.34496 2.80722 5.74687 2.80721L5.74688 3.55721" fill="#B8B8B8"/>
<path fill-rule="evenodd" clip-rule="evenodd" d="M8.46973 11.5701C8.46973 11.1559 8.80551 10.8201 9.21973 10.8201H14.8735C15.2877 10.8201 15.6235 11.1559 15.6235 11.5701C15.6235 11.9843 15.2877 12.3201 14.8735 12.3201H9.21973C8.80551 12.3201 8.46973 11.9843 8.46973 11.5701Z" fill="#B8B8B8"/>
<path fill-rule="evenodd" clip-rule="evenodd" d="M8.46973 15.5701C8.46973 15.1559 8.80551 14.8201 9.21973 14.8201H14.8735C15.2877 14.8201 15.6235 15.1559 15.6235 15.5701C15.6235 15.9843 15.2877 16.3201 14.8735 16.3201H9.21973C8.80551 16.3201 8.46973 15.9843 8.46973 15.5701Z" fill="#B8B8B8"/>
</svg>
