<svg width="25" height="25" viewBox="0 0 25 25" fill="none" xmlns="http://www.w3.org/2000/svg">
  <path d="M22.3129 7.93609C22.0329 7.65609 21.6429 7.49609 21.2529 7.49609H13.3129L10.7429 4.92609C10.6029 4.78609 10.4429 4.67609 10.2629 4.60609C10.0829 4.53609 9.88293 4.51609 9.69293 4.49609H4.75293C4.35293 4.49609 3.97293 4.65609 3.69293 4.93609C3.41293 5.21609 3.25293 5.59609 3.25293 5.99609V19.5561C3.25293 19.7461 3.29293 19.9361 3.36293 20.1161C3.43293 20.2861 3.54293 20.4461 3.67293 20.5761C3.80293 20.7061 3.97293 20.8161 4.14293 20.8861C4.32293 20.9561 4.50293 20.9961 4.69293 20.9961H21.3329C21.7129 20.9961 22.0629 20.8461 22.3329 20.5861C22.6029 20.3261 22.7429 19.9561 22.7429 19.5861V8.99609C22.7429 8.59609 22.5829 8.21609 22.3029 7.93609H22.3129ZM9.69293 5.99609L11.1929 7.49609H4.75293V5.99609H9.69293ZM4.75293 19.5561V8.99609H21.2529L21.2829 19.4961L4.76293 19.5561H4.75293Z" fill="#F5F5F5" />
</svg>
  