<svg width="25" height="25" viewBox="0 0 25 25" fill="none" xmlns="http://www.w3.org/2000/svg">
  <path fill-rule="evenodd" clip-rule="evenodd" d="M11.1253 3.25613C11.4016 3.00376 11.7624 2.86382 12.1367 2.86382C12.511 2.86382 12.8718 3.00376 13.1482 3.25613C13.1485 3.25645 13.1489 3.25677 13.1492 3.25709L20.6474 10.071L20.6579 10.0808C20.8061 10.2208 20.9249 10.389 21.0071 10.5756C21.0893 10.7621 21.1333 10.9632 21.1366 11.1671L21.1368 11.1792L21.1367 19.8511C21.1367 20.2489 20.9787 20.6304 20.6974 20.9117C20.4161 21.193 20.0345 21.3511 19.6367 21.3511H15.1367C14.7389 21.3511 14.3574 21.193 14.0761 20.9117C13.7948 20.6304 13.6367 20.2489 13.6367 19.8511V15.3511L10.6367 15.3511V19.8511C10.6367 20.2489 10.4787 20.6304 10.1974 20.9117C9.91607 21.193 9.53454 21.3511 9.13672 21.3511H4.63672C4.2389 21.3511 3.85736 21.193 3.57606 20.9117C3.29475 20.6304 3.13672 20.2489 3.13672 19.8511V11.1671C3.14002 10.9632 3.18417 10.7621 3.26638 10.5756C3.34859 10.389 3.46729 10.2208 3.61551 10.0808L3.62607 10.071L11.1242 3.25709C11.1246 3.25677 11.1249 3.25645 11.1253 3.25613ZM4.64382 11.173L12.1349 4.3655L12.1367 4.36382L12.1386 4.3655L19.6296 11.173C19.6316 11.1752 19.6332 11.1777 19.6344 11.1804C19.6357 11.1833 19.6365 11.1863 19.6367 11.1894V19.8511H15.1367V15.3511C15.1367 14.9533 14.9787 14.5717 14.6974 14.2904C14.4161 14.0091 14.0345 13.8511 13.6367 13.8511H10.6367C10.2389 13.8511 9.85736 14.0091 9.57606 14.2904C9.29475 14.5717 9.13672 14.9533 9.13672 15.3511V19.8511H4.63672V11.1894C4.63698 11.1863 4.63775 11.1833 4.639 11.1804C4.64021 11.1777 4.64184 11.1752 4.64382 11.173Z" fill="#F5F5F5" />
</svg>
  