<svg width="25" height="25" viewBox="0 0 25 25" fill="none" xmlns="http://www.w3.org/2000/svg">
  <path d="M14.4707 20.141V15.4725C14.4707 15.2662 14.3888 15.0682 14.2428 14.9223C14.0969 14.7764 13.899 14.6944 13.6927 14.6944H10.5803C10.374 14.6944 10.1761 14.7764 10.0302 14.9223C9.88424 15.0682 9.80227 15.2662 9.80227 15.4725V20.141C9.80227 20.3473 9.72029 20.5453 9.57437 20.6912C9.42846 20.8371 9.23055 20.9191 9.02419 20.9191H4.35572C4.14936 20.9191 3.95145 20.8371 3.80553 20.6912C3.65961 20.5453 3.57764 20.3473 3.57764 20.141V11.1444C3.57938 11.0368 3.60265 10.9305 3.64608 10.832C3.68951 10.7334 3.75222 10.6446 3.83051 10.5706L11.6113 3.49982C11.7547 3.3686 11.9421 3.29582 12.1365 3.29582C12.3309 3.29582 12.5183 3.3686 12.6617 3.49982L20.4425 10.5706C20.5208 10.6446 20.5835 10.7334 20.6269 10.832C20.6704 10.9305 20.6936 11.0368 20.6954 11.1444V20.141C20.6954 20.3473 20.6134 20.5453 20.4675 20.6912C20.3216 20.8371 20.1237 20.9191 19.9173 20.9191H15.2488C15.0425 20.9191 14.8446 20.8371 14.6986 20.6912C14.5527 20.5453 14.4707 20.3473 14.4707 20.141Z" fill="#F5F5F5" />
</svg>
  