<svg width="31" height="31" viewBox="0 0 31 31" fill="none" xmlns="http://www.w3.org/2000/svg">
<path d="M24.7994 8.9579L15.8915 3.93135C15.6365 3.78532 15.3477 3.7085 15.0538 3.7085C14.7599 3.7085 14.4711 3.78532 14.216 3.93135L5.30819 8.9579C5.04749 9.10842 4.83092 9.32479 4.68016 9.58535C4.52941 9.84591 4.44977 10.1415 4.44922 10.4425V20.4745C4.44977 20.7755 4.52941 21.0711 4.68016 21.3316C4.83092 21.5922 5.04749 21.8086 5.30819 21.9591L14.216 26.9856C14.4711 27.1317 14.7599 27.2085 15.0538 27.2085C15.3477 27.2085 15.6365 27.1317 15.8915 26.9856L24.7994 21.9591C25.0601 21.8086 25.2766 21.5922 25.4274 21.3316C25.5781 21.0711 25.6578 20.7755 25.6583 20.4745V10.4425C25.6578 10.1415 25.5781 9.84591 25.4274 9.58535C25.2766 9.32479 25.0601 9.10842 24.7994 8.9579Z" fill="#F5F5F5"/>
</svg>
