<svg width="25" height="25" viewBox="0 0 25 25" fill="none" xmlns="http://www.w3.org/2000/svg">
  <path fill-rule="evenodd" clip-rule="evenodd" d="M3.88672 13.8511C4.30093 13.8511 4.63672 14.1869 4.63672 14.6011V19.8511H19.6367V14.6011C19.6367 14.1869 19.9725 13.8511 20.3867 13.8511C20.8009 13.8511 21.1367 14.1869 21.1367 14.6011V19.8511C21.1367 20.2489 20.9787 20.6304 20.6974 20.9117C20.4161 21.193 20.0345 21.3511 19.6367 21.3511H4.63672C4.2389 21.3511 3.85736 21.193 3.57606 20.9117C3.29475 20.6304 3.13672 20.2489 3.13672 19.8511V14.6011C3.13672 14.1869 3.47251 13.8511 3.88672 13.8511Z" fill="#F5F5F5" />
  <path fill-rule="evenodd" clip-rule="evenodd" d="M16.6165 10.1311C16.3265 9.84107 15.8465 9.84107 15.5565 10.1311L12.8965 12.7911V4.10107C12.8965 3.69107 12.5565 3.35107 12.1465 3.35107C11.7365 3.35107 11.3965 3.69107 11.3965 4.10107V12.7911L8.73648 10.1311C8.44648 9.84107 7.96648 9.84107 7.67648 10.1311C7.38648 10.4211 7.38648 10.9011 7.67648 11.1911L11.6165 15.1311C11.6865 15.2011 11.7665 15.2511 11.8565 15.2911C12.0365 15.3711 12.2465 15.3711 12.4265 15.2911C12.5165 15.2511 12.5965 15.2011 12.6665 15.1311L16.6065 11.1911C16.8965 10.9011 16.8965 10.4211 16.6065 10.1311H16.6165Z" fill="#F5F5F5" />
</svg>
  