<svg width="25" height="25" viewBox="0 0 25 25" fill="none" xmlns="http://www.w3.org/2000/svg">
  <path fill-rule="evenodd" clip-rule="evenodd" d="M3.57606 4.04646C3.85736 3.76515 4.23889 3.60712 4.63672 3.60712H12.8867C13.3009 3.60712 13.6367 3.9429 13.6367 4.35712C13.6367 4.77133 13.3009 5.10712 12.8867 5.10712L4.63672 5.10712L4.63672 20.1071H19.6367V11.8571C19.6367 11.4429 19.9725 11.1071 20.3867 11.1071C20.8009 11.1071 21.1367 11.4429 21.1367 11.8571V20.1071C21.1367 20.5049 20.9787 20.8865 20.6974 21.1678C20.4161 21.4491 20.0345 21.6071 19.6367 21.6071H4.63672C4.2389 21.6071 3.85736 21.4491 3.57606 21.1678C3.29475 20.8865 3.13672 20.5049 3.13672 20.1071V5.10712C3.13672 4.70929 3.29475 4.32776 3.57606 4.04646Z" fill="#F5F5F5" />
  <path fill-rule="evenodd" clip-rule="evenodd" d="M18.7134 7.1069C19.0063 6.81401 19.0063 6.33913 18.7134 6.04624C18.4205 5.75335 17.9457 5.75335 17.6528 6.04624L11.5083 12.1907L11.5083 8.43274C11.5083 8.01853 11.1725 7.68274 10.7583 7.68274C10.3441 7.68274 10.0083 8.01853 10.0083 8.43274V14.0012C10.0083 14.4154 10.3441 14.7512 10.7583 14.7512L16.3268 14.7512C16.741 14.7512 17.0768 14.4154 17.0768 14.0012C17.0768 13.587 16.741 13.2512 16.3268 13.2512L12.5691 13.2512L18.7134 7.1069Z" fill="#F5F5F5" />
</svg>
  