<svg width="25" height="25" viewBox="0 0 25 25" fill="none" xmlns="http://www.w3.org/2000/svg">
  <path d="M17.6643 5.92615H8.06277C7.68401 5.92615 7.37695 6.18198 7.37695 6.49758V9.35472C7.37695 9.67031 7.68401 9.92615 8.06277 9.92615H17.6643C18.043 9.92615 18.3501 9.67031 18.3501 9.35472V6.49758C18.3501 6.18198 18.043 5.92615 17.6643 5.92615Z" fill="#F5F5F5" />
  <path d="M8.06231 19.4261L17.6638 19.4261C18.0426 19.4261 18.3496 19.1703 18.3496 18.8547L18.3496 15.9976C18.3496 15.682 18.0426 15.4261 17.6638 15.4261L8.06231 15.4261C7.68354 15.4261 7.37649 15.682 7.37649 15.9976L7.37649 18.8547C7.37649 19.1703 7.68354 19.4261 8.06231 19.4261Z" fill="#F5F5F5" />
  <path fill-rule="evenodd" clip-rule="evenodd" d="M3.86328 3.17615C3.86328 2.76193 4.22146 2.42615 4.6633 2.42615H21.0633C21.5051 2.42615 21.8633 2.76193 21.8633 3.17615C21.8633 3.59036 21.5051 3.92615 21.0633 3.92615H4.6633C4.22146 3.92615 3.86328 3.59036 3.86328 3.17615Z" fill="#F5F5F5" />
  <path fill-rule="evenodd" clip-rule="evenodd" d="M3.86328 12.6761C3.86328 12.2619 4.22146 11.9261 4.6633 11.9261H21.0633C21.5051 11.9261 21.8633 12.2619 21.8633 12.6761C21.8633 13.0904 21.5051 13.4261 21.0633 13.4261H4.6633C4.22146 13.4261 3.86328 13.0904 3.86328 12.6761Z" fill="#F5F5F5" />
  <path fill-rule="evenodd" clip-rule="evenodd" d="M21.8633 22.1761C21.8633 22.5904 21.5051 22.9261 21.0633 22.9261L4.66331 22.9261C4.22146 22.9261 3.86328 22.5904 3.86328 22.1761C3.86328 21.7619 4.22146 21.4261 4.66331 21.4261L21.0633 21.4261C21.5051 21.4261 21.8633 21.7619 21.8633 22.1761Z" fill="#F5F5F5" />
</svg>
  