<svg width="31" height="31" viewBox="0 0 31 31" fill="none" xmlns="http://www.w3.org/2000/svg">
<path fill-rule="evenodd" clip-rule="evenodd" d="M3.30371 10.8249C3.30371 10.3894 3.65682 10.0363 4.09241 10.0363H13.3596C13.7952 10.0363 14.1483 10.3894 14.1483 10.8249V20.0921C14.1483 20.5277 13.7952 20.8808 13.3596 20.8808H4.09241C3.65682 20.8808 3.30371 20.5277 3.30371 20.0921V10.8249ZM10.4483 13.1642C10.7533 12.8592 10.7533 12.3648 10.4483 12.0599C10.1434 11.755 9.64904 11.755 9.34411 12.0599L6.49756 14.9065C6.19263 15.2114 6.19263 15.7058 6.49756 16.0107L9.34411 18.8573C9.64904 19.1622 10.1434 19.1622 10.4483 18.8573C10.7533 18.5523 10.7533 18.058 10.4483 17.753L8.15391 15.4586L10.4483 13.1642Z" fill="#F5F5F5"/>
<path fill-rule="evenodd" clip-rule="evenodd" d="M26.8037 20.0914C26.8037 20.5269 26.4506 20.88 26.0151 20.88L16.7495 20.88C16.314 20.88 15.9609 20.5269 15.9609 20.0914L15.9609 10.8258C15.9609 10.3903 16.314 10.0372 16.7495 10.0372L26.0151 10.0372C26.4506 10.0372 26.8037 10.3903 26.8037 10.8258L26.8037 20.0914ZM19.6602 17.7526C19.3554 18.0575 19.3554 18.5518 19.6602 18.8566C19.9651 19.1615 20.4594 19.1615 20.7643 18.8566L23.6103 16.0106C23.9152 15.7057 23.9152 15.2114 23.6103 14.9065L20.7643 12.0605C20.4594 11.7556 19.9651 11.7556 19.6602 12.0605C19.3554 12.3653 19.3554 12.8596 19.6602 13.1645L21.9543 15.4585L19.6602 17.7526Z" fill="#F5F5F5"/>
</svg>
