<svg width="24" height="24" viewBox="0 0 24 24" fill="none" xmlns="http://www.w3.org/2000/svg">
<path fill-rule="evenodd" clip-rule="evenodd" d="M3.75 4.5C3.75 4.08579 4.08579 3.75 4.5 3.75H10.5C10.9142 3.75 11.25 4.08579 11.25 4.5V10.5C11.25 10.9142 10.9142 11.25 10.5 11.25H4.5C4.08579 11.25 3.75 10.9142 3.75 10.5V4.5ZM5.25 5.25V9.75H9.75V5.25H5.25Z" fill="#F5F5F5"/>
<path fill-rule="evenodd" clip-rule="evenodd" d="M12.75 4.5C12.75 4.08579 13.0858 3.75 13.5 3.75H19.5C19.9142 3.75 20.25 4.08579 20.25 4.5V10.5C20.25 10.9142 19.9142 11.25 19.5 11.25H13.5C13.0858 11.25 12.75 10.9142 12.75 10.5V4.5Z" fill="#F5F5F5"/>
<path fill-rule="evenodd" clip-rule="evenodd" d="M3.75 13.5C3.75 13.0858 4.08579 12.75 4.5 12.75H10.5C10.9142 12.75 11.25 13.0858 11.25 13.5V19.5C11.25 19.9142 10.9142 20.25 10.5 20.25H4.5C4.08579 20.25 3.75 19.9142 3.75 19.5V13.5ZM5.25 14.25V18.75H9.75V14.25H5.25Z" fill="#F5F5F5"/>
<path fill-rule="evenodd" clip-rule="evenodd" d="M12.75 13.5C12.75 13.0858 13.0858 12.75 13.5 12.75H19.5C19.9142 12.75 20.25 13.0858 20.25 13.5V19.5C20.25 19.9142 19.9142 20.25 19.5 20.25H13.5C13.0858 20.25 12.75 19.9142 12.75 19.5V13.5ZM14.25 14.25V18.75H18.75V14.25H14.25Z" fill="#F5F5F5"/>
</svg>
