<?xml version="1.0" encoding="utf-8"?>
<!-- Generator: Adobe Illustrator 26.0.3, SVG Export Plug-In . SVG Version: 6.00 Build 0)  -->
<svg version="1.1" xmlns="http://www.w3.org/2000/svg" xmlns:xlink="http://www.w3.org/1999/xlink" x="0px" y="0px"
	 viewBox="0 0 134.11 134.1" style="enable-background:new 0 0 134.11 134.1;" xml:space="preserve">
<style type="text/css">
	.st0{fill:#D3D0CB;}
	.st1{fill:none;stroke:#000000;stroke-miterlimit:10;}
	.st2{fill:#FFFFFF;}
	.st3{fill:#FBFDFD;}
	.st4{fill:url(#SVGID_1_);}
	.st5{fill:#0AC29B;}
	.st6{fill:none;stroke:#FF5633;stroke-miterlimit:10;}
	.st7{fill:#9A968E;}
	.st8{fill:#FDFEFA;}
	.st9{fill:#AF0D4B;}
	.st10{fill:#FF5633;}
	.st11{fill:#FFC300;}
	.st12{fill:#12A8DD;}
	.st13{fill:none;stroke:#AF0D4B;stroke-width:3;stroke-miterlimit:10;}
	.st14{fill:none;stroke:#FFC300;stroke-width:3;stroke-miterlimit:10;}
	.st15{fill:none;stroke:#ED1818;stroke-miterlimit:10;}
	.st16{fill:none;stroke:#AF0D4B;stroke-miterlimit:10;}
	.st17{fill:url(#SVGID_00000135688493000735242270000017282986527343906494_);stroke:#AF0D4B;stroke-miterlimit:10;}
	.st18{fill:url(#SVGID_00000034786344132526564830000014129822864076989606_);stroke:#AF0D4B;stroke-miterlimit:10;}
	.st19{fill:none;stroke:#12A8DD;stroke-miterlimit:10;}
</style>
<g id="logos">
	<g>
		<path class="st3" d="M66.49,134.1c-0.57-0.12-1.15-0.19-1.71-0.36c-1.23-0.36-2.27-1.03-3.18-1.94
			C42.3,112.49,22.99,93.19,3.68,73.88c-0.55-0.55-1.13-1.09-1.65-1.67c-2.83-3.14-2.69-7.67,0.33-10.68
			C17.44,46.45,32.52,31.37,47.6,16.29c4.65-4.65,9.3-9.29,13.94-13.94c1.53-1.53,3.36-2.35,5.53-2.34c2.09,0,3.89,0.75,5.37,2.23
			c10.59,10.58,21.18,21.17,31.77,31.76c9.2,9.2,18.4,18.4,27.61,27.61c3.01,3.01,3.06,7.68,0.13,10.75
			c-0.24,0.25-0.49,0.51-0.74,0.76c-19.51,19.51-39.02,39.02-58.53,58.53c-1.15,1.15-2.47,1.97-4.08,2.29
			c-0.33,0.07-0.66,0.11-0.99,0.16C67.24,134.1,66.87,134.1,66.49,134.1z M81.37,31.76c0.1-1.91-1.04-4.1-2.28-5.35
			c-2.44-2.48-4.91-4.93-7.38-7.38c-1.25-1.24-2.76-1.9-4.53-1.93c-1.92-0.03-3.54,0.67-4.89,2.02
			C50.17,31.24,38.05,43.36,25.93,55.49c-2.28,2.28-4.57,4.56-6.84,6.84c-2.67,2.68-2.66,6.76,0.01,9.43
			c1.63,1.63,3.26,3.25,4.88,4.88c0.93,0.94,1.85,1.89,2.79,2.82c1.88,1.86,4.11,2.47,6.67,1.76c2.44-0.68,4.88-1.4,7.32-2.1
			c4.53-1.3,9.07-2.59,13.6-3.9c2.35-0.68,3.66-3.05,2.98-5.36c-0.67-2.29-3.04-3.57-5.38-2.9c-6.15,1.76-12.3,3.52-18.44,5.3
			c-0.95,0.27-1.71,0.04-2.38-0.62c-1.06-1.05-2.11-2.1-3.15-3.15c-0.13-0.13-0.25-0.28-0.34-0.44c-0.49-0.86-0.31-1.8,0.46-2.58
			C40.56,53.01,53.02,40.55,65.48,28.1c0.03-0.03,0.06-0.06,0.09-0.09c0.88-0.85,2.11-0.85,2.98,0.02c0.95,0.94,1.89,1.88,2.83,2.83
			c0.17,0.17,0.33,0.36,0.48,0.55c0.46,0.58,0.58,1.22,0.37,1.93c-1.39,4.83-2.77,9.66-4.16,14.48c-3.11,10.85-6.22,21.7-9.33,32.55
			c-1.94,6.78-3.89,13.56-5.84,20.35c-0.31,1.07-0.34,2.14-0.11,3.23c0.32,1.53,1.21,2.72,2.27,3.8c2.45,2.47,4.92,4.93,7.38,7.38
			c2.53,2.53,6.69,2.53,9.22,0c2.14-2.14,4.28-4.28,6.42-6.42c12.33-12.33,24.67-24.67,37-37c2.49-2.49,2.61-6.5,0.2-9.07
			c-1.43-1.52-2.95-2.97-4.42-4.45c-1.17-1.18-2.33-2.37-3.51-3.54c-1.87-1.85-4.09-2.48-6.63-1.77c-3.68,1.03-7.35,2.1-11.03,3.16
			c-3.3,0.95-6.59,1.89-9.89,2.83c-2.72,0.78-4.01,3.76-2.68,6.22c0.89,1.64,2.92,2.69,5.19,2.03c6.11-1.78,12.23-3.52,18.35-5.26
			c0.3-0.09,0.63-0.12,0.94-0.1c0.61,0.05,1.08,0.41,1.5,0.83c0.97,0.97,1.95,1.95,2.92,2.92c0.98,0.98,0.98,2.15-0.01,3.14
			C93.56,81.08,81.1,93.54,68.64,105.99c-0.07,0.07-0.14,0.14-0.21,0.21c-0.79,0.71-1.98,0.72-2.73-0.01
			c-1.12-1.09-2.23-2.19-3.32-3.32c-0.56-0.58-0.8-1.27-0.57-2.09c2.53-8.81,5.06-17.62,7.59-26.43
			c3.78-13.19,7.57-26.38,11.35-39.57C81.04,33.78,81.42,32.78,81.37,31.76z"/>
	</g>
</g>
<g id="colors">
</g>
<g id="construction_lines">
</g>
</svg>
