<svg width="25" height="25" viewBox="0 0 25 25" fill="none" xmlns="http://www.w3.org/2000/svg">
  <path fill-rule="evenodd" clip-rule="evenodd" d="M18.667 2.86454C18.3742 2.57164 17.8993 2.57164 17.6064 2.86454L15.357 5.11395C15.3568 5.11415 15.3566 5.11434 15.3564 5.11454C15.3562 5.11473 15.356 5.11493 15.3558 5.11512L8.60639 11.8645C8.46574 12.0052 8.38672 12.196 8.38672 12.3949V15.3949C8.38672 15.8091 8.72251 16.1449 9.13672 16.1449H12.1367C12.3356 16.1449 12.5264 16.0658 12.667 15.9252L19.4163 9.17591C19.4166 9.17568 19.4168 9.17544 19.417 9.1752C19.4173 9.17496 19.4175 9.17472 19.4178 9.17448L21.667 6.9252C21.9599 6.6323 21.9599 6.15743 21.667 5.86454L18.667 2.86454ZM18.8867 7.58421L20.0761 6.39487L18.1367 4.45553L16.9474 5.64487L18.8867 7.58421ZM15.8867 6.70553L9.88672 12.7055V14.6449H11.8261L17.8261 8.64487L15.8867 6.70553Z" fill="#F5F5F5" />
  <path fill-rule="evenodd" clip-rule="evenodd" d="M3.57606 3.83421C3.85736 3.5529 4.23889 3.39487 4.63672 3.39487H12.8867C13.3009 3.39487 13.6367 3.73065 13.6367 4.14487C13.6367 4.55908 13.3009 4.89487 12.8867 4.89487L4.63672 4.89487L4.63672 19.8949H19.6367V11.6449C19.6367 11.2307 19.9725 10.8949 20.3867 10.8949C20.8009 10.8949 21.1367 11.2307 21.1367 11.6449V19.8949C21.1367 20.2927 20.9787 20.6742 20.6974 20.9555C20.4161 21.2368 20.0345 21.3949 19.6367 21.3949H4.63672C4.2389 21.3949 3.85736 21.2368 3.57606 20.9555C3.29475 20.6742 3.13672 20.2927 3.13672 19.8949V4.89487C3.13672 4.49704 3.29475 4.11551 3.57606 3.83421Z" fill="#F5F5F5" />
</svg>
  