<svg width="31" height="31" viewBox="0 0 31 31" fill="none" xmlns="http://www.w3.org/2000/svg">
<path fill-rule="evenodd" clip-rule="evenodd" d="M20.0938 5.5113C20.0938 5.06948 20.4519 4.7113 20.8937 4.7113H26.0037C26.4456 4.7113 26.8037 5.06948 26.8037 5.5113V10.6213C26.8037 11.0631 26.4456 11.4213 26.0037 11.4213H20.8937C20.4519 11.4213 20.0938 11.0631 20.0938 10.6213V8.65926H15.8667C15.755 8.65926 15.6645 8.74979 15.6645 8.86148V22.0219C15.6645 22.1336 15.755 22.2241 15.8667 22.2241H20.0938V20.2957C20.0938 19.8539 20.4519 19.4957 20.8937 19.4957H26.0037C26.4456 19.4957 26.8037 19.8539 26.8037 20.2957V25.4057C26.8037 25.8476 26.4456 26.2057 26.0037 26.2057H20.8937C20.4519 26.2057 20.0938 25.8476 20.0938 25.4057V23.4374H15.8667C15.0849 23.4374 14.4512 22.8037 14.4512 22.0219V16.0483H10.0137V17.9967C10.0137 18.4385 9.65554 18.7967 9.21371 18.7967H4.10371C3.66188 18.7967 3.30371 18.4385 3.30371 17.9967V12.8867C3.30371 12.4448 3.66188 12.0867 4.10371 12.0867H9.21371C9.65554 12.0867 10.0137 12.4448 10.0137 12.8867V14.835H14.4512V8.86148C14.4512 8.07969 15.0849 7.44592 15.8667 7.44592H20.0938V5.5113Z" fill="#F5F5F5"/>
</svg>
