<svg width="31" height="31" viewBox="0 0 31 31" fill="none" xmlns="http://www.w3.org/2000/svg">
<path fill-rule="evenodd" clip-rule="evenodd" d="M18.4091 3.96843L24.736 10.2953C24.9038 10.4675 24.9972 10.6988 24.9958 10.9393V25.4008C24.9958 25.8802 24.8054 26.34 24.4664 26.679C24.1274 27.018 23.6676 27.2085 23.1882 27.2085H15.4572V18.1174C15.4572 17.7838 15.3246 17.4638 15.0887 17.2279C14.8528 16.9919 14.5328 16.8594 14.1992 16.8594H5.11133V5.51625C5.11133 5.03683 5.30178 4.57704 5.64079 4.23803C5.97979 3.89902 6.43958 3.70857 6.91901 3.70857H17.7651C18.0056 3.70722 18.2369 3.80056 18.4091 3.96843ZM17.7651 5.96818V10.9393H22.7362L17.7651 5.96818Z" fill="#F5F5F5"/>
<path fill-rule="evenodd" clip-rule="evenodd" d="M7.17395 19.3807C6.73211 19.3807 6.37392 19.7389 6.37392 20.1808C6.37392 20.6226 6.73211 20.9808 7.17395 20.9808H10.204L5.46381 25.7209C5.15138 26.0334 5.15138 26.5399 5.46381 26.8524C5.77624 27.1648 6.28279 27.1648 6.59522 26.8524L11.3349 22.1127V25.1418C11.3349 25.5836 11.6931 25.9418 12.1349 25.9418C12.5768 25.9418 12.935 25.5836 12.935 25.1418V20.2066C12.9418 19.9934 12.8638 19.7779 12.7011 19.6151C12.5995 19.5135 12.4773 19.4449 12.348 19.4094C12.2802 19.3907 12.2087 19.3807 12.1349 19.3807H7.17395Z" fill="#F5F5F5"/>
</svg>
