<svg width="25" height="25" viewBox="0 0 25 25" fill="none" xmlns="http://www.w3.org/2000/svg">
<path d="M8.05486 12.9785C8.05486 13.5307 7.60721 13.9784 7.05502 13.9784C6.50282 13.9784 6.05518 13.5307 6.05518 12.9785C6.05518 12.4263 6.50282 11.9787 7.05502 11.9787C7.60721 11.9787 8.05486 12.4263 8.05486 12.9785Z" fill="#F5F5F5"/>
<path d="M9.69043 8.8385C9.69043 9.39079 9.24271 9.8385 8.69043 9.8385C8.13814 9.8385 7.69043 9.39079 7.69043 8.8385C7.69043 8.28622 8.13814 7.8385 8.69043 7.8385C9.24271 7.8385 9.69043 8.28622 9.69043 8.8385Z" fill="#F5F5F5"/>
<path d="M13.9253 7.36934C13.9253 7.92162 13.4776 8.36934 12.9253 8.36934C12.373 8.36934 11.9253 7.92162 11.9253 7.36934C11.9253 6.81705 12.373 6.36934 12.9253 6.36934C13.4776 6.36934 13.9253 6.81705 13.9253 7.36934Z" fill="#F5F5F5"/>
<path d="M17.7762 10.1072C17.7762 10.6582 17.3295 11.1049 16.7785 11.1049C16.2274 11.1049 15.7808 10.6582 15.7808 10.1072C15.7808 9.55621 16.2274 9.10953 16.7785 9.10953C17.3295 9.10953 17.7762 9.55621 17.7762 10.1072Z" fill="#F5F5F5"/>
<path d="M10.0613 21.936C9.66129 21.936 9.27129 21.866 8.89129 21.736C6.73129 20.976 4.89129 19.466 3.72129 17.496C2.56129 15.526 2.13129 13.186 2.50129 10.926C2.88129 8.66604 4.04129 6.59604 5.78129 5.10604C7.53129 3.61604 9.75129 2.77604 12.0413 2.75604H12.1513C14.7213 2.75604 17.1513 3.75604 18.9813 5.56604C19.9013 6.45604 20.6313 7.51604 21.1313 8.70604C21.6413 9.89604 21.9013 11.156 21.9013 12.446C21.9013 13.206 21.8313 13.966 21.6513 14.696C21.4813 15.466 21.0413 16.176 20.4213 16.676C19.8013 17.176 18.9713 17.426 18.2113 17.436H14.2113C14.0413 17.436 13.8813 17.506 13.7613 17.626C13.6413 17.746 13.5713 17.906 13.5713 18.076V18.416C13.5713 18.976 13.4313 19.536 13.1813 20.036C12.9213 20.536 12.5513 20.966 12.0913 21.296C11.6313 21.626 11.1013 21.836 10.5413 21.916C10.3813 21.936 10.2113 21.946 10.0513 21.946L10.0613 21.936ZM12.0513 4.25604C10.1213 4.27604 8.24129 4.97604 6.76129 6.24604C5.29129 7.50604 4.30129 9.25604 3.98129 11.176C3.66129 13.086 4.03129 15.066 5.02129 16.736C6.01129 18.406 7.56129 19.686 9.39129 20.326C9.69129 20.436 10.0213 20.466 10.3413 20.416C10.6613 20.376 10.9713 20.246 11.2313 20.066C11.4913 19.876 11.7113 19.626 11.8613 19.346C12.0113 19.056 12.0913 18.736 12.0913 18.416V18.076C12.0913 17.506 12.3113 16.966 12.7213 16.566C13.1213 16.166 13.6713 15.936 14.2313 15.936H18.2413C18.6913 15.956 19.1513 15.786 19.5113 15.496C19.8713 15.206 20.1213 14.806 20.2213 14.366C20.3713 13.736 20.4313 13.096 20.4313 12.456C20.4313 11.366 20.2013 10.296 19.7813 9.29604C19.3513 8.29604 18.7413 7.39604 17.9613 6.63604C16.4113 5.09604 14.3513 4.25604 12.1813 4.25604H12.0813H12.0513Z" fill="#F5F5F5"/>
</svg>
