<svg width="25" height="25" viewBox="0 0 25 25" fill="none" xmlns="http://www.w3.org/2000/svg">
  <path fill-rule="evenodd" clip-rule="evenodd" d="M12.1401 3.51041C14.5038 3.50876 16.7726 4.44057 18.4528 6.10312C19.3025 6.92856 19.9794 7.91494 20.4439 9.00472C20.9084 10.0945 21.1512 11.2659 21.1582 12.4505C21.1662 13.1507 21.0905 13.8494 20.9328 14.5316C20.7976 15.1471 20.4551 15.6974 19.9626 16.0905C19.4701 16.4836 18.8575 16.6955 18.2274 16.6908L14.4204 16.3585C14.0524 16.3585 13.5197 16.6482 13.2596 16.9084C12.9994 17.1686 12.8338 17.7102 12.8338 18.0782V18.4164C12.8339 18.8598 12.7277 19.2968 12.5241 19.6908C12.3206 20.0847 12.0255 20.4242 11.6638 20.6806C11.302 20.9371 10.8841 21.1031 10.4449 21.1648C10.0058 21.2264 9.55826 21.182 9.13985 21.0351C7.13912 20.3312 5.45052 18.9446 4.37079 17.119C3.29107 15.2935 2.88933 13.1458 3.23616 11.0534C3.583 8.961 4.65622 7.0578 6.26721 5.67827C7.8782 4.29873 9.92388 3.53115 12.0447 3.51041H12.1401ZM8.57594 14.277C8.57594 15.1607 7.8596 15.877 6.97594 15.877C6.09228 15.877 5.37594 15.1607 5.37594 14.277C5.37594 13.3934 6.09228 12.677 6.97594 12.677C7.8596 12.677 8.57594 13.3934 8.57594 14.277ZM7.9206 10.4674C8.80426 10.4674 9.5206 9.7511 9.5206 8.86744C9.5206 7.98378 8.80426 7.26744 7.9206 7.26744C7.03695 7.26744 6.3206 7.98378 6.3206 8.86744C6.3206 9.7511 7.03695 10.4674 7.9206 10.4674ZM14.6854 6.96071C14.6854 7.84436 13.9691 8.56071 13.0854 8.56071C12.2018 8.56071 11.4854 7.84436 11.4854 6.96071C11.4854 6.07705 12.2018 5.36071 13.0854 5.36071C13.9691 5.36071 14.6854 6.07705 14.6854 6.96071ZM17.3841 12.1538C18.2678 12.1538 18.9841 11.4374 18.9841 10.5538C18.9841 9.67013 18.2678 8.95378 17.3841 8.95378C16.5005 8.95378 15.7841 9.67013 15.7841 10.5538C15.7841 11.4374 16.5005 12.1538 17.3841 12.1538Z" fill="#F5F5F5" />
</svg>
  