<svg width="25" height="24" viewBox="0 0 25 24" fill="none" xmlns="http://www.w3.org/2000/svg">
  <path fill-rule="evenodd" clip-rule="evenodd" d="M12.1369 4.63657C8.07016 4.63657 4.77344 7.93329 4.77344 12C4.77344 16.0667 8.07016 19.3634 12.1369 19.3634C16.2036 19.3634 19.5003 16.0667 19.5003 12C19.5003 7.93329 16.2036 4.63657 12.1369 4.63657ZM3.27344 12C3.27344 7.10486 7.24173 3.13657 12.1369 3.13657C17.032 3.13657 21.0003 7.10486 21.0003 12C21.0003 16.8951 17.032 20.8634 12.1369 20.8634C7.24173 20.8634 3.27344 16.8951 3.27344 12Z" fill="#F5F5F5" />
  <path d="M14.2883 9.24828H9.98477C9.65339 9.24828 9.38477 9.51691 9.38477 9.84828V14.1518C9.38477 14.4832 9.6534 14.7518 9.98477 14.7518H14.2883C14.6197 14.7518 14.8883 14.4832 14.8883 14.1518V9.84828C14.8883 9.51691 14.6197 9.24828 14.2883 9.24828Z" fill="#F5F5F5" />
</svg>
  