<svg width="25" height="25" viewBox="0 0 25 25" fill="none" xmlns="http://www.w3.org/2000/svg">
  <path fill-rule="evenodd" clip-rule="evenodd" d="M4.63135 21.3983H8.82135V21.3883C9.02135 21.3883 9.21135 21.3483 9.39135 21.2783C9.57135 21.2083 9.74135 21.0983 9.88135 20.9583L18.6285 12.2111C18.6417 12.1997 18.6545 12.1877 18.667 12.1752C18.6796 12.1627 18.6915 12.1498 18.703 12.1367L21.1313 9.70833C21.2813 9.56833 21.3913 9.40833 21.4613 9.22833C21.5413 9.04833 21.5813 8.84833 21.5813 8.64833C21.5813 8.44833 21.5413 8.24833 21.4613 8.06833C21.3813 7.87833 21.2713 7.71833 21.1313 7.57833L16.9513 3.39833C16.8113 3.25833 16.6513 3.14833 16.4613 3.06833C16.0913 2.91833 15.6813 2.90833 15.3013 3.06833C15.1213 3.14833 14.9513 3.25833 14.8213 3.39833L3.57135 14.6483C3.42135 14.7883 3.31135 14.9583 3.24135 15.1383C3.17135 15.3183 3.13135 15.5183 3.13135 15.7083V19.8983C3.13135 20.2883 3.29135 20.6783 3.57135 20.9583C3.85135 21.2383 4.23135 21.3983 4.63135 21.3983ZM18.1361 10.5836L20.0713 8.64833L15.8813 4.45833L13.9461 6.39358L18.1361 10.5836ZM12.8854 7.45424L4.63135 15.7083V19.8983H8.82135L17.0754 11.6442L12.8854 7.45424Z" fill="#b8b8b8" />
</svg>