<svg width="24" height="25" viewBox="0 0 24 25" fill="none" xmlns="http://www.w3.org/2000/svg">
<path fill-rule="evenodd" clip-rule="evenodd" d="M12.0002 5.54709C7.93344 5.54709 4.63672 8.84381 4.63672 12.9105C4.63672 16.9772 7.93344 20.274 12.0002 20.274C16.0669 20.274 19.3636 16.9772 19.3636 12.9105C19.3636 8.84381 16.0669 5.54709 12.0002 5.54709ZM3.13672 12.9105C3.13672 8.01538 7.10501 4.04709 12.0002 4.04709C16.8953 4.04709 20.8636 8.01538 20.8636 12.9105C20.8636 17.8057 16.8953 21.774 12.0002 21.774C7.10501 21.774 3.13672 17.8057 3.13672 12.9105Z" fill="#B8B8B8"/>
<path d="M15.1647 13.3266C15.4616 13.1287 15.4616 12.6924 15.1647 12.4945L10.4951 9.38148C10.1628 9.15996 9.71777 9.39815 9.71777 9.7975V16.0236C9.71777 16.4229 10.1628 16.6611 10.4951 16.4396L15.1647 13.3266Z" fill="#B8B8B8"/>
</svg>
