<svg width="24" height="24" viewBox="0 0 24 24" fill="none" xmlns="http://www.w3.org/2000/svg">
<path d="M11.9999 18.1304C12.6198 18.1304 13.1223 17.6279 13.1223 17.008C13.1223 16.3881 12.6198 15.8855 11.9999 15.8855C11.38 15.8855 10.8774 16.3881 10.8774 17.008C10.8774 17.6279 11.38 18.1304 11.9999 18.1304Z" fill="#B8B8B8"/>
<path fill-rule="evenodd" clip-rule="evenodd" d="M10.7115 6.65385C11.3268 6.39898 12.0039 6.3323 12.6571 6.46223C13.3103 6.59216 13.9103 6.91286 14.3812 7.3838C14.8522 7.85473 15.1729 8.45473 15.3028 9.10793C15.4327 9.76113 15.366 10.4382 15.1112 11.0535C14.8563 11.6688 14.4247 12.1947 13.871 12.5647C13.5276 12.7941 13.1469 12.9572 12.7485 13.048V14.1205C12.7485 14.5338 12.4134 14.8688 12.0002 14.8688C11.5869 14.8688 11.2519 14.5338 11.2519 14.1205V12.3839C11.2519 12.1855 11.3307 11.9951 11.471 11.8548C11.6114 11.7145 11.8017 11.6356 12.0002 11.6356C12.3702 11.6356 12.7318 11.5259 13.0395 11.3203C13.3471 11.1148 13.5869 10.8226 13.7285 10.4808C13.8701 10.1389 13.9071 9.76279 13.835 9.3999C13.7628 9.03701 13.5846 8.70368 13.323 8.44205C13.0613 8.18042 12.728 8.00225 12.3651 7.93007C12.0022 7.85788 11.6261 7.89493 11.2843 8.03652C10.9424 8.17812 10.6502 8.41789 10.4447 8.72554C10.2391 9.03318 10.1294 9.39487 10.1294 9.76487C10.1294 10.1781 9.79439 10.5132 9.38111 10.5132C8.96784 10.5132 8.63281 10.1781 8.63281 9.76487C8.63281 9.09887 8.8303 8.44783 9.20031 7.89407C9.57032 7.34031 10.0962 6.90871 10.7115 6.65385Z" fill="#B8B8B8"/>
</svg>
