<svg width="31" height="31" viewBox="0 0 31 31" fill="none" xmlns="http://www.w3.org/2000/svg">
<path fill-rule="evenodd" clip-rule="evenodd" d="M8.18335 25.1716C9.9982 25.1716 11.4694 23.7003 11.4694 21.8855C11.4694 20.0706 9.9982 18.5994 8.18335 18.5994C6.36849 18.5994 4.89727 20.0706 4.89727 21.8855C4.89727 23.7003 6.36849 25.1716 8.18335 25.1716ZM12.6694 21.8855C12.6694 24.3631 10.6609 26.3716 8.18335 26.3716C5.70575 26.3716 3.69727 24.3631 3.69727 21.8855C3.69727 19.4079 5.70575 17.3994 8.18335 17.3994C10.6609 17.3994 12.6694 19.4079 12.6694 21.8855Z" fill="#F5F5F5"/>
<path d="M8.18357 22.9173C8.75337 22.9173 9.21528 22.4554 9.21528 21.8856C9.21528 21.3158 8.75337 20.8539 8.18357 20.8539C7.61377 20.8539 7.15186 21.3158 7.15186 21.8856C7.15186 22.4554 7.61377 22.9173 8.18357 22.9173Z" fill="#F5F5F5"/>
<path fill-rule="evenodd" clip-rule="evenodd" d="M8.18335 12.3176C9.9982 12.3176 11.4694 10.8463 11.4694 9.03149C11.4694 7.21664 9.9982 5.74541 8.18335 5.74541C6.36849 5.74541 4.89727 7.21664 4.89727 9.03149C4.89727 10.8463 6.36849 12.3176 8.18335 12.3176ZM12.6694 9.03149C12.6694 11.5091 10.6609 13.5176 8.18335 13.5176C5.70575 13.5176 3.69727 11.5091 3.69727 9.03149C3.69727 6.5539 5.70575 4.54541 8.18335 4.54541C10.6609 4.54541 12.6694 6.5539 12.6694 9.03149Z" fill="#F5F5F5"/>
<path fill-rule="evenodd" clip-rule="evenodd" d="M15.8379 9.03149C15.8379 8.47921 16.2856 8.03149 16.8379 8.03149H26.4095C26.9618 8.03149 27.4095 8.47921 27.4095 9.03149C27.4095 9.58378 26.9618 10.0315 26.4095 10.0315H16.8379C16.2856 10.0315 15.8379 9.58378 15.8379 9.03149Z" fill="#F5F5F5"/>
<path fill-rule="evenodd" clip-rule="evenodd" d="M15.8379 21.8856C15.8379 21.3333 16.2856 20.8856 16.8379 20.8856H26.4095C26.9618 20.8856 27.4095 21.3333 27.4095 21.8856C27.4095 22.4379 26.9618 22.8856 26.4095 22.8856H16.8379C16.2856 22.8856 15.8379 22.4379 15.8379 21.8856Z" fill="#F5F5F5"/>
</svg>
