<svg width="25" height="25" viewBox="0 0 25 25" fill="none" xmlns="http://www.w3.org/2000/svg">
  <path fill-rule="evenodd" clip-rule="evenodd" d="M6.10597 12.6071C6.10597 9.27605 8.80631 6.57571 12.1373 6.57571C14.294 6.57571 16.1873 7.70734 17.2542 9.41235H14.8667C14.4525 9.41235 14.1167 9.74814 14.1167 10.1624C14.1167 10.5766 14.4525 10.9124 14.8667 10.9124H18.9323C19.3465 10.9124 19.6823 10.5766 19.6823 10.1624V6.09679C19.6823 5.68257 19.3465 5.34679 18.9323 5.34679C18.5181 5.34679 18.1823 5.68257 18.1823 6.09679V8.11989C16.8111 6.27569 14.6143 5.07912 12.1373 5.07912C7.97976 5.07912 4.60938 8.4495 4.60938 12.6071C4.60938 16.7647 7.97976 20.1351 12.1373 20.1351C15.4161 20.1351 18.2034 18.0394 19.2366 15.1167C19.3744 14.7271 19.1702 14.2996 18.7805 14.1618C18.3909 14.0241 17.9633 14.2283 17.8256 14.6179C16.9972 16.9613 14.7622 18.6385 12.1373 18.6385C8.80631 18.6385 6.10597 15.9381 6.10597 12.6071Z" fill="#F5F5F5" />
</svg>
  