<svg width="24" height="24" viewBox="0 0 24 24" fill="none" xmlns="http://www.w3.org/2000/svg">
<path fill-rule="evenodd" clip-rule="evenodd" d="M5.49204 3.54434C6.0493 3.24636 6.73631 3.10577 7.55784 3.10577C7.97205 3.10577 8.30784 3.44156 8.30784 3.85577C8.30784 4.26999 7.97205 4.60577 7.55784 4.60577C6.89859 4.60577 6.47503 4.71969 6.19936 4.8671C5.9363 5.00777 5.76448 5.20157 5.64135 5.45551C5.36201 6.03166 5.3463 6.85399 5.3463 7.92789L5.34633 8.02C5.34682 8.96663 5.34742 10.1339 4.90097 11.0547C4.72843 11.4105 4.48938 11.7337 4.16677 12C4.48938 12.2663 4.72843 12.5895 4.90097 12.9453C5.34742 13.8661 5.34682 15.0334 5.34633 15.98L5.3463 16.0721C5.3463 17.146 5.36201 17.9683 5.64135 18.5445C5.76448 18.7984 5.9363 18.9922 6.19936 19.1329C6.47503 19.2803 6.89859 19.3942 7.55784 19.3942C7.97205 19.3942 8.30784 19.73 8.30784 20.1442C8.30784 20.5584 7.97205 20.8942 7.55784 20.8942C6.73631 20.8942 6.0493 20.7536 5.49204 20.4557C4.92217 20.1509 4.5387 19.7085 4.29163 19.1989C3.84519 18.2781 3.84578 17.1109 3.84627 16.1642L3.8463 16.0721C3.8463 14.9982 3.83059 14.1759 3.55125 13.5997C3.42813 13.3458 3.2563 13.152 2.99325 13.0113C2.71757 12.8639 2.29401 12.75 1.63477 12.75C1.22055 12.75 0.884766 12.4142 0.884766 12C0.884766 11.5858 1.22055 11.25 1.63477 11.25C2.29401 11.25 2.71757 11.1361 2.99325 10.9887C3.2563 10.848 3.42813 10.6542 3.55125 10.4003C3.83059 9.82411 3.8463 9.00178 3.8463 7.92789L3.84627 7.83578C3.84578 6.88915 3.84519 5.7219 4.29163 4.8011C4.5387 4.29152 4.92217 3.84906 5.49204 3.54434ZM15.6924 3.85577C15.6924 3.44156 16.0282 3.10577 16.4424 3.10577C17.2639 3.10577 17.9509 3.24636 18.5082 3.54434C19.0781 3.84906 19.4615 4.29152 19.7086 4.8011C20.155 5.7219 20.1544 6.88915 20.1539 7.83578L20.1539 7.92789C20.1539 9.00178 20.1696 9.82411 20.449 10.4003C20.5721 10.6542 20.7439 10.848 21.007 10.9887C21.2827 11.1361 21.7062 11.25 22.3655 11.25C22.7797 11.25 23.1155 11.5858 23.1155 12C23.1155 12.4142 22.7797 12.75 22.3655 12.75C21.7062 12.75 21.2827 12.8639 21.007 13.0113C20.7439 13.152 20.5721 13.3458 20.449 13.5997C20.1696 14.1759 20.1539 14.9982 20.1539 16.0721L20.1539 16.1642C20.1544 17.1109 20.155 18.2781 19.7086 19.1989C19.4615 19.7085 19.0781 20.1509 18.5082 20.4557C17.9509 20.7536 17.2639 20.8942 16.4424 20.8942C16.0282 20.8942 15.6924 20.5584 15.6924 20.1442C15.6924 19.73 16.0282 19.3942 16.4424 19.3942C17.1016 19.3942 17.5252 19.2803 17.8009 19.1329C18.0639 18.9922 18.2357 18.7984 18.3589 18.5445C18.6382 17.9683 18.6539 17.146 18.6539 16.0721L18.6539 15.98C18.6534 15.0334 18.6528 13.8661 19.0993 12.9453C19.2718 12.5895 19.5108 12.2663 19.8334 12C19.5108 11.7337 19.2718 11.4105 19.0993 11.0547C18.6528 10.1339 18.6534 8.96663 18.6539 8.02L18.6539 7.92789C18.6539 6.85399 18.6382 6.03166 18.3589 5.45551C18.2357 5.20157 18.0639 5.00777 17.8009 4.8671C17.5252 4.71969 17.1016 4.60577 16.4424 4.60577C16.0282 4.60577 15.6924 4.26999 15.6924 3.85577ZM12.9001 12C12.9001 12.4971 12.4972 12.9 12.0001 12.9C11.503 12.9 11.1001 12.4971 11.1001 12C11.1001 11.5029 11.503 11.1 12.0001 11.1C12.4972 11.1 12.9001 11.5029 12.9001 12ZM7.92783 12.9C8.42489 12.9 8.82783 12.4971 8.82783 12C8.82783 11.5029 8.42489 11.1 7.92783 11.1C7.43078 11.1 7.02783 11.5029 7.02783 12C7.02783 12.4971 7.43078 12.9 7.92783 12.9ZM16.9724 12C16.9724 12.4971 16.5694 12.9 16.0724 12.9C15.5753 12.9 15.1724 12.4971 15.1724 12C15.1724 11.5029 15.5753 11.1 16.0724 11.1C16.5694 11.1 16.9724 11.5029 16.9724 12Z" fill="#B8B8B8"/>
</svg>
