<svg width="25" height="25" viewBox="0 0 25 25" fill="none" xmlns="http://www.w3.org/2000/svg">
  <path fill-rule="evenodd" clip-rule="evenodd" d="M20.5342 3.2098C20.295 2.97056 19.98 2.82211 19.6434 2.78974C18.4809 2.66128 15.7953 2.55045 13.0376 3.76524C12.0841 4.18522 11.1314 4.75974 10.2357 5.5349L6.06373 5.90977C5.83629 5.92817 5.61647 6.0004 5.42241 6.12053C5.2304 6.2394 5.06912 6.40175 4.95155 6.59441L2.17477 10.9451L2.17348 10.9472C2.03955 11.1585 1.96158 11.4004 1.94688 11.6501C1.93219 11.8999 1.98126 12.1493 2.08948 12.3749C2.1977 12.6004 2.36152 12.7948 2.56552 12.9396C2.76953 13.0844 3.00747 13.175 3.25611 13.2028L6.45582 13.5584L7.79038 14.8929L5.49925 17.184C5.20636 17.4769 5.20635 17.9518 5.49924 18.2447C5.79213 18.5376 6.26701 18.5376 6.5599 18.2447L8.85104 15.9536L10.1858 17.2884L10.5414 20.4881C10.5691 20.7367 10.6597 20.9742 10.8045 21.1782C10.9494 21.3822 11.1437 21.5461 11.3693 21.6543C11.5948 21.7625 11.8442 21.8116 12.094 21.7969C12.3437 21.7822 12.5857 21.7042 12.797 21.5703L12.799 21.569L17.1497 18.7922C17.3424 18.6746 17.5047 18.5134 17.6236 18.3214C17.7437 18.1274 17.8159 17.9078 17.8343 17.6805L18.2217 13.4195C18.9711 12.5403 19.531 11.6097 19.9442 10.6798C21.1661 7.92991 21.073 5.26147 20.9546 4.10421C20.923 3.76626 20.7743 3.44989 20.5342 3.2098ZM16.9828 12.559C16.9508 12.5891 16.9215 12.622 16.8951 12.6574C15.6493 14.0372 13.8166 15.2826 11.1189 16.1001L7.64083 12.622C8.43399 9.91919 9.66156 8.0833 11.0297 6.83572C11.0452 6.8228 11.0601 6.80928 11.0744 6.7952C11.9019 6.05008 12.7793 5.51807 13.6422 5.13796C16.0474 4.07852 18.4212 4.16537 19.4647 4.27913C19.569 5.32291 19.6373 7.67631 18.5734 10.0707C18.2027 10.9049 17.6907 11.7535 16.9828 12.559ZM16.5713 15.0056L16.342 17.5283L12.0277 20.2818L11.717 17.4854C13.7272 16.8567 15.3177 15.9965 16.5713 15.0056ZM6.21548 7.40218L8.6782 7.18089C7.70337 8.43429 6.86187 10.0223 6.2532 12.0266L3.46194 11.7165L6.21548 7.40218Z" fill="#F5F5F5" />
  <path d="M14.5241 9.21963C14.8781 9.5736 15.452 9.5736 15.806 9.21963C16.1599 8.86566 16.1599 8.29176 15.806 7.93779C15.452 7.58382 14.8781 7.58382 14.5241 7.93779C14.1702 8.29176 14.1702 8.86566 14.5241 9.21963Z" fill="#F5F5F5" />
  <path d="M11.6711 12.0729C12.0251 12.4269 12.599 12.4269 12.9529 12.0729C13.3069 11.7189 13.3069 11.145 12.9529 10.7911C12.599 10.4371 12.0251 10.4371 11.6711 10.7911C11.3171 11.145 11.3171 11.7189 11.6711 12.0729Z" fill="#F5F5F5" />
</svg>
  