<svg width="24" height="24" viewBox="0 0 24 24" fill="none" xmlns="http://www.w3.org/2000/svg">
<path fill-rule="evenodd" clip-rule="evenodd" d="M6.75011 4.75V6.5C6.75011 6.91421 6.41433 7.25 6.00011 7.25C5.5859 7.25 5.25011 6.91421 5.25011 6.5V4.75C5.25011 4.41627 5.34477 4.0653 5.55332 3.77854C5.76451 3.48816 6.11095 3.25 6.54557 3.25L17.4547 3.25C17.8893 3.25 18.2357 3.48816 18.4469 3.77854C18.6555 4.0653 18.7501 4.41627 18.7501 4.75V11.226L20.4643 9.47528C20.7541 9.17932 21.229 9.17432 21.525 9.46412C21.8209 9.75391 21.8259 10.2288 21.5361 10.5247L18.5986 13.5247C18.4594 13.6669 18.2695 13.7479 18.0705 13.75C17.8716 13.752 17.68 13.675 17.5379 13.5358L14.4753 10.5358C14.1794 10.2459 14.1745 9.77108 14.4643 9.47518C14.7542 9.17927 15.229 9.17437 15.5249 9.46422L17.2501 11.1541L17.2501 4.75L6.75011 4.75ZM5.92968 10.25C6.12861 10.248 6.32021 10.325 6.46233 10.4642L9.52494 13.4642C9.82084 13.7541 9.82575 14.2289 9.53589 14.5248C9.24604 14.8207 8.77119 14.8256 8.47529 14.5358L6.75011 12.8459V19.25H17.2501V17.5C17.2501 17.0858 17.5859 16.75 18.0001 16.75C18.4143 16.75 18.7501 17.0858 18.7501 17.5V19.25C18.7501 19.5837 18.6555 19.9347 18.4469 20.2215C18.2357 20.5118 17.8893 20.75 17.4547 20.75H6.54557C6.11095 20.75 5.76451 20.5118 5.55332 20.2215C5.34477 19.9347 5.25011 19.5837 5.25011 19.25V12.774L3.53588 14.5247C3.24609 14.8207 2.77124 14.8257 2.47528 14.5359C2.17932 14.2461 2.17432 13.7712 2.46412 13.4753L5.40162 10.4753C5.5408 10.3331 5.73075 10.2521 5.92968 10.25Z" fill="#F5F5F5"/>
</svg>
