<svg width="31" height="31" viewBox="0 0 31 31" fill="none" xmlns="http://www.w3.org/2000/svg">
<path d="M26.3335 25.6045C26.3335 25.1903 25.9977 24.8545 25.5835 24.8545C25.1693 24.8545 24.8335 25.1903 24.8335 25.6045C24.8335 26.0187 25.1693 26.3545 25.5835 26.3545C25.9977 26.3545 26.3335 26.0187 26.3335 25.6045Z" fill="#F5F5F5"/>
<path d="M26.3335 11.8628C26.3335 11.4486 25.9977 11.1128 25.5835 11.1128C25.1693 11.1128 24.8335 11.4486 24.8335 11.8628C24.8335 12.277 25.1693 12.6128 25.5835 12.6128C25.9977 12.6128 26.3335 12.277 26.3335 11.8628Z" fill="#F5F5F5"/>
<path d="M5.43994 11.8628C5.43994 11.4486 5.10415 11.1128 4.68994 11.1128C4.27573 11.1128 3.93994 11.4486 3.93994 11.8628C3.93994 12.277 4.27573 12.6128 4.68994 12.6128C5.10415 12.6128 5.43994 12.277 5.43994 11.8628Z" fill="#F5F5F5"/>
<path d="M26.3335 18.7339C26.3335 18.3197 25.9977 17.9839 25.5835 17.9839C25.1693 17.9839 24.8335 18.3197 24.8335 18.7339C24.8335 19.1481 25.1693 19.4839 25.5835 19.4839C25.9977 19.4839 26.3335 19.1481 26.3335 18.7339Z" fill="#F5F5F5"/>
<path d="M26.3335 4.9917C26.3335 4.57749 25.9977 4.2417 25.5835 4.2417C25.1693 4.2417 24.8335 4.57749 24.8335 4.9917C24.8335 5.40591 25.1693 5.7417 25.5835 5.7417C25.9977 5.7417 26.3335 5.40591 26.3335 4.9917Z" fill="#F5F5F5"/>
<path d="M12.5913 4.9917C12.5913 4.57749 12.2555 4.2417 11.8413 4.2417C11.4271 4.2417 11.0913 4.57749 11.0913 4.9917C11.0913 5.40591 11.4271 5.7417 11.8413 5.7417C12.2555 5.7417 12.5913 5.40591 12.5913 4.9917Z" fill="#F5F5F5"/>
<path d="M19.4624 4.9917C19.4624 4.57749 19.1266 4.2417 18.7124 4.2417C18.2982 4.2417 17.9624 4.57749 17.9624 4.9917C17.9624 5.40591 18.2982 5.7417 18.7124 5.7417C19.1266 5.7417 19.4624 5.40591 19.4624 4.9917Z" fill="#F5F5F5"/>
<path d="M19.4624 25.6045C19.4624 25.1903 19.1266 24.8545 18.7124 24.8545C18.2982 24.8545 17.9624 25.1903 17.9624 25.6045C17.9624 26.0187 18.2982 26.3545 18.7124 26.3545C19.1266 26.3545 19.4624 26.0187 19.4624 25.6045Z" fill="#F5F5F5"/>
<path d="M5.72021 4.9917C5.72021 4.57749 5.38443 4.2417 4.97021 4.2417C4.556 4.2417 4.22021 4.57749 4.22021 4.9917C4.22021 5.40591 4.556 5.7417 4.97021 5.7417C5.38443 5.7417 5.72021 5.40591 5.72021 4.9917Z" fill="#F5F5F5"/>
<path fill-rule="evenodd" clip-rule="evenodd" d="M5.72021 18.6043L5.72021 17.5883C5.72021 17.1741 5.38443 16.8383 4.97021 16.8383C4.556 16.8383 4.22021 17.1741 4.22021 17.5883L4.22021 18.6043C4.22021 22.8845 7.69001 26.3543 11.9702 26.3543L12.9862 26.3543C13.4004 26.3543 13.7362 26.0185 13.7362 25.6043C13.7362 25.1901 13.4004 24.8543 12.9862 24.8543L11.9702 24.8543C8.51844 24.8543 5.72021 22.0561 5.72021 18.6043Z" fill="#F5F5F5"/>
</svg>
