<svg width="31" height="31" viewBox="0 0 31 31" fill="none" xmlns="http://www.w3.org/2000/svg">
  <path fill-rule="evenodd" clip-rule="evenodd" d="M5.45898 10.8704L5.45898 13.1204C5.45898 13.5346 5.1232 13.8704 4.70898 13.8704C4.29477 13.8704 3.95898 13.5346 3.95898 13.1204L3.95898 10.8704C3.95898 7.14244 6.98106 4.12036 10.709 4.12036L12.959 4.12036C13.3732 4.12036 13.709 4.45615 13.709 4.87036C13.709 5.28457 13.3732 5.62036 12.959 5.62036L10.709 5.62036C7.80949 5.62036 5.45898 7.97087 5.45898 10.8704Z" fill="#F5F5F5" />
  <path fill-rule="evenodd" clip-rule="evenodd" d="M24.8145 10.8703L24.8145 13.1165C24.8145 13.5307 25.1502 13.8665 25.5645 13.8665C25.9787 13.8665 26.3145 13.5307 26.3145 13.1165L26.3145 10.8703C26.3145 7.14239 23.2924 4.12031 19.5645 4.12031L17.3183 4.12031C16.9041 4.12031 16.5683 4.4561 16.5683 4.87031C16.5683 5.28453 16.9041 5.62031 17.3183 5.62031L19.5645 5.62031C22.4639 5.62031 24.8145 7.97082 24.8145 10.8703Z" fill="#F5F5F5" />
  <path fill-rule="evenodd" clip-rule="evenodd" d="M5.45898 19.7258L5.45898 17.4758C5.45898 17.0616 5.1232 16.7258 4.70898 16.7258C4.29477 16.7258 3.95898 17.0616 3.95898 17.4758L3.95898 19.7258C3.95898 23.4538 6.98106 26.4758 10.709 26.4758L12.959 26.4758C13.3732 26.4758 13.709 26.14 13.709 25.7258C13.709 25.3116 13.3732 24.9758 12.959 24.9758L10.709 24.9758C7.80949 24.9758 5.45898 22.6253 5.45898 19.7258Z" fill="#F5F5F5" />
  <path fill-rule="evenodd" clip-rule="evenodd" d="M24.8145 19.7259L24.8145 17.4797C24.8145 17.0655 25.1502 16.7297 25.5645 16.7297C25.9787 16.7297 26.3145 17.0655 26.3145 17.4797L26.3145 19.7259C26.3145 23.4538 23.2924 26.4759 19.5645 26.4759L17.3183 26.4759C16.9041 26.4759 16.5683 26.1401 16.5683 25.7259C16.5683 25.3117 16.9041 24.9759 17.3183 24.9759L19.5645 24.9759C22.4639 24.9759 24.8145 22.6254 24.8145 19.7259Z" fill="#F5F5F5" />
</svg>
  