<svg width="25" height="25" viewBox="0 0 25 25" fill="none" xmlns="http://www.w3.org/2000/svg">
  <path fill-rule="evenodd" clip-rule="evenodd" d="M4.83691 5.47003H9.07974C9.49396 5.47003 9.82974 5.13425 9.82974 4.72003C9.82974 4.30582 9.49396 3.97003 9.07974 3.97003H4.80613C4.41647 3.97003 4.04277 4.12482 3.76724 4.40035C3.49171 4.67589 3.33691 5.04959 3.33691 5.43925V19.8235C3.33691 20.2132 3.49171 20.5869 3.76724 20.8624C4.04277 21.138 4.41647 21.2928 4.80613 21.2928H19.1904C19.5801 21.2928 19.9538 21.138 20.2293 20.8624C20.5048 20.5869 20.6596 20.2132 20.6596 19.8235V15.9488C20.6596 15.5346 20.3239 15.1988 19.9096 15.1988C19.4954 15.1988 19.1596 15.5346 19.1596 15.9488V19.7928H4.83691V5.47003Z" fill="#F5F5F5" />
  <path fill-rule="evenodd" clip-rule="evenodd" d="M12.9102 7.25598C12.9102 5.86293 14.0394 4.73364 15.4325 4.73364C16.8255 4.73364 17.9548 5.86293 17.9548 7.25598C17.9548 8.64903 16.8255 9.77832 15.4325 9.77832C14.0394 9.77832 12.9102 8.64903 12.9102 7.25598ZM15.4325 3.23364C13.211 3.23364 11.4102 5.0345 11.4102 7.25598C11.4102 9.47745 13.211 11.2783 15.4325 11.2783C16.1102 11.2783 16.7488 11.1107 17.3091 10.8146L19.6562 13.1618C19.9491 13.4546 20.424 13.4546 20.7169 13.1618C21.0098 12.8689 21.0098 12.394 20.7169 12.1011L18.4879 9.87213C19.0907 9.1688 19.4548 8.25491 19.4548 7.25598C19.4548 5.0345 17.654 3.23364 15.4325 3.23364Z" fill="#F5F5F5" />
</svg>
  