<svg width="25" height="25" viewBox="0 0 25 25" fill="none" xmlns="http://www.w3.org/2000/svg">
  <path fill-rule="evenodd" clip-rule="evenodd" d="M9.35938 11.5605C9.35938 10.1868 10.473 9.07316 11.8467 9.07316C13.2205 9.07316 14.3341 10.1868 14.3341 11.5605C14.3341 12.9343 13.2205 14.0479 11.8467 14.0479C10.473 14.0479 9.35938 12.9343 9.35938 11.5605ZM11.8467 7.57316C9.64458 7.57316 7.85938 9.35836 7.85938 11.5605C7.85938 13.7627 9.64458 15.5479 11.8467 15.5479C12.5166 15.5479 13.1478 15.3827 13.702 15.0909L16.02 17.4089C16.3128 17.7018 16.7877 17.7018 17.0806 17.4089C17.3735 17.116 17.3735 16.6411 17.0806 16.3482L14.8805 14.1481C15.4751 13.4517 15.8341 12.548 15.8341 11.5605C15.8341 9.35836 14.0489 7.57316 11.8467 7.57316Z" fill="#F5F5F5" />
  <path fill-rule="evenodd" clip-rule="evenodd" d="M2.87451 4.86534C2.87451 3.89884 3.65801 3.11534 4.62451 3.11534H19.4082C20.3747 3.11534 21.1582 3.89884 21.1582 4.86534V19.6491C21.1582 20.6156 20.3747 21.3991 19.4082 21.3991H4.62451C3.65801 21.3991 2.87451 20.6156 2.87451 19.6491V4.86534ZM4.62451 4.61534C4.48644 4.61534 4.37451 4.72727 4.37451 4.86534V11.4258H5.56974C5.98395 11.4258 6.31974 11.7615 6.31974 12.1758C6.31974 12.59 5.98395 12.9258 5.56974 12.9258H4.37451V19.6491C4.37451 19.7871 4.48644 19.8991 4.62451 19.8991H11.4097V18.7985C11.4097 18.3843 11.7455 18.0485 12.1597 18.0485C12.5739 18.0485 12.9097 18.3843 12.9097 18.7985V19.8991H19.4082C19.5463 19.8991 19.6582 19.7871 19.6582 19.6491V12.9258H18.7705C18.3563 12.9258 18.0205 12.59 18.0205 12.1758C18.0205 11.7616 18.3563 11.4258 18.7705 11.4258H19.6582V4.86534C19.6582 4.72727 19.5463 4.61534 19.4082 4.61534H12.9097V5.57296C12.9097 5.98717 12.5739 6.32296 12.1597 6.32296C11.7455 6.32296 11.4097 5.98717 11.4097 5.57296V4.61534H4.62451Z" fill="#F5F5F5" />
</svg>
  