<svg width="25" height="25" viewBox="0 0 25 25" fill="none" xmlns="http://www.w3.org/2000/svg">
  <path fill-rule="evenodd" clip-rule="evenodd" d="M8.9165 11.057C8.9165 9.68322 10.0301 8.5696 11.4039 8.5696C12.7776 8.5696 13.8912 9.68322 13.8912 11.057C13.8912 12.4307 12.7776 13.5443 11.4039 13.5443C10.0301 13.5443 8.9165 12.4307 8.9165 11.057ZM11.4039 7.0696C9.20171 7.0696 7.4165 8.8548 7.4165 11.057C7.4165 13.2591 9.20171 15.0443 11.4039 15.0443C12.0737 15.0443 12.7049 14.8792 13.2591 14.5873L15.5771 16.9053C15.87 17.1982 16.3448 17.1982 16.6377 16.9053C16.9306 16.6124 16.9306 16.1376 16.6377 15.8447L14.4376 13.6446C15.0322 12.9481 15.3912 12.0445 15.3912 11.057C15.3912 8.8548 13.606 7.0696 11.4039 7.0696Z" fill="#F5F5F5" />
  <path fill-rule="evenodd" clip-rule="evenodd" d="M15.5381 4.6525C15.5381 4.23828 15.8739 3.9025 16.2881 3.9025H19.7475C20.1617 3.9025 20.4975 4.23828 20.4975 4.6525V8.1119C20.4975 8.52612 20.1617 8.8619 19.7475 8.8619C19.3333 8.8619 18.9975 8.52612 18.9975 8.1119V5.4025H16.2881C15.8739 5.4025 15.5381 5.06671 15.5381 4.6525Z" fill="#F5F5F5" />
  <path fill-rule="evenodd" clip-rule="evenodd" d="M19.7475 15.6645C20.1617 15.6645 20.4975 16.0002 20.4975 16.4145V19.8739C20.4975 20.2881 20.1617 20.6239 19.7475 20.6239H16.2881C15.8739 20.6239 15.5381 20.2881 15.5381 19.8739C15.5381 19.4597 15.8739 19.1239 16.2881 19.1239H18.9975V16.4145C18.9975 16.0002 19.3333 15.6645 19.7475 15.6645Z" fill="#F5F5F5" />
  <path fill-rule="evenodd" clip-rule="evenodd" d="M3.77588 4.6525C3.77588 4.23828 4.11167 3.9025 4.52588 3.9025H7.98529C8.3995 3.9025 8.73529 4.23828 8.73529 4.6525C8.73529 5.06671 8.3995 5.4025 7.98529 5.4025H5.27588V8.1119C5.27588 8.52612 4.94009 8.8619 4.52588 8.8619C4.11167 8.8619 3.77588 8.52612 3.77588 8.1119V4.6525Z" fill="#F5F5F5" />
  <path fill-rule="evenodd" clip-rule="evenodd" d="M3.77588 19.8738C3.77588 20.288 4.11167 20.6238 4.52588 20.6238H7.98529C8.3995 20.6238 8.73529 20.288 8.73529 19.8738C8.73529 19.4596 8.3995 19.1238 7.98529 19.1238H5.27588V16.4144C5.27588 16.0002 4.94009 15.6644 4.52588 15.6644C4.11167 15.6644 3.77588 16.0002 3.77588 16.4144V19.8738Z" fill="#F5F5F5" />
</svg>
  