<svg width="24" height="24" viewBox="0 0 24 24" fill="none" xmlns="http://www.w3.org/2000/svg">
  <path fill-rule="evenodd" clip-rule="evenodd" d="M12 5.25C9.92893 5.25 8.25 6.92893 8.25 9C8.25 10.1195 8.74056 11.1244 9.51845 11.8115C7.71591 12.6752 6.43353 14.4507 6.2681 16.5409C6.21309 17.236 6.78133 17.75 7.4 17.75H16.6C17.2187 17.75 17.7869 17.236 17.7319 16.5409C17.5665 14.4507 16.2841 12.6752 14.4816 11.8115C15.2594 11.1244 15.75 10.1195 15.75 9C15.75 6.92893 14.0711 5.25 12 5.25ZM9.75 9C9.75 7.75736 10.7574 6.75 12 6.75C13.2426 6.75 14.25 7.75736 14.25 9C14.25 10.2426 13.2426 11.25 12 11.25C10.7574 11.25 9.75 10.2426 9.75 9ZM12 12.75C14.0912 12.75 15.8302 14.2608 16.1841 16.25H7.81587C8.16982 14.2608 9.9088 12.75 12 12.75Z" fill="#F5F5F5" />
  <path fill-rule="evenodd" clip-rule="evenodd" d="M23.75 12C23.75 18.4893 18.4893 23.75 12 23.75C5.51065 23.75 0.25 18.4893 0.25 12C0.25 5.51065 5.51065 0.25 12 0.25C18.4893 0.25 23.75 5.51065 23.75 12ZM12.75 1.77702V4C12.75 4.41421 12.4142 4.75 12 4.75C11.5858 4.75 11.25 4.41421 11.25 4V1.77702C6.18691 2.14317 2.14317 6.18691 1.77702 11.25H4C4.41421 11.25 4.75 11.5858 4.75 12C4.75 12.4142 4.41421 12.75 4 12.75H1.77702C2.14317 17.8131 6.18691 21.8568 11.25 22.223V20C11.25 19.5858 11.5858 19.25 12 19.25C12.4142 19.25 12.75 19.5858 12.75 20V22.223C17.8131 21.8568 21.8568 17.8131 22.223 12.75H20C19.5858 12.75 19.25 12.4142 19.25 12C19.25 11.5858 19.5858 11.25 20 11.25H22.223C21.8568 6.18691 17.8131 2.14317 12.75 1.77702Z" fill="#F5F5F5" />
</svg>
  