<svg width="25" height="25" viewBox="0 0 25 25" fill="none" xmlns="http://www.w3.org/2000/svg">
  <path fill-rule="evenodd" clip-rule="evenodd" d="M11.8963 9.77684C10.4288 9.77684 9.23926 10.9664 9.23926 12.4339C9.23926 13.9013 10.4288 15.0909 11.8963 15.0909C13.3637 15.0909 14.5533 13.9013 14.5533 12.4339C14.5533 10.9664 13.3637 9.77684 11.8963 9.77684ZM7.73926 12.4339C7.73926 10.138 9.60042 8.27684 11.8963 8.27684C14.1921 8.27684 16.0533 10.138 16.0533 12.4339C16.0533 14.7297 14.1921 16.5909 11.8963 16.5909C9.60042 16.5909 7.73926 14.7297 7.73926 12.4339Z" fill="#F5F5F5" />
  <path fill-rule="evenodd" clip-rule="evenodd" d="M9.08922 4.55168C9.02092 4.5107 8.95929 4.51255 8.92238 4.52652C8.05667 4.85401 7.25068 5.32167 6.53673 5.91074C6.50641 5.93576 6.47432 5.98803 6.47565 6.06726L6.50679 7.91672C6.51309 8.29108 6.39742 8.63701 6.21902 8.92164C6.14599 9.03814 6.07716 9.15723 6.01266 9.27867C5.85508 9.57535 5.61305 9.84826 5.2855 10.0297L3.66674 10.9262C3.59716 10.9648 3.56822 11.0186 3.56186 11.0568C3.41006 11.9689 3.41237 12.9 3.56869 13.8112C3.5752 13.8492 3.60407 13.9026 3.67304 13.9409L5.28882 14.8392C5.61351 15.0198 5.85517 15.2908 6.0124 15.5882C6.07949 15.7151 6.15089 15.8397 6.22646 15.9618C6.40175 16.2449 6.51307 16.5865 6.50686 16.9542L6.47568 18.8005C6.47434 18.8798 6.50646 18.9318 6.53646 18.9566C7.25199 19.5462 8.0611 20.012 8.93026 20.3348C8.96658 20.3483 9.02744 20.35 9.09525 20.3095L10.6839 19.3588C10.9961 19.1719 11.3449 19.0967 11.6775 19.107C11.8231 19.1115 11.9689 19.1115 12.1145 19.107C12.4477 19.0967 12.7971 19.1723 13.1098 19.3599L14.7033 20.316C14.7716 20.357 14.8332 20.3551 14.8702 20.3412C15.7359 20.0137 16.5419 19.546 17.2558 18.957C17.2861 18.9319 17.3182 18.8797 17.3169 18.8004L17.2858 16.951C17.2795 16.5766 17.3951 16.2307 17.5735 15.9461C17.6466 15.8295 17.7154 15.7105 17.7799 15.589C17.9375 15.2923 18.1795 15.0194 18.507 14.838L20.1258 13.9415C20.1954 13.9029 20.2243 13.849 20.2307 13.8108C20.3825 12.8988 20.3802 11.9677 20.2238 11.0564C20.2173 11.0185 20.1885 10.9651 20.1195 10.9268L18.5049 10.0291C18.1785 9.84764 17.9374 9.5753 17.7803 9.27937C17.7156 9.15769 17.6467 9.03837 17.5735 8.92164C17.3951 8.63701 17.2795 8.29108 17.2858 7.91672L17.3169 6.06724C17.3182 5.9879 17.2861 5.93587 17.2561 5.91115C16.5406 5.32153 15.7314 4.85567 14.8623 4.53286C14.826 4.51938 14.7651 4.51765 14.6973 4.55823L13.1087 5.50889C12.7964 5.69575 12.4476 5.771 12.1151 5.76068C11.9694 5.75616 11.8237 5.75615 11.678 5.76066C11.3449 5.77097 10.9954 5.69539 10.6828 5.5078L9.08922 4.55168ZM8.39163 3.12355C8.8946 2.93328 9.4343 3.00945 9.86096 3.26544L11.4545 4.22156C11.4944 4.24548 11.5539 4.26379 11.6316 4.26138C11.8082 4.25591 11.985 4.25592 12.1616 4.2614C12.2392 4.26381 12.2986 4.24559 12.3384 4.22176L13.927 3.2711C14.3501 3.01792 14.8846 2.94103 15.3845 3.12671C16.4104 3.50772 17.3654 4.0576 18.21 4.75354C18.6233 5.09409 18.825 5.59754 18.8167 6.09249L18.7855 7.94197C18.7848 7.98869 18.7992 8.05276 18.8445 8.12498C18.9367 8.27213 19.0236 8.42255 19.1051 8.57595C19.1449 8.65102 19.1931 8.69546 19.2338 8.71811L20.8484 9.61579C21.2784 9.85489 21.6122 10.278 21.7023 10.8028C21.8869 11.8795 21.8897 12.9796 21.7103 14.0571C21.6222 14.5864 21.2862 15.0135 20.8526 15.2537L19.2338 16.1502C19.1929 16.1728 19.1446 16.2174 19.1046 16.2926C19.0233 16.4457 18.9365 16.5958 18.8445 16.7427C18.7992 16.8149 18.7848 16.879 18.7855 16.9257L18.8167 18.7752C18.825 19.2703 18.6232 19.7734 18.2104 20.114C17.3696 20.8077 16.4204 21.3585 15.4009 21.7441C14.8979 21.9344 14.3582 21.8582 13.9316 21.6022L12.338 20.6461C12.2982 20.6222 12.2386 20.6039 12.1609 20.6063C11.9843 20.6118 11.8076 20.6118 11.6309 20.6063C11.5534 20.6039 11.4939 20.6221 11.4541 20.6459L9.8655 21.5966C9.44244 21.8498 8.90797 21.9267 8.40803 21.741C7.38213 21.36 6.42712 20.8101 5.58256 20.1142C5.16926 19.7736 4.96753 19.2701 4.97589 18.7751L5.00708 16.9288C5.00786 16.8825 4.99382 16.8203 4.95112 16.7514C4.85764 16.6004 4.76933 16.4463 4.68633 16.2893C4.64801 16.2168 4.60086 16.173 4.55992 16.1502L2.94414 15.2519C2.5141 15.0128 2.18031 14.5896 2.09029 14.0648C1.90559 12.9882 1.90287 11.8881 2.08222 10.8106C2.17031 10.2813 2.50632 9.85422 2.93999 9.61404L4.55875 8.71749C4.59963 8.69485 4.64794 8.65033 4.68792 8.57506C4.76923 8.42197 4.856 8.27185 4.94806 8.12498C4.99332 8.05276 5.00779 7.98869 5.007 7.94196L4.97586 6.09251C4.96753 5.59743 5.16937 5.09426 5.5821 4.75372C6.4229 4.05999 7.37211 3.50924 8.39163 3.12355Z" fill="#F5F5F5" />
</svg>
  