<svg width="25" height="25" viewBox="0 0 25 25" fill="none" xmlns="http://www.w3.org/2000/svg">
  <path d="M21.1617 10.4402C21.1413 10.348 21.1012 10.2613 21.0444 10.1859C20.9875 10.1106 20.9151 10.0483 20.8321 10.0033L18.8705 8.91542C18.7661 8.70113 18.6507 8.49509 18.5243 8.29728L18.5573 6.05549C18.5581 5.96146 18.5394 5.86829 18.5025 5.78179C18.4657 5.69528 18.4114 5.61731 18.343 5.55274C17.3663 4.66721 16.2113 4.00116 14.9556 3.59942C14.8654 3.5713 14.7703 3.56264 14.6766 3.574C14.5828 3.58537 14.4925 3.6165 14.4116 3.66535L12.4913 4.81921C12.2523 4.81097 12.0215 4.81097 11.7825 4.81921L9.86213 3.66535C9.78129 3.6165 9.691 3.58537 9.59723 3.574C9.50346 3.56264 9.40834 3.5713 9.31817 3.59942C8.06084 4.00146 6.90531 4.6706 5.93076 5.56098C5.86181 5.62333 5.80701 5.69973 5.77005 5.78502C5.73309 5.87032 5.71482 5.96255 5.71647 6.05549L5.75768 8.29728C5.62581 8.49509 5.51043 8.70113 5.39504 8.91542L3.44172 10.0033C3.35766 10.047 3.28442 10.1088 3.22738 10.1844C3.17033 10.26 3.13092 10.3474 3.11204 10.4402C2.83179 11.7273 2.83179 13.0597 3.11204 14.3468C3.13252 14.439 3.17254 14.5257 3.22942 14.601C3.2863 14.6764 3.3587 14.7387 3.44172 14.7836L5.40328 15.8716C5.50844 16.0848 5.6268 16.2912 5.75768 16.4897L5.71647 18.7315C5.71572 18.8255 5.73436 18.9187 5.77123 19.0052C5.8081 19.0917 5.86241 19.1697 5.93076 19.2342C6.9088 20.1179 8.06343 20.7837 9.31817 21.1876C9.40834 21.2157 9.50346 21.2243 9.59723 21.213C9.691 21.2016 9.78129 21.1705 9.86213 21.1216L11.7825 19.9678H12.4913L14.4199 21.1216C14.5201 21.1876 14.6378 21.222 14.7578 21.2205C14.8248 21.2176 14.8913 21.2066 14.9556 21.1876C16.2129 20.7855 17.3685 20.1164 18.343 19.226C18.412 19.1636 18.4668 19.0873 18.5037 19.002C18.5407 18.9167 18.559 18.8244 18.5573 18.7315L18.5243 16.4897C18.648 16.2919 18.7634 16.0858 18.8787 15.8716L20.8403 14.7836C20.9221 14.7382 20.9932 14.6757 21.0487 14.6003C21.1041 14.5249 21.1427 14.4384 21.1617 14.3468C21.442 13.0597 21.442 11.7273 21.1617 10.4402ZM15.7633 12.3935C15.7633 13.1107 15.5506 13.8119 15.1521 14.4082C14.7537 15.0046 14.1873 15.4694 13.5247 15.7439C12.862 16.0183 12.1329 16.0902 11.4294 15.9502C10.726 15.8103 10.0798 15.4649 9.57262 14.9578C9.06546 14.4506 8.72007 13.8044 8.58015 13.101C8.44022 12.3975 8.51204 11.6684 8.78651 11.0057C9.06099 10.3431 9.52579 9.77671 10.1222 9.37823C10.7185 8.97975 11.4197 8.76707 12.1369 8.76707C13.0987 8.76707 14.0211 9.14914 14.7012 9.82922C15.3812 10.5093 15.7633 11.4317 15.7633 12.3935Z" fill="#F5F5F5" />
</svg>
  