<svg width="31" height="31" viewBox="0 0 31 31" fill="none" xmlns="http://www.w3.org/2000/svg">
<path fill-rule="evenodd" clip-rule="evenodd" d="M7.97489 8.51569C8.40425 6.99323 9.80344 5.8774 11.4633 5.8774C13.1231 5.8774 14.5223 6.99323 14.9516 8.51569L25.8241 8.51569C26.3648 8.51569 26.8032 8.95408 26.8032 9.49486C26.8032 10.0356 26.3648 10.474 25.8241 10.474L14.9553 10.474C14.5303 12.0032 13.1279 13.1255 11.4633 13.1255C9.79866 13.1255 8.39619 12.0032 7.9712 10.474L4.28239 10.474C3.74161 10.474 3.30322 10.0356 3.30322 9.49486C3.30322 8.95408 3.74161 8.51569 4.28239 8.51569L7.97489 8.51569Z" fill="#F5F5F5"/>
<path fill-rule="evenodd" clip-rule="evenodd" d="M22.14 22.3947C21.7139 23.9229 20.3118 25.0441 18.6478 25.0441C16.9837 25.0441 15.5816 23.9229 15.1556 22.3947L4.28337 22.3947C3.74259 22.3947 3.3042 21.9563 3.3042 21.4155C3.3042 20.8747 3.74259 20.4363 4.28337 20.4363L15.1575 20.4363C15.5859 18.9118 16.9863 17.7941 18.6478 17.7941C20.3092 17.7941 21.7096 18.9118 22.138 20.4364L25.825 20.4364C26.3658 20.4364 26.8042 20.8747 26.8042 21.4155C26.8042 21.9563 26.3658 22.3947 25.825 22.3947L22.14 22.3947Z" fill="#F5F5F5"/>
</svg>
