<svg width="24" height="24" viewBox="0 0 24 24" fill="none" xmlns="http://www.w3.org/2000/svg">
<path d="M19.232 3.32147L4.76772 3.32147C4.3841 3.32147 4.0162 3.47386 3.74494 3.74512C3.47368 4.01638 3.32129 4.38428 3.32129 4.7679L3.32129 19.2322C3.32129 19.6158 3.47368 19.9837 3.74494 20.255C4.0162 20.5262 4.3841 20.6786 4.76772 20.6786L19.232 20.6786C19.6156 20.6786 19.9835 20.5262 20.2548 20.255C20.526 19.9837 20.6784 19.6158 20.6784 19.2322L20.6784 4.7679C20.6784 4.38428 20.526 4.01638 20.2548 3.74512C19.9835 3.47386 19.6156 3.32147 19.232 3.32147ZM11.9999 12L4.76772 19.2322L4.76772 4.7679L19.232 4.7679L11.9999 12Z" fill="#B8B8B8"/>
</svg>
