<svg width="31" height="31" viewBox="0 0 31 31" fill="none" xmlns="http://www.w3.org/2000/svg">
<path d="M15.4777 21.8874L20.3339 24.9707C20.9602 25.3658 21.7311 24.778 21.548 24.0554L20.1412 18.5247C20.1032 18.3714 20.1092 18.2104 20.1587 18.0604C20.2081 17.9104 20.2989 17.7774 20.4207 17.6768L24.7758 14.0442C25.3443 13.5721 25.0553 12.6182 24.3133 12.57L18.6285 12.2039C18.4734 12.1948 18.3242 12.1408 18.1993 12.0484C18.0744 11.956 17.9791 11.8292 17.9251 11.6836L15.8053 6.34557C15.7492 6.19131 15.647 6.05805 15.5125 5.96389C15.3781 5.86972 15.2179 5.81921 15.0538 5.81921C14.8896 5.81921 14.7294 5.86972 14.595 5.96389C14.4605 6.05805 14.3583 6.19131 14.3022 6.34557L12.1824 11.6836C12.1284 11.8292 12.0331 11.956 11.9082 12.0484C11.7833 12.1408 11.6341 12.1948 11.479 12.2039L5.79417 12.57C5.05225 12.6182 4.76318 13.5721 5.33167 14.0442L9.68686 17.6768C9.80859 17.7774 9.8994 17.9104 9.94884 18.0604C9.99827 18.2104 10.0043 18.3714 9.96628 18.5247L8.66551 23.6507C8.4439 24.5179 9.36889 25.2212 10.1108 24.7491L14.6298 21.8874C14.7565 21.8068 14.9036 21.764 15.0538 21.764C15.2039 21.764 15.351 21.8068 15.4777 21.8874Z" fill="#F5F5F5"/>
</svg>
