
<svg width="24" height="24" viewBox="0 0 24 24" fill="none" xmlns="http://www.w3.org/2000/svg">
<path fill-rule="evenodd" clip-rule="evenodd" d="M3 4.5C3 3.67157 3.67157 3 4.5 3H7.99518C8.40939 3 8.74518 3.33579 8.74518 3.75C8.74518 4.16421 8.40939 4.5 7.99518 4.5H4.5V19.5H19.5V4.5H15.9906C15.5764 4.5 15.2406 4.16421 15.2406 3.75C15.2406 3.33579 15.5764 3 15.9906 3H19.5C20.3284 3 21 3.67157 21 4.5V19.5C21 20.3284 20.3284 21 19.5 21H4.5C3.67157 21 3 20.3284 3 19.5V4.5Z" fill="#B8B8B8"/>
<path fill-rule="evenodd" clip-rule="evenodd" d="M8.29145 11.0415C8.58434 10.7486 9.05921 10.7486 9.35211 11.0415L11.9999 13.6893L14.6477 11.0415C14.9406 10.7486 15.4155 10.7486 15.7084 11.0415C16.0013 11.3344 16.0013 11.8093 15.7084 12.1022L12.5302 15.2803C12.2373 15.5732 11.7625 15.5732 11.4696 15.2803L8.29145 12.1022C7.99855 11.8093 7.99855 11.3344 8.29145 11.0415Z" fill="#B8B8B8"/>
<path fill-rule="evenodd" clip-rule="evenodd" d="M12 6.5C12.4142 6.5 12.75 6.83579 12.75 7.25V14.75C12.75 15.1642 12.4142 15.5 12 15.5C11.5858 15.5 11.25 15.1642 11.25 14.75V7.25C11.25 6.83579 11.5858 6.5 12 6.5Z" fill="#B8B8B8"/>
</svg>
