<svg width="25" height="25" viewBox="0 0 25 25" fill="none" xmlns="http://www.w3.org/2000/svg">
  <path fill-rule="evenodd" clip-rule="evenodd" d="M8.22266 7.39608C9.26139 7.08256 10.0178 6.11823 10.0178 4.97724C10.0178 3.58203 8.88679 2.45099 7.49158 2.45099C6.09637 2.45099 4.96533 3.58203 4.96533 4.97724C4.96533 6.10433 5.70344 7.05903 6.72266 7.38433V17.3117C5.69335 17.631 4.9458 18.5906 4.9458 19.7249C4.9458 21.1201 6.07684 22.2512 7.47205 22.2512C8.86725 22.2512 9.99829 21.1201 9.99829 19.7249C9.99829 18.5911 9.25133 17.6317 8.22266 17.3121V16.4337C8.23512 16.3795 8.2417 16.3231 8.2417 16.2651V14.6337C8.2417 14.4956 8.35363 14.3837 8.4917 14.3837H15.8208C16.7873 14.3837 17.5708 13.6002 17.5708 12.6337V10.5658C18.5896 10.2403 19.3274 9.28576 19.3274 8.15894C19.3274 6.76373 18.1964 5.63269 16.8011 5.63269C15.4059 5.63269 14.2749 6.76373 14.2749 8.15894C14.2749 9.3002 15.0317 10.2647 16.0708 10.578V12.6337C16.0708 12.7717 15.9589 12.8837 15.8208 12.8837H8.4917C8.40021 12.8837 8.31036 12.8907 8.22266 12.9042V7.39608Z" fill="#F5F5F5" />
</svg>
  