<svg width="25" height="24" viewBox="0 0 25 24" fill="none" xmlns="http://www.w3.org/2000/svg">
  <path fill-rule="evenodd" clip-rule="evenodd" d="M21.1367 17.625C21.1367 18.0392 20.8009 18.375 20.3867 18.375L3.88672 18.375C3.47251 18.375 3.13672 18.0392 3.13672 17.625C3.13672 17.2108 3.47251 16.875 3.88672 16.875L20.3867 16.875C20.8009 16.875 21.1367 17.2108 21.1367 17.625Z" fill="#F5F5F5" />
  <path fill-rule="evenodd" clip-rule="evenodd" d="M21.1367 13.875C21.1367 14.2892 20.8009 14.625 20.3867 14.625L8.38672 14.625C7.97251 14.625 7.63672 14.2892 7.63672 13.875C7.63672 13.4608 7.97251 13.125 8.38672 13.125L20.3867 13.125C20.8009 13.125 21.1367 13.4608 21.1367 13.875Z" fill="#F5F5F5" />
  <path fill-rule="evenodd" clip-rule="evenodd" d="M21.1367 10.125C21.1367 10.5392 20.8009 10.875 20.3867 10.875L3.88672 10.875C3.47251 10.875 3.13672 10.5392 3.13672 10.125C3.13672 9.71078 3.47251 9.375 3.88672 9.375L20.3867 9.375C20.8009 9.375 21.1367 9.71079 21.1367 10.125Z" fill="#F5F5F5" />
  <path fill-rule="evenodd" clip-rule="evenodd" d="M21.1367 6.375C21.1367 6.78921 20.8009 7.125 20.3867 7.125L8.38672 7.125C7.97251 7.125 7.63672 6.78921 7.63672 6.375C7.63672 5.96079 7.97251 5.625 8.38672 5.625L20.3867 5.625C20.8009 5.625 21.1367 5.96079 21.1367 6.375Z" fill="#F5F5F5" />
</svg>
  