<svg width="25" height="24" viewBox="0 0 25 24" fill="none" xmlns="http://www.w3.org/2000/svg">
  <path fill-rule="evenodd" clip-rule="evenodd" d="M3.13672 6.375C3.13672 5.96079 3.47251 5.625 3.88672 5.625H20.3867C20.8009 5.625 21.1367 5.96079 21.1367 6.375C21.1367 6.78921 20.8009 7.125 20.3867 7.125H3.88672C3.47251 7.125 3.13672 6.78921 3.13672 6.375Z" fill="#F5F5F5" />
  <path fill-rule="evenodd" clip-rule="evenodd" d="M5.38672 10.125C5.38672 9.71079 5.72251 9.375 6.13672 9.375H18.1367C18.5509 9.375 18.8867 9.71079 18.8867 10.125C18.8867 10.5392 18.5509 10.875 18.1367 10.875H6.13672C5.72251 10.875 5.38672 10.5392 5.38672 10.125Z" fill="#F5F5F5" />
  <path fill-rule="evenodd" clip-rule="evenodd" d="M3.13672 13.875C3.13672 13.4608 3.47251 13.125 3.88672 13.125H20.3867C20.8009 13.125 21.1367 13.4608 21.1367 13.875C21.1367 14.2892 20.8009 14.625 20.3867 14.625H3.88672C3.47251 14.625 3.13672 14.2892 3.13672 13.875Z" fill="#F5F5F5" />
  <path fill-rule="evenodd" clip-rule="evenodd" d="M5.38672 17.625C5.38672 17.2108 5.72251 16.875 6.13672 16.875H18.1367C18.5509 16.875 18.8867 17.2108 18.8867 17.625C18.8867 18.0392 18.5509 18.375 18.1367 18.375H6.13672C5.72251 18.375 5.38672 18.0392 5.38672 17.625Z" fill="#F5F5F5" />
</svg>
  