<svg width="25" height="24" viewBox="0 0 25 24" fill="none" xmlns="http://www.w3.org/2000/svg">
  <path fill-rule="evenodd" clip-rule="evenodd" d="M3.13672 6.375C3.13672 5.96079 3.47251 5.625 3.88672 5.625H20.3867C20.8009 5.625 21.1367 5.96079 21.1367 6.375C21.1367 6.78921 20.8009 7.125 20.3867 7.125H3.88672C3.47251 7.125 3.13672 6.78921 3.13672 6.375Z" fill="#F5F5F5" />
  <path fill-rule="evenodd" clip-rule="evenodd" d="M3.13672 10.125C3.13672 9.71079 3.47251 9.375 3.88672 9.375H15.8867C16.3009 9.375 16.6367 9.71079 16.6367 10.125C16.6367 10.5392 16.3009 10.875 15.8867 10.875H3.88672C3.47251 10.875 3.13672 10.5392 3.13672 10.125Z" fill="#F5F5F5" />
  <path fill-rule="evenodd" clip-rule="evenodd" d="M3.13672 13.875C3.13672 13.4608 3.47251 13.125 3.88672 13.125H20.3867C20.8009 13.125 21.1367 13.4608 21.1367 13.875C21.1367 14.2892 20.8009 14.625 20.3867 14.625H3.88672C3.47251 14.625 3.13672 14.2892 3.13672 13.875Z" fill="#F5F5F5" />
  <path fill-rule="evenodd" clip-rule="evenodd" d="M3.13672 17.625C3.13672 17.2108 3.47251 16.875 3.88672 16.875H15.8867C16.3009 16.875 16.6367 17.2108 16.6367 17.625C16.6367 18.0392 16.3009 18.375 15.8867 18.375H3.88672C3.47251 18.375 3.13672 18.0392 3.13672 17.625Z" fill="#F5F5F5" />
</svg>
  