<svg width="25" height="25" viewBox="0 0 25 25" fill="none" xmlns="http://www.w3.org/2000/svg">
  <path fill-rule="evenodd" clip-rule="evenodd" d="M9.88672 1.76318C9.28998 1.76318 8.71769 2.00024 8.29573 2.42219C7.87377 2.84415 7.63672 3.41645 7.63672 4.01318V4.76318H5.85693H3.88672C3.47251 4.76318 3.13672 5.09897 3.13672 5.51318C3.13672 5.9274 3.47251 6.26318 3.88672 6.26318H5.10693V19.7632C5.10693 20.1442 5.24726 20.5196 5.51219 20.8044C5.77882 21.091 6.15252 21.2632 6.55468 21.2632H17.7186C18.1208 21.2632 18.4945 21.091 18.7611 20.8044C19.026 20.5196 19.1664 20.1442 19.1664 19.7632V6.26318H20.3867C20.8009 6.26318 21.1367 5.9274 21.1367 5.51318C21.1367 5.09897 20.8009 4.76318 20.3867 4.76318H18.4164H16.6367V4.01318C16.6367 3.41645 16.3997 2.84415 15.9777 2.42219C15.5558 2.00024 14.9835 1.76318 14.3867 1.76318H9.88672ZM15.1367 4.76318V4.01318C15.1367 3.81427 15.0577 3.62351 14.917 3.48285C14.7764 3.3422 14.5856 3.26318 14.3867 3.26318H9.88672C9.68781 3.26318 9.49704 3.3422 9.35639 3.48285C9.21574 3.62351 9.13672 3.81427 9.13672 4.01318V4.76318H15.1367ZM8.38672 6.26318H6.60693V19.7632H17.6664V6.26318H15.8867H8.38672ZM9.88672 9.26318C10.3009 9.26318 10.6367 9.59897 10.6367 10.0132V16.0132C10.6367 16.4274 10.3009 16.7632 9.88672 16.7632C9.47251 16.7632 9.13672 16.4274 9.13672 16.0132V10.0132C9.13672 9.59897 9.47251 9.26318 9.88672 9.26318ZM15.1367 16.0132V10.0132C15.1367 9.59897 14.8009 9.26318 14.3867 9.26318C13.9725 9.26318 13.6367 9.59897 13.6367 10.0132V16.0132C13.6367 16.4274 13.9725 16.7632 14.3867 16.7632C14.8009 16.7632 15.1367 16.4274 15.1367 16.0132Z" fill="#F5F5F5" />
</svg>
  