<svg width="24" height="24" viewBox="0 0 24 24" fill="none" xmlns="http://www.w3.org/2000/svg">
<path fill-rule="evenodd" clip-rule="evenodd" d="M3.56282 5.25001C3.56282 5.14654 3.6467 5.06267 3.75016 5.06267H20.2502C20.3536 5.06267 20.4375 5.14654 20.4375 5.25001V9.18732H9.74967H3.56282V5.25001ZM2.4375 9.74998V5.25001C2.4375 4.52505 3.0252 3.93735 3.75016 3.93735H20.2502C20.9751 3.93735 21.5628 4.52505 21.5628 5.25001V9.74998V18.75C21.5628 19.475 20.9751 20.0627 20.2502 20.0627H3.75016C3.0252 20.0627 2.4375 19.475 2.4375 18.75V9.74998ZM20.4375 10.3126H10.3123V18.9373H20.2502C20.3536 18.9373 20.4375 18.8535 20.4375 18.75V10.3126ZM9.18701 18.9373H3.75016C3.6467 18.9373 3.56282 18.8535 3.56282 18.75V10.3126H9.18701V18.9373Z" fill="#B8B8B8"/>
</svg>
