<svg width="25" height="24" viewBox="0 0 25 24" fill="none" xmlns="http://www.w3.org/2000/svg">
  <path fill-rule="evenodd" clip-rule="evenodd" d="M12.1367 9.29317C12.5509 9.29317 12.8867 9.62895 12.8867 10.0432L12.8867 13.8015C12.8867 14.2157 12.5509 14.5515 12.1367 14.5515C11.7225 14.5515 11.3867 14.2157 11.3867 13.8015L11.3867 10.0432C11.3867 9.62895 11.7225 9.29317 12.1367 9.29317Z" fill="#F5F5F5" />
  <path fill-rule="evenodd" clip-rule="evenodd" d="M11.0215 3.02737C11.3603 2.8309 11.745 2.72743 12.1367 2.72743C12.5283 2.72743 12.913 2.8309 13.2518 3.02737C13.59 3.22349 13.8705 3.50535 14.065 3.84448C14.0653 3.84506 14.0656 3.84565 14.066 3.84623L22.216 17.9235C22.4116 18.2623 22.5152 18.6473 22.5155 19.0384C22.5159 19.4296 22.4134 19.814 22.2184 20.1531C22.0234 20.4922 21.7428 20.7741 21.4045 20.9706C21.0663 21.167 20.6824 21.2712 20.2912 21.2726L20.2886 21.2726H3.98476L3.98212 21.2726C3.59096 21.2712 3.20703 21.167 2.86879 20.9706C2.53055 20.7741 2.24988 20.4922 2.0549 20.1531C1.85992 19.814 1.75747 19.4296 1.75781 19.0384C1.75816 18.6473 1.86129 18.2631 2.05687 17.9243L10.2074 3.84623C10.2077 3.84562 10.2081 3.84501 10.2084 3.8444C10.4029 3.5053 10.6834 3.22348 11.0215 3.02737ZM10.8583 4.21874L11.5074 4.59453L3.35591 18.6743C3.35585 18.6744 3.35596 18.6742 3.35591 18.6743C3.29186 18.7854 3.25793 18.9116 3.25781 19.0398C3.2577 19.1681 3.2913 19.2941 3.35526 19.4054C3.41922 19.5166 3.51128 19.6091 3.62222 19.6735C3.7329 19.7378 3.85849 19.7719 3.98648 19.7726H20.2868C20.4148 19.7719 20.5404 19.7378 20.6511 19.6735C20.7621 19.6091 20.8541 19.5166 20.9181 19.4054C20.982 19.2941 21.0156 19.1681 21.0155 19.0398C21.0154 18.9116 20.9817 18.7858 20.9177 18.6748C20.9176 18.6746 20.9178 18.6749 20.9177 18.6748L12.7641 4.59128C12.7008 4.48073 12.6095 4.38886 12.4993 4.32497C12.3891 4.26108 12.264 4.22743 12.1367 4.22743C12.0093 4.22743 11.8842 4.26108 11.774 4.32497C11.6638 4.38886 11.5725 4.48073 11.5092 4.59127L10.8583 4.21874Z" fill="#F5F5F5" />
  <path d="M12.843 16.8287C12.843 17.2188 12.5267 17.5351 12.1366 17.5351C11.7464 17.5351 11.4302 17.2188 11.4302 16.8287C11.4302 16.4386 11.7464 16.1223 12.1366 16.1223C12.5267 16.1223 12.843 16.4386 12.843 16.8287Z" fill="#F5F5F5" stroke="#F5F5F5" stroke-width="0.125" />
</svg>
  