<svg width="24" height="25" viewBox="0 0 24 25" fill="none" xmlns="http://www.w3.org/2000/svg">
  <path fill-rule="evenodd" clip-rule="evenodd"
    d="M2.27295 12.9105C2.27295 7.53797 6.62827 3.18265 12.0008 3.18265C17.3734 3.18265 21.7287 7.53797 21.7287 12.9105C21.7287 18.2831 17.3734 22.6384 12.0008 22.6384C6.62827 22.6384 2.27295 18.2831 2.27295 12.9105ZM12.0012 7.51051C12.5176 7.51051 12.9362 7.8542 12.9362 8.27817V13.6518C12.9362 14.0757 12.5176 14.4194 12.0012 14.4194C11.4848 14.4194 11.0661 14.0757 11.0661 13.6518V8.27817C11.0661 7.8542 11.4848 7.51051 12.0012 7.51051ZM13.1126 17.199C13.1126 17.8129 12.6149 18.3106 12.001 18.3106C11.3871 18.3106 10.8894 17.8129 10.8894 17.199C10.8894 16.585 11.3871 16.0874 12.001 16.0874C12.6149 16.0874 13.1126 16.585 13.1126 17.199Z"
    fill="#B8B8B8" />
</svg>
  