<svg width="25" height="24" viewBox="0 0 25 24" fill="none" xmlns="http://www.w3.org/2000/svg">
  <path fill-rule="evenodd" clip-rule="evenodd" d="M12.1366 3.76872C7.59056 3.76872 3.90529 7.45399 3.90529 12C3.90529 16.546 7.59056 20.2313 12.1366 20.2313C16.6826 20.2313 20.3679 16.546 20.3679 12C20.3679 7.45399 16.6826 3.76872 12.1366 3.76872ZM2.40869 12C2.40869 6.62744 6.76401 2.27212 12.1366 2.27212C17.5091 2.27212 21.8645 6.62744 21.8645 12C21.8645 17.3726 17.5091 21.7279 12.1366 21.7279C6.76401 21.7279 2.40869 17.3726 2.40869 12Z" fill="#F5F5F5" />
  <path fill-rule="evenodd" clip-rule="evenodd" d="M12.1992 6.75C12.6134 6.75 12.9492 7.08579 12.9492 7.5V12.75C12.9492 13.1642 12.6134 13.5 12.1992 13.5C11.785 13.5 11.4492 13.1642 11.4492 12.75V7.5C11.4492 7.08579 11.785 6.75 12.1992 6.75Z" fill="#F5F5F5" />
  <path d="M12.1992 17.0625C12.717 17.0625 13.1367 16.6428 13.1367 16.125C13.1367 15.6072 12.717 15.1875 12.1992 15.1875C11.6815 15.1875 11.2617 15.6072 11.2617 16.125C11.2617 16.6428 11.6815 17.0625 12.1992 17.0625Z" fill="#F5F5F5" />
</svg>
  