<svg width="20" height="20" viewBox="0 0 20 20" fill="none" xmlns="http://www.w3.org/2000/svg">
<path d="M16.6667 6.66667H14.325C13.95 6.01667 13.4334 5.45833 12.8084 5.03333L14.1667 3.675L12.9917 2.5L11.1834 4.30833C10.8 4.21667 10.4084 4.16667 10 4.16667C9.59171 4.16667 9.20004 4.21667 8.82504 4.30833L7.00837 2.5L5.83337 3.675L7.18337 5.03333C6.56671 5.45833 6.05004 6.01667 5.67504 6.66667H3.33337V8.33333H5.07504C5.03337 8.60833 5.00004 8.88333 5.00004 9.16667V10H3.33337V11.6667H5.00004V12.5C5.00004 12.7833 5.03337 13.0583 5.07504 13.3333H3.33337V15H5.67504C6.54171 16.4917 8.15004 17.5 10 17.5C11.85 17.5 13.4584 16.4917 14.325 15H16.6667V13.3333H14.925C14.9667 13.0583 15 12.7833 15 12.5V11.6667H16.6667V10H15V9.16667C15 8.88333 14.9667 8.60833 14.925 8.33333H16.6667V6.66667ZM13.3334 10V12.5C13.3334 12.6833 13.3084 12.8917 13.275 13.0833L13.1917 13.625L12.8834 14.1667C12.2834 15.2 11.1834 15.8333 10 15.8333C8.81671 15.8333 7.71671 15.1917 7.11671 14.1667L6.80837 13.6333L6.72504 13.0917C6.69171 12.9 6.66671 12.6917 6.66671 12.5V9.16667C6.66671 8.975 6.69171 8.76667 6.72504 8.58333L6.80837 8.04167L7.11671 7.5C7.36671 7.06667 7.71671 6.69167 8.12504 6.40833L8.60004 6.08333L9.21671 5.93333C9.47504 5.86667 9.74171 5.83333 10 5.83333C10.2667 5.83333 10.525 5.86667 10.7917 5.93333L11.3584 6.06667L11.8667 6.41667C12.2834 6.7 12.625 7.06667 12.875 7.50833L13.1917 8.05L13.275 8.59167C13.3084 8.775 13.3334 8.98333 13.3334 9.16667V10ZM8.33337 11.6667H11.6667V13.3333H8.33337V11.6667ZM8.33337 8.33333H11.6667V10H8.33337V8.33333Z" fill="white"/>
</svg>
