<svg width="20" height="21" viewBox="0 0 20 21" fill="none" xmlns="http://www.w3.org/2000/svg">
<path fill-rule="evenodd" clip-rule="evenodd" d="M2.86612 3.77664C3.10054 3.54222 3.41848 3.41052 3.75 3.41052H8.33333C8.67851 3.41052 8.95833 3.69034 8.95833 4.03552C8.95833 4.3807 8.67851 4.66052 8.33333 4.66052L3.75 4.66052L3.75 17.1605H16.25V12.5772C16.25 12.232 16.5298 11.9522 16.875 11.9522C17.2202 11.9522 17.5 12.232 17.5 12.5772V17.1605C17.5 17.492 17.3683 17.81 17.1339 18.0444C16.8995 18.2788 16.5815 18.4105 16.25 18.4105H3.75C3.41848 18.4105 3.10054 18.2788 2.86612 18.0444C2.6317 17.81 2.5 17.492 2.5 17.1605V4.66052C2.5 4.329 2.6317 4.01106 2.86612 3.77664ZM12.2136 3.43904L16.854 3.43904C17.0198 3.43904 17.1787 3.50489 17.2959 3.6221C17.4132 3.73931 17.479 3.89828 17.479 4.06404V8.70443C17.479 9.04961 17.1992 9.32943 16.854 9.32943C16.5088 9.32943 16.229 9.04961 16.229 8.70443V5.57176L10.4417 11.3527C10.1975 11.5967 9.80176 11.5964 9.55782 11.3522C9.31387 11.108 9.31409 10.7123 9.5583 10.4683L15.3439 4.68904L12.2136 4.68904C11.8684 4.68904 11.5886 4.40922 11.5886 4.06404C11.5886 3.71887 11.8684 3.43904 12.2136 3.43904Z" fill="#F5F5F5"/>
</svg>
