<svg width="22" height="22" viewBox="0 0 22 22" fill="none" xmlns="http://www.w3.org/2000/svg">
<path d="M16.5001 10.9168V17.3335H3.66674V4.50016H8.2684C8.31424 3.84933 8.47007 3.23516 8.7084 2.66683H3.66674C2.6584 2.66683 1.8334 3.49183 1.8334 4.50016V17.3335C1.8334 18.3418 2.6584 19.1668 3.66674 19.1668H16.5001C17.5084 19.1668 18.3334 18.3418 18.3334 17.3335V12.7502L16.5001 10.9168ZM17.6917 7.14933C18.0951 6.50766 18.3334 5.76516 18.3334 4.9585C18.3334 2.676 16.4909 0.833496 14.2084 0.833496C11.9259 0.833496 10.0834 2.676 10.0834 4.9585C10.0834 7.241 11.9259 9.0835 14.1992 9.0835C15.0059 9.0835 15.7576 8.84516 16.3901 8.44183L19.2501 11.3018L20.5517 10.0002L17.6917 7.14933ZM14.2084 7.25016C12.9434 7.25016 11.9167 6.2235 11.9167 4.9585C11.9167 3.6935 12.9434 2.66683 14.2084 2.66683C15.4734 2.66683 16.5001 3.6935 16.5001 4.9585C16.5001 6.2235 15.4734 7.25016 14.2084 7.25016Z" fill="white"/>
</svg>
