<svg width="20" height="20" viewBox="0 0 20 20" fill="none" xmlns="http://www.w3.org/2000/svg">
<path fill-rule="evenodd" clip-rule="evenodd" d="M7.00011 4.75C6.30976 4.75 5.75011 5.30964 5.75011 6V8.25H7.31077L5.00011 10.5607L2.68945 8.25H4.25011V6C4.25011 4.48122 5.48133 3.25 7.00011 3.25H13.0001C14.5189 3.25 15.7501 4.48122 15.7501 6V8H14.2501V6C14.2501 5.30964 13.6905 4.75 13.0001 4.75H7.00011Z" fill="white"/>
<path fill-rule="evenodd" clip-rule="evenodd" d="M12.9999 15.25C13.6902 15.25 14.2499 14.6904 14.2499 14L14.2499 11.75L12.6892 11.75L14.9999 9.43934L17.3105 11.75L15.7499 11.75L15.7499 14C15.7499 15.5188 14.5187 16.75 12.9999 16.75L6.99988 16.75C5.4811 16.75 4.24988 15.5188 4.24988 14L4.24988 12L5.74988 12L5.74988 14C5.74988 14.6904 6.30953 15.25 6.99988 15.25L12.9999 15.25Z" fill="white"/>
</svg>
