<svg width="20" height="20" viewBox="0 0 20 20" fill="none" xmlns="http://www.w3.org/2000/svg">
<path d="M10 6.66658C10.9167 6.66658 11.6667 5.91658 11.6667 4.99992C11.6667 4.08325 10.9167 3.33325 10 3.33325C9.08337 3.33325 8.33337 4.08325 8.33337 4.99992C8.33337 5.91658 9.08337 6.66658 10 6.66658ZM10 8.33325C9.08337 8.33325 8.33337 9.08325 8.33337 9.99992C8.33337 10.9166 9.08337 11.6666 10 11.6666C10.9167 11.6666 11.6667 10.9166 11.6667 9.99992C11.6667 9.08325 10.9167 8.33325 10 8.33325ZM10 13.3333C9.08337 13.3333 8.33337 14.0833 8.33337 14.9999C8.33337 15.9166 9.08337 16.6666 10 16.6666C10.9167 16.6666 11.6667 15.9166 11.6667 14.9999C11.6667 14.0833 10.9167 13.3333 10 13.3333Z" fill="white"/>
</svg>
