<svg width="24" height="24" viewBox="0 0 24 24" fill="none" xmlns="http://www.w3.org/2000/svg">
  <path fill-rule="evenodd" clip-rule="evenodd" d="M12 5.9999C14.62 5.9999 16.88 7.8599 17.39 10.4299L17.69 11.9299L19.22 12.0399C20.78 12.1399 22 13.4499 22 14.9999C22 16.6499 20.65 17.9999 19 17.9999H18.5455V19.9999H19C21.76 19.9999 24 17.7599 24 14.9999C24 12.3599 21.95 10.2199 19.35 10.0399C18.67 6.5899 15.64 3.99989 12 3.99989C9.11 3.99989 6.6 5.6399 5.35 8.0399C2.34 8.3599 0 10.9099 0 13.9999C0 17.3099 2.69 19.9999 6 19.9999H10.9091V17.9999H6C3.79 17.9999 2 16.2099 2 13.9999C2 11.9499 3.53 10.2399 5.56 10.0299L6.63 9.9199L7.13 8.9699C8.08 7.1399 9.94 5.9999 12 5.9999ZM12 13.091H17.4545V15.2728H12V13.091ZM17.4545 16.3637H12V18.5455H17.4545V16.3637ZM12 19.6364H17.4545V21.8182H12V19.6364Z" fill="white" />
</svg>
  