<svg width="24" height="24" viewBox="0 0 24 24" fill="none" xmlns="http://www.w3.org/2000/svg">
  <path d="M16.5 13C15.3 13 13.43 13.34 12 14C10.57 13.33 8.7 13 7.5 13C5.33 13 1 14.08 1 16.25V19H23V16.25C23 14.08 18.67 13 16.5 13ZM12.5 17.5H2.5V16.25C2.5 15.71 5.06 14.5 7.5 14.5C9.94 14.5 12.5 15.71 12.5 16.25V17.5ZM21.5 17.5H14V16.25C14 15.79 13.8 15.39 13.48 15.03C14.36 14.73 15.44 14.5 16.5 14.5C18.94 14.5 21.5 15.71 21.5 16.25V17.5ZM7.5 12C9.43 12 11 10.43 11 8.50002C11 6.57002 9.43 5.00002 7.5 5.00002C5.57 5.00002 4 6.57002 4 8.50002C4 10.43 5.57 12 7.5 12ZM7.5 6.50002C8.6 6.50002 9.5 7.40002 9.5 8.50002C9.5 9.60002 8.6 10.5 7.5 10.5C6.4 10.5 5.5 9.60002 5.5 8.50002C5.5 7.40002 6.4 6.50002 7.5 6.50002ZM16.5 12C18.43 12 20 10.43 20 8.50002C20 6.57002 18.43 5.00002 16.5 5.00002C14.57 5.00002 13 6.57002 13 8.50002C13 10.43 14.57 12 16.5 12ZM16.5 6.50002C17.6 6.50002 18.5 7.40002 18.5 8.50002C18.5 9.60002 17.6 10.5 16.5 10.5C15.4 10.5 14.5 9.60002 14.5 8.50002C14.5 7.40002 15.4 6.50002 16.5 6.50002Z" fill="white" />
</svg>
  