<svg width="24" height="24" viewBox="0 0 24 24" fill="none" xmlns="http://www.w3.org/2000/svg">
  <path d="M10.9997 17.9997H12.9998V15.9996H10.9997V17.9997ZM11.9998 1.99966C6.47976 1.99966 1.99976 6.47966 1.99976 11.9997C1.99976 17.5197 6.47976 21.9996 11.9998 21.9996C17.5198 21.9996 21.9998 17.5197 21.9998 11.9997C21.9998 6.47966 17.5198 1.99966 11.9998 1.99966ZM11.9998 19.9997C7.58976 19.9997 3.99975 16.4097 3.99975 11.9997C3.99975 7.58966 7.58976 3.99966 11.9998 3.99966C16.4098 3.99966 19.9997 7.58966 19.9997 11.9997C19.9997 16.4097 16.4098 19.9997 11.9998 19.9997ZM11.9998 5.99966C9.78975 5.99966 7.99976 7.78966 7.99976 9.99966H9.99975C9.99975 8.89966 10.8998 7.99966 11.9998 7.99966C13.0997 7.99966 13.9997 8.89966 13.9997 9.99966C13.9997 11.9997 10.9997 11.7497 10.9997 14.9997H12.9998C12.9998 12.7497 15.9998 12.4997 15.9998 9.99966C15.9998 7.78966 14.2097 5.99966 11.9998 5.99966Z" fill="white" />
</svg>
  