<svg width="24" height="24" viewBox="0 0 24 24" fill="none" xmlns="http://www.w3.org/2000/svg">
  <path d="M15.3622 14H14.5792L14.3017 13.73C15.273 12.59 15.8578 11.1101 15.8578 9.50001C15.8578 5.91002 12.9736 3.00002 9.41554 3.00002C5.85745 3.00002 2.97333 5.91002 2.97333 9.50001C2.97333 13.0901 5.85745 16.0001 9.41554 16.0001C11.0112 16.0001 12.478 15.41 13.608 14.43L13.8756 14.7101V15.5L18.831 20.49L20.3078 19.0001L15.3622 14ZM9.41554 14C6.94767 14 4.95554 11.99 4.95554 9.50001C4.95554 7.01001 6.94767 5.00001 9.41554 5.00001C11.8834 5.00001 13.8756 7.01001 13.8756 9.50001C13.8756 11.99 11.8834 14 9.41554 14Z" fill="white" />
</svg>
  