<svg width="24" height="24" viewBox="0 0 24 24" fill="none" xmlns="http://www.w3.org/2000/svg">
<path d="M18.5601 11.94L9.62006 3L8.21006 4.41L10.5901 6.79L5.44006 11.94C4.85006 12.53 4.85006 13.48 5.44006 14.06L10.9401 19.56C11.2301 19.85 11.6201 20 12.0001 20C12.3801 20 12.7701 19.85 13.0601 19.56L18.5601 14.06C19.1501 13.48 19.1501 12.53 18.5601 11.94ZM7.21006 13L12.0001 8.21L16.7901 13H7.21006ZM21.0001 14.5C21.0001 14.5 19.0001 16.67 19.0001 18C19.0001 19.1 19.9001 20 21.0001 20C22.1001 20 23.0001 19.1 23.0001 18C23.0001 16.67 21.0001 14.5 21.0001 14.5Z" fill="white"/>
</svg>
