<svg width="24" height="24" viewBox="0 0 24 24" fill="none" xmlns="http://www.w3.org/2000/svg">
  <path d="M12 2.25C10.0716 2.25 8.18657 2.82183 6.58319 3.89317C4.97982 4.96451 3.73013 6.48726 2.99218 8.26884C2.25422 10.0504 2.06114 12.0108 2.43735 13.9021C2.81355 15.7934 3.74215 17.5307 5.10571 18.8943C6.46928 20.2579 8.20656 21.1865 10.0979 21.5627C11.9892 21.9389 13.9496 21.7458 15.7312 21.0078C17.5127 20.2699 19.0355 19.0202 20.1068 17.4168C21.1782 15.8134 21.75 13.9284 21.75 12C21.745 9.41566 20.7162 6.93859 18.8888 5.11118C17.0614 3.28378 14.5843 2.25496 12 2.25ZM12 18C11.7775 18 11.56 17.934 11.375 17.8104C11.19 17.6868 11.0458 17.5111 10.9606 17.3055C10.8755 17.1 10.8532 16.8738 10.8966 16.6555C10.94 16.4373 11.0472 16.2368 11.2045 16.0795C11.3618 15.9222 11.5623 15.815 11.7805 15.7716C11.9988 15.7282 12.225 15.7505 12.4305 15.8356C12.6361 15.9208 12.8118 16.065 12.9354 16.25C13.059 16.435 13.125 16.6525 13.125 16.875C13.125 17.1734 13.0065 17.4595 12.7955 17.6705C12.5845 17.8815 12.2984 18 12 18ZM12.75 13.4156V13.5C12.75 13.6989 12.671 13.8897 12.5303 14.0303C12.3897 14.171 12.1989 14.25 12 14.25C11.8011 14.25 11.6103 14.171 11.4697 14.0303C11.329 13.8897 11.25 13.6989 11.25 13.5V12.75C11.25 12.5511 11.329 12.3603 11.4697 12.2197C11.6103 12.079 11.8011 12 12 12C12.3708 12 12.7334 11.89 13.0417 11.684C13.35 11.478 13.5904 11.1851 13.7323 10.8425C13.8742 10.4999 13.9113 10.1229 13.839 9.75921C13.7666 9.39549 13.5881 9.0614 13.3258 8.79917C13.0636 8.53695 12.7295 8.35837 12.3658 8.28603C12.0021 8.21368 11.6251 8.25081 11.2825 8.39273C10.9399 8.53464 10.647 8.77496 10.441 9.08331C10.235 9.39165 10.125 9.75416 10.125 10.125C10.125 10.3239 10.046 10.5147 9.90533 10.6553C9.76468 10.796 9.57392 10.875 9.375 10.875C9.17609 10.875 8.98533 10.796 8.84467 10.6553C8.70402 10.5147 8.625 10.3239 8.625 10.125C8.62501 9.48966 8.80434 8.86723 9.14239 8.32929C9.48043 7.79134 9.96345 7.35974 10.5359 7.08413C11.1083 6.80851 11.7469 6.70007 12.3783 6.77128C13.0096 6.84249 13.608 7.09045 14.1047 7.48666C14.6014 7.88286 14.9761 8.41121 15.1858 9.01094C15.3955 9.61066 15.4317 10.2574 15.2902 10.8768C15.1487 11.4962 14.8352 12.063 14.3858 12.5121C13.9365 12.9613 13.3695 13.2744 12.75 13.4156Z" fill="#004052"/>
</svg>