<svg width="10" height="13" viewBox="0 0 10 13" fill="none" xmlns="http://www.w3.org/2000/svg">
<path d="M8.50016 4.66683H7.91683V3.50016C7.91683 1.89016 6.61016 0.583496 5.00016 0.583496C3.39016 0.583496 2.0835 1.89016 2.0835 3.50016V4.66683H1.50016C0.858496 4.66683 0.333496 5.19183 0.333496 5.8335V11.6668C0.333496 12.3085 0.858496 12.8335 1.50016 12.8335H8.50016C9.14183 12.8335 9.66683 12.3085 9.66683 11.6668V5.8335C9.66683 5.19183 9.14183 4.66683 8.50016 4.66683ZM5.00016 9.91683C4.3585 9.91683 3.8335 9.39183 3.8335 8.75016C3.8335 8.1085 4.3585 7.5835 5.00016 7.5835C5.64183 7.5835 6.16683 8.1085 6.16683 8.75016C6.16683 9.39183 5.64183 9.91683 5.00016 9.91683ZM6.8085 4.66683H3.19183V3.50016C3.19183 2.50266 4.00266 1.69183 5.00016 1.69183C5.99766 1.69183 6.8085 2.50266 6.8085 3.50016V4.66683Z" fill="white"/>
</svg>
