<?xml version="1.0" encoding="utf-8"?>
<!-- Svg Vector Icons : http://www.onlinewebfonts.com/icon -->
<!DOCTYPE svg PUBLIC "-//W3C//DTD SVG 1.1//EN" "http://www.w3.org/Graphics/SVG/1.1/DTD/svg11.dtd">
<svg version="1.1" xmlns="http://www.w3.org/2000/svg" xmlns:xlink="http://www.w3.org/1999/xlink" x="0px" y="0px" viewBox="0 0 1000 1000" enable-background="new 0 0 1000 1000" xml:space="preserve">
<metadata> Svg Vector Icons : http://www.onlinewebfonts.com/icon </metadata>
<g><path d="M925,258.4c0-3.1-2.2-6.9-4.9-8.5L503.2,11.2c-2.7-1.6-7.1-1.5-9.8,0L78.2,252.8c-2.7,1.6-4.9,5.4-4.9,8.5L75,741.6c0,3.1,2.2,6.9,4.9,8.5l416.8,238.7c2.7,1.6,7.1,1.5,9.8,0l415.1-241.6c2.7-1.6,4.9-5.4,4.9-8.5L925,258.4z M802.7,649.4c0,3.1-0.7,8.1-1.5,11.2l-7.4,13.1c-2.2,2.3-6.1,5.4-8.8,7.1L525.6,838.1c-2.7,1.6-7.2,3.9-10.1,5.2c0,0-3.8,1.6-8.5,1.6c-3.9,0-6.2-0.8-6.2-0.8c-2.9-1-7.7-3-10.5-4.3l-111.9-54.2c-2.8-1.4-4-4.8-2.6-7.6l18.2-37.5c1.4-2.8,4.8-4,7.6-2.6l98.9,47.9c2.8,1.4,7.3,1.2,10-0.5l234.3-142.2c2.7-1.6,4.9-5.5,4.9-8.6v-269c0-3.1-2.2-7-4.9-8.6l-233-137.6c-2.7-1.6-7.1-1.6-9.8,0L263.3,357.1c-2.7,1.6-4.9,5.4-4.9,8.5v274.3c0,3.1,1.9,7.4,4.2,9.5c0,0,47.7,43,70.4,42.1c20.6-0.8,39.5-19.1,39.5-19.1c2.2-2.2,4.1-6.5,4.1-9.6V364.4c0-3.1,2.6-5.7,5.7-5.7h41.7c3.1,0,5.7,2.6,5.7,5.7v307.7c0,3.1-0.4,8.2-0.8,11.3c0,0-0.7,4.8-3.7,9.2c-1.4,2-34.1,49.7-90,51.9c-42.5,1.7-84.2-22.9-124-72.9c-3.7-4.7-4.8-10.9-4.8-10.9c-0.5-3.1-1-8.1-1-11.3V350.3c0-3.1,0.7-8.1,1.5-11.1l7.8-13.4c2.2-2.2,6.2-5.3,8.9-6.9l265.3-153.3c2.7-1.6,7.4-3.5,10.4-4.2l15.8,0.1c3,0.8,7.7,2.8,10.4,4.3l259.4,153.2c2.7,1.6,6.7,4.7,8.8,7l7.6,13.3c0.8,3,1.5,8,1.5,11.1L802.7,649.4L802.7,649.4z M636.2,557.1c-6.8-4.4-23.5-9.9-50.4-16.7c-36.1-9.1-61.2-17-75.1-23.7c-14-6.7-24.5-15.9-31.8-27.6c-7.2-11.8-10.8-24.8-10.8-39c0-13,3-24.9,8.9-36c5.9-11,14-20.2,24.2-27.5c7.7-5.7,18.1-10.4,31.3-14.4c13.2-3.9,27.4-5.9,42.6-5.9c22.8,0,42.8,3.3,60.1,9.9c17.2,6.6,30,15.5,38.2,26.7c8.2,11.2,15.5,39.5,15.5,39.5c0.8,3-1.1,5.8-4.2,6.3l-36.9,5c-3.1,0.4-6.4-1.7-7.4-4.6c0,0-6.8-21.2-17.3-29.6c-10.5-8.4-25.3-12.6-44.5-12.6c-22.6,0-38.8,3.7-48.4,11.2c-9.7,7.5-14.5,16.2-14.5,26.3c0,6.4,2,12.1,6,17.2c4,5.3,10.3,9.7,18.9,13.1c4.9,1.8,19.4,6,43.5,12.6c34.8,9.3,59.2,16.9,72.9,22.9c13.8,5.9,24.6,14.6,32.4,25.9c7.8,11.3,11.8,25.4,11.8,42.1c0,16.4-4.8,31.9-14.4,46.4c-9.6,14.5-23.4,25.7-41.5,33.7c-18.1,7.9-38.5,11.9-61.3,11.9c-37.8,0-66.5-7.8-86.3-23.5c-19.8-15.7-36.1-64.4-36.1-64.4c-1-3,0.7-5.8,3.8-6.3L503,570c3.1-0.5,6.3,1.6,7.2,4.6c0,0,8.7,29,21.2,39.4c12.5,10.4,30,15.6,52.4,15.6c22.6,0,39.4-4.6,50.4-13.8c11-9.2,16.4-20,16.4-32.4C650.7,572.2,645.8,563.4,636.2,557.1z"/></g>
</svg>