<svg width="108" height="113" viewBox="0 0 108 113" fill="none" xmlns="http://www.w3.org/2000/svg">
<path d="M108 35.272C108 25.5027 102.005 17.1337 93.4921 13.6367L92.6841 13.3162L95.2475 8.87922C95.9872 7.59898 95.0626 6 93.5832 6H70.9624C69.4839 6 68.5602 7.60071 69.2981 8.87922L80.6085 28.4572C81.3482 29.7374 83.1974 29.7374 83.9353 28.4572L86.7838 23.5259L89.4712 24.6988C93.524 26.5233 96.3443 30.5754 96.3443 35.2827C96.3443 37.0751 95.9353 38.7707 95.2065 40.2873L68.6495 97.1424H68.6513C68.4126 97.6386 68.0619 98.0956 67.5991 98.4735C66.1844 99.6315 64.102 99.6297 62.6873 98.4698C62.4823 98.3032 62.3019 98.1202 62.1407 97.9254L40.1429 70.9723L34 81.7945L53.4875 105.721C56.3379 108.959 60.5137 111 65.1687 111C71.5718 111 77.0722 107.134 79.4579 101.608L105.793 45.2063C107.208 42.1907 108 38.8244 108 35.272Z" fill="#F5BC41"/>
<path d="M15.2828 83.8568C15.2544 83.8568 15.226 83.855 15.1975 83.855C8.79505 83.855 3.60473 89.0363 3.60473 95.4275C3.60473 101.819 8.79505 107 15.1975 107C21.6001 107 26.7903 101.819 26.7903 95.4275C26.7903 93.3317 26.2321 91.3658 25.2563 89.6715L50.6072 43.0335L50.6108 43.0353C50.6479 42.9696 50.6831 42.9022 50.7193 42.8365L50.7383 42.8046C52.8179 38.9843 54 34.607 54 29.9528C54 15.0675 41.911 3 27.0001 3C12.0887 3 0 15.0675 0 29.9528C0 36.6422 2.44048 42.762 6.48246 47.4748L20.2592 64.3206L26.3916 53.6747L15.1993 40.0064C12.9721 37.336 11.5323 33.702 11.5323 29.9546C11.5323 21.4464 18.4415 14.5495 26.9645 14.5495C35.4876 14.5495 42.3964 21.4464 42.3964 29.9546C42.3964 32.7084 41.6733 35.2937 40.4044 37.5312L40.3972 37.5436L15.2828 83.8568Z" fill="#F5BC41"/>
</svg>
