<svg width="562" height="155" viewBox="0 0 562 155" fill="none" xmlns="http://www.w3.org/2000/svg">
<path d="M273.732 33.9648V129.977H259.949L211.63 69.6891V129.977H193.775V33.9648H207.04L255.887 95.9486V33.9648H273.732Z" fill="white"/>
<path d="M360.021 96.3719C360.021 117.124 345.332 131.672 324.298 131.672C303.123 131.672 288.434 117.124 288.434 96.3719C288.434 75.4795 303.123 60.9312 324.298 60.9312C345.332 60.9312 360.021 75.4679 360.021 96.3719ZM341.518 96.3719C341.518 85.3552 334.456 77.728 324.286 77.728C313.976 77.728 306.925 85.3552 306.925 96.3719C306.925 107.248 313.987 114.875 324.286 114.875C334.456 114.864 341.518 107.236 341.518 96.3719Z" fill="white"/>
<path d="M442.758 96.3719C442.758 117.124 428.069 131.672 407.034 131.672C385.859 131.672 371.17 117.124 371.17 96.3719C371.17 75.4795 385.859 60.9312 407.034 60.9312C428.069 60.9312 442.758 75.4679 442.758 96.3719ZM424.254 96.3719C424.254 85.3552 417.192 77.728 407.022 77.728C396.712 77.728 389.662 85.3552 389.662 96.3719C389.662 107.248 396.723 114.875 407.022 114.875C417.192 114.864 424.254 107.236 424.254 96.3719Z" fill="white"/>
<path d="M525.352 29.7273V129.977H506.86V126.163C501.634 129.554 494.995 131.672 487.52 131.672C468.876 131.672 453.916 115.852 453.916 96.2312C453.916 76.7509 468.888 60.9311 487.52 60.9311C495.007 60.9311 501.645 63.0493 506.86 66.4402V29.7273H525.352ZM506.848 106.965V85.6495C502.469 79.4344 496.396 77.7396 490.323 77.7396C479.729 77.7396 472.395 86.2135 472.395 96.2429C472.395 106.413 479.741 114.887 490.323 114.887C496.407 114.864 502.469 113.169 506.848 106.965Z" fill="white"/>
<path d="M561.487 29.7273V129.977H542.995V29.7273H561.487Z" fill="white"/>
<path d="M154.413 46.9058C154.413 33.0552 145.918 21.1898 133.856 16.2319L132.711 15.7774L136.343 9.48686C137.391 7.67177 136.081 5.40479 133.985 5.40479H101.932C99.8375 5.40479 98.5286 7.67422 99.5742 9.48686L115.6 37.2439C116.649 39.059 119.269 39.059 120.314 37.2439L124.351 30.2526L128.158 31.9154C133.901 34.5022 137.897 40.2471 137.897 46.921C137.897 49.4621 137.318 51.8662 136.285 54.0164L98.6551 134.624H98.6577C98.3195 135.327 97.8226 135.975 97.1669 136.511C95.1623 138.153 92.2116 138.15 90.207 136.506C89.9166 136.27 89.661 136.01 89.4326 135.734L58.2629 97.5206L49.5587 112.864L77.1715 146.787C81.2103 151.377 87.1272 154.271 93.7231 154.271C102.796 154.271 110.59 148.79 113.97 140.955L151.285 60.9904C153.291 56.715 154.413 51.9424 154.413 46.9058Z" fill="#F5BC41"/>
<path d="M21.8269 115.682C21.7862 115.682 21.7457 115.679 21.705 115.679C12.561 115.679 5.14825 123.092 5.14825 132.236C5.14825 141.38 12.561 148.793 21.705 148.793C30.8491 148.793 38.2618 141.38 38.2618 132.236C38.2618 129.238 37.4646 126.425 36.0709 124.001L72.2769 57.2759L72.2821 57.2785C72.335 57.1845 72.3853 57.0881 72.437 56.9941L72.4641 56.9485C75.4341 51.4828 77.1225 45.2201 77.1225 38.5614C77.1225 17.265 59.8571 0 38.5614 0C17.265 0 0 17.265 0 38.5614C0 48.1319 3.48548 56.8875 9.25821 63.6301L28.9341 87.7315L37.6923 72.5004L21.7076 52.9451C18.5267 49.1246 16.4704 43.9254 16.4704 38.564C16.4704 26.3913 26.338 16.5239 38.5105 16.5239C50.6832 16.5239 60.5502 26.3913 60.5502 38.564C60.5502 42.5038 59.5176 46.2026 57.7054 49.4037L57.695 49.4216L21.8269 115.682Z" fill="#F5BC41"/>
</svg>
