<svg width="16" height="16" viewBox="0 0 16 16" fill="none" xmlns="http://www.w3.org/2000/svg">
<path d="M8 0.5C3.85833 0.5 0.5 3.85833 0.5 8C0.5 12.1417 3.85833 15.5 8 15.5C8.69167 15.5 9.25 14.9417 9.25 14.25C9.25 13.925 9.125 13.6333 8.925 13.4083C8.73333 13.1917 8.60833 12.9 8.60833 12.5833C8.60833 11.8917 9.16667 11.3333 9.85833 11.3333H11.3333C13.6333 11.3333 15.5 9.46667 15.5 7.16667C15.5 3.48333 12.1417 0.5 8 0.5ZM3.41667 8C2.725 8 2.16667 7.44167 2.16667 6.75C2.16667 6.05833 2.725 5.5 3.41667 5.5C4.10833 5.5 4.66667 6.05833 4.66667 6.75C4.66667 7.44167 4.10833 8 3.41667 8ZM5.91667 4.66667C5.225 4.66667 4.66667 4.10833 4.66667 3.41667C4.66667 2.725 5.225 2.16667 5.91667 2.16667C6.60833 2.16667 7.16667 2.725 7.16667 3.41667C7.16667 4.10833 6.60833 4.66667 5.91667 4.66667ZM10.0833 4.66667C9.39167 4.66667 8.83333 4.10833 8.83333 3.41667C8.83333 2.725 9.39167 2.16667 10.0833 2.16667C10.775 2.16667 11.3333 2.725 11.3333 3.41667C11.3333 4.10833 10.775 4.66667 10.0833 4.66667ZM12.5833 8C11.8917 8 11.3333 7.44167 11.3333 6.75C11.3333 6.05833 11.8917 5.5 12.5833 5.5C13.275 5.5 13.8333 6.05833 13.8333 6.75C13.8333 7.44167 13.275 8 12.5833 8Z" fill="white"/>
</svg>
