<svg width="128" height="129" viewBox="0 0 128 129" fill="none" xmlns="http://www.w3.org/2000/svg">
<rect x="1" y="1.37646" width="126" height="126" stroke="white" stroke-opacity="0.5" stroke-width="2"/>
<rect x="6" y="6.37646" width="31" height="31" fill="#83B8BA"/>
<path d="M22.8947 17.1946V27.3765H20.742V19.238H20.6823L18.3506 20.6996V18.7905L20.8712 17.1946H22.8947Z" fill="black" fill-opacity="0.5"/>
<rect x="41" y="6.37646" width="31" height="31" fill="#83B8BA"/>
<path d="M51.9915 25.5867V23.8914L56.2423 17.1946H57.7039V19.5412H56.8388L54.1592 23.782V23.8616H60.1996V25.5867H51.9915ZM56.8786 27.3765V25.0696L56.9184 24.3189V17.1946H58.9369V27.3765H56.8786Z" fill="black" fill-opacity="0.5"/>
<rect x="6" y="41.3765" width="31" height="31" fill="#83B8BA"/>
<path d="M17.4806 62.3765V60.8253L21.1049 57.4695C21.4131 57.1712 21.6717 56.9027 21.8805 56.6641C22.0926 56.4255 22.2533 56.1918 22.3627 55.9631C22.4721 55.7311 22.5268 55.4809 22.5268 55.2124C22.5268 54.9141 22.4588 54.6572 22.323 54.4418C22.1871 54.2231 22.0015 54.0557 21.7661 53.9397C21.5308 53.8204 21.264 53.7607 20.9657 53.7607C20.6542 53.7607 20.3824 53.8237 20.1504 53.9496C19.9184 54.0756 19.7394 54.2562 19.6134 54.4915C19.4875 54.7268 19.4245 55.0069 19.4245 55.3317H17.3812C17.3812 54.6655 17.532 54.0872 17.8336 53.5966C18.1352 53.1061 18.5578 52.7266 19.1014 52.4581C19.6449 52.1897 20.2713 52.0554 20.9806 52.0554C21.7098 52.0554 22.3445 52.1847 22.8847 52.4432C23.4283 52.6984 23.8509 53.0531 24.1525 53.5071C24.4541 53.9612 24.6049 54.4816 24.6049 55.0682C24.6049 55.4527 24.5287 55.8322 24.3762 56.2067C24.2271 56.5812 23.9603 56.9972 23.5758 57.4546C23.1913 57.9087 22.6494 58.4539 21.9501 59.0902L20.4636 60.5469V60.6165H24.7391V62.3765H17.4806Z" fill="black" fill-opacity="0.5"/>
<rect x="41" y="41.3765" width="31" height="31" fill="#83B8BA"/>
<path d="M56.0968 62.5157C55.3942 62.5157 54.7678 62.3864 54.2176 62.1279C53.6707 61.8694 53.2365 61.5131 52.915 61.059C52.5935 60.6049 52.4261 60.0846 52.4129 59.4979H54.501C54.5242 59.8923 54.6899 60.2122 54.9981 60.4574C55.3063 60.7027 55.6726 60.8253 56.0968 60.8253C56.4349 60.8253 56.7332 60.7508 56.9917 60.6016C57.2536 60.4491 57.4574 60.2387 57.6032 59.9702C57.7524 59.6984 57.8269 59.3869 57.8269 59.0356C57.8269 58.6776 57.7507 58.3627 57.5983 58.091C57.4491 57.8192 57.242 57.6071 56.9768 57.4546C56.7117 57.3021 56.4084 57.2242 56.067 57.2209C55.7687 57.2209 55.4787 57.2822 55.197 57.4049C54.9186 57.5275 54.7015 57.6949 54.5457 57.907L52.6316 57.564L53.1139 52.1946H59.3383V53.9546H54.8887L54.6252 56.505H54.6849C54.8639 56.2531 55.134 56.0443 55.4953 55.8786C55.8565 55.7129 56.2609 55.63 56.7083 55.63C57.3215 55.63 57.8684 55.7742 58.349 56.0625C58.8295 56.3509 59.209 56.747 59.4875 57.2508C59.7659 57.7512 59.9034 58.3279 59.9001 58.9809C59.9034 59.6669 59.7443 60.2768 59.4228 60.8104C59.1046 61.3407 58.6589 61.7583 58.0855 62.0633C57.5154 62.3649 56.8525 62.5157 56.0968 62.5157Z" fill="black" fill-opacity="0.5"/>
<rect x="6" y="76.3765" width="31" height="31" fill="#83B8BA"/>
<path d="M21.039 97.5157C20.2966 97.5157 19.6354 97.3881 19.0554 97.1329C18.4787 96.8743 18.0229 96.5197 17.6882 96.0689C17.3567 95.6149 17.1861 95.0912 17.1761 94.4979H19.3437C19.357 94.7465 19.4382 94.9652 19.5873 95.1542C19.7398 95.3398 19.942 95.4839 20.1939 95.5867C20.4458 95.6894 20.7291 95.7408 21.044 95.7408C21.3721 95.7408 21.6621 95.6828 21.914 95.5668C22.1659 95.4508 22.3631 95.2901 22.5057 95.0846C22.6482 94.8791 22.7194 94.6421 22.7194 94.3736C22.7194 94.1018 22.6432 93.8615 22.4907 93.6527C22.3416 93.4406 22.1262 93.2749 21.8444 93.1556C21.566 93.0363 21.2346 92.9766 20.8501 92.9766H19.9005V91.3956H20.8501C21.1749 91.3956 21.4616 91.3393 21.7102 91.2266C21.9621 91.1139 22.1576 90.9581 22.2968 90.7593C22.4361 90.5571 22.5057 90.3218 22.5057 90.0533C22.5057 89.7981 22.4443 89.5744 22.3217 89.3821C22.2024 89.1866 22.0334 89.0341 21.8146 88.9248C21.5992 88.8154 21.3473 88.7607 21.0589 88.7607C20.7673 88.7607 20.5004 88.8137 20.2585 88.9198C20.0165 89.0225 19.8227 89.17 19.6768 89.3623C19.531 89.5545 19.4531 89.7799 19.4432 90.0384H17.3799C17.3899 89.4517 17.5573 88.9347 17.8821 88.4873C18.2069 88.0398 18.6444 87.6901 19.1946 87.4383C19.7481 87.183 20.3728 87.0554 21.0689 87.0554C21.7715 87.0554 22.3863 87.183 22.9133 87.4383C23.4403 87.6935 23.8496 88.0382 24.1413 88.4723C24.4363 88.9032 24.5821 89.3871 24.5788 89.924C24.5821 90.4941 24.4048 90.9697 24.0468 91.3509C23.6922 91.7321 23.2299 91.974 22.6598 92.0767V92.1563C23.4088 92.2524 23.9789 92.5126 24.37 92.9368C24.7644 93.3578 24.96 93.8848 24.9567 94.5178C24.96 95.0978 24.7926 95.6132 24.4545 96.064C24.1198 96.5147 23.6574 96.8694 23.0674 97.1279C22.4775 97.3864 21.8013 97.5157 21.039 97.5157Z" fill="black" fill-opacity="0.5"/>
</svg>
