<svg width="128" height="129" viewBox="0 0 128 129" fill="none" xmlns="http://www.w3.org/2000/svg">
<rect x="1" y="1.37646" width="126" height="126" stroke="white" stroke-opacity="0.5" stroke-width="2"/>
<rect x="6" y="6.37646" width="31" height="31" fill="#83B8BA"/>
<path d="M22.8947 17.1946V27.3765H20.742V19.238H20.6823L18.3506 20.6996V18.7905L20.8712 17.1946H22.8947Z" fill="black" fill-opacity="0.5"/>
<rect x="41" y="6.37646" width="31" height="31" fill="#83B8BA"/>
<path d="M52.4806 27.3765V25.8253L56.1049 22.4695C56.4131 22.1712 56.6717 21.9027 56.8805 21.6641C57.0926 21.4255 57.2533 21.1918 57.3627 20.9631C57.4721 20.7311 57.5268 20.4809 57.5268 20.2124C57.5268 19.9141 57.4588 19.6572 57.323 19.4418C57.1871 19.2231 57.0015 19.0557 56.7661 18.9397C56.5308 18.8204 56.264 18.7607 55.9657 18.7607C55.6542 18.7607 55.3824 18.8237 55.1504 18.9496C54.9184 19.0756 54.7394 19.2562 54.6134 19.4915C54.4875 19.7268 54.4245 20.0069 54.4245 20.3317H52.3812C52.3812 19.6655 52.532 19.0872 52.8336 18.5966C53.1352 18.1061 53.5578 17.7266 54.1014 17.4581C54.6449 17.1897 55.2713 17.0554 55.9806 17.0554C56.7098 17.0554 57.3445 17.1847 57.8847 17.4432C58.4283 17.6984 58.8509 18.0531 59.1525 18.5071C59.4541 18.9612 59.6049 19.4816 59.6049 20.0682C59.6049 20.4527 59.5287 20.8322 59.3762 21.2067C59.2271 21.5812 58.9603 21.9972 58.5758 22.4546C58.1913 22.9087 57.6494 23.4539 56.9501 24.0902L55.4636 25.5469V25.6165H59.7391V27.3765H52.4806Z" fill="black" fill-opacity="0.5"/>
<rect x="6" y="42.3765" width="31" height="31" fill="#83B8BA"/>
<path d="M16.9915 61.5867V59.8914L21.2423 53.1946H22.7039V55.5412H21.8388L19.1592 59.782V59.8616H25.1996V61.5867H16.9915ZM21.8786 63.3765V61.0696L21.9184 60.3189V53.1946H23.9369V63.3765H21.8786Z" fill="black" fill-opacity="0.5"/>
<rect x="76" y="6.37646" width="31" height="31" fill="#83B8BA"/>
<path d="M91.039 27.5157C90.2966 27.5157 89.6354 27.3881 89.0554 27.1329C88.4787 26.8743 88.0229 26.5197 87.6882 26.0689C87.3567 25.6149 87.1861 25.0912 87.1761 24.4979H89.3437C89.357 24.7465 89.4382 24.9652 89.5873 25.1542C89.7398 25.3398 89.942 25.4839 90.1939 25.5867C90.4458 25.6894 90.7291 25.7408 91.044 25.7408C91.3721 25.7408 91.6621 25.6828 91.914 25.5668C92.1659 25.4508 92.3631 25.2901 92.5057 25.0846C92.6482 24.8791 92.7194 24.6421 92.7194 24.3736C92.7194 24.1018 92.6432 23.8615 92.4907 23.6527C92.3416 23.4406 92.1262 23.2749 91.8444 23.1556C91.566 23.0363 91.2346 22.9766 90.8501 22.9766H89.9005V21.3956H90.8501C91.1749 21.3956 91.4616 21.3393 91.7102 21.2266C91.9621 21.1139 92.1576 20.9581 92.2968 20.7593C92.4361 20.5571 92.5057 20.3218 92.5057 20.0533C92.5057 19.7981 92.4443 19.5744 92.3217 19.3821C92.2024 19.1866 92.0334 19.0341 91.8146 18.9248C91.5992 18.8154 91.3473 18.7607 91.0589 18.7607C90.7673 18.7607 90.5004 18.8137 90.2585 18.9198C90.0165 19.0225 89.8227 19.17 89.6768 19.3623C89.531 19.5545 89.4531 19.7799 89.4432 20.0384H87.3799C87.3899 19.4517 87.5573 18.9347 87.8821 18.4873C88.2069 18.0398 88.6444 17.6901 89.1946 17.4383C89.7481 17.183 90.3728 17.0554 91.0689 17.0554C91.7715 17.0554 92.3863 17.183 92.9133 17.4383C93.4403 17.6935 93.8496 18.0382 94.1413 18.4723C94.4363 18.9032 94.5821 19.3871 94.5788 19.924C94.5821 20.4941 94.4048 20.9697 94.0468 21.3509C93.6922 21.7321 93.2299 21.974 92.6598 22.0767V22.1563C93.4088 22.2524 93.9789 22.5126 94.37 22.9368C94.7644 23.3578 94.96 23.8848 94.9567 24.5178C94.96 25.0978 94.7926 25.6132 94.4545 26.064C94.1198 26.5147 93.6574 26.8694 93.0674 27.1279C92.4775 27.3864 91.8013 27.5157 91.039 27.5157Z" fill="black" fill-opacity="0.5"/>
<rect x="41" y="42.3765" width="31" height="31" fill="#83B8BA"/>
<path d="M56.0968 63.5157C55.3942 63.5157 54.7678 63.3864 54.2176 63.1279C53.6707 62.8694 53.2365 62.5131 52.915 62.059C52.5935 61.6049 52.4261 61.0846 52.4129 60.4979H54.501C54.5242 60.8923 54.6899 61.2122 54.9981 61.4574C55.3063 61.7027 55.6726 61.8253 56.0968 61.8253C56.4349 61.8253 56.7332 61.7508 56.9917 61.6016C57.2536 61.4491 57.4574 61.2387 57.6032 60.9702C57.7524 60.6984 57.8269 60.3869 57.8269 60.0356C57.8269 59.6776 57.7507 59.3627 57.5983 59.091C57.4491 58.8192 57.242 58.6071 56.9768 58.4546C56.7117 58.3021 56.4084 58.2242 56.067 58.2209C55.7687 58.2209 55.4787 58.2822 55.197 58.4049C54.9186 58.5275 54.7015 58.6949 54.5457 58.907L52.6316 58.564L53.1139 53.1946H59.3383V54.9546H54.8887L54.6252 57.505H54.6849C54.8639 57.2531 55.134 57.0443 55.4953 56.8786C55.8565 56.7129 56.2609 56.63 56.7083 56.63C57.3215 56.63 57.8684 56.7742 58.349 57.0625C58.8295 57.3509 59.209 57.747 59.4875 58.2508C59.7659 58.7512 59.9034 59.3279 59.9001 59.9809C59.9034 60.6669 59.7443 61.2768 59.4228 61.8104C59.1046 62.3407 58.6589 62.7583 58.0855 63.0633C57.5154 63.3649 56.8525 63.5157 56.0968 63.5157Z" fill="black" fill-opacity="0.5"/>
</svg>
