<svg width="186" height="106" viewBox="0 0 186 106" fill="none" xmlns="http://www.w3.org/2000/svg">
<rect x="1" y="1" width="184" height="104" stroke="#C5C5C5" stroke-width="2"/>
<rect x="6" y="6" width="174" height="94" fill="#83B8BA"/>
<path d="M66.5855 52.2936H64.3786C64.3383 52.0081 64.256 51.7545 64.1317 51.5328C64.0074 51.3077 63.8478 51.1163 63.653 50.9584C63.4582 50.8005 63.2331 50.6796 62.9778 50.5956C62.7259 50.5116 62.4521 50.4697 62.1566 50.4697C61.6225 50.4697 61.1572 50.6023 60.7609 50.8677C60.3645 51.1297 60.0571 51.5126 59.8388 52.0165C59.6205 52.517 59.5113 53.125 59.5113 53.8405C59.5113 54.5761 59.6205 55.1942 59.8388 55.6947C60.0605 56.1952 60.3695 56.5731 60.7659 56.8284C61.1623 57.0837 61.6208 57.2113 62.1414 57.2113C62.4337 57.2113 62.7041 57.1727 62.9526 57.0954C63.2046 57.0182 63.428 56.9056 63.6228 56.7578C63.8176 56.6067 63.9788 56.4236 64.1065 56.2086C64.2375 55.9936 64.3282 55.7484 64.3786 55.473L66.5855 55.4831C66.5284 55.9567 66.3856 56.4135 66.1572 56.8536C65.9321 57.2902 65.6281 57.6816 65.2452 58.0276C64.8656 58.3702 64.4122 58.6423 63.8848 58.8438C63.3608 59.042 62.7679 59.1411 62.1062 59.1411C61.1858 59.1411 60.3628 58.9328 59.6373 58.5163C58.9151 58.0998 58.344 57.4968 57.9241 56.7074C57.5076 55.9181 57.2993 54.9624 57.2993 53.8405C57.2993 52.7152 57.511 51.7579 57.9342 50.9685C58.3575 50.1791 58.9319 49.5778 59.6574 49.1647C60.383 48.7481 61.1992 48.5399 62.1062 48.5399C62.7041 48.5399 63.2583 48.6239 63.7689 48.7918C64.2828 48.9598 64.738 49.205 65.1344 49.5274C65.5307 49.8466 65.8532 50.2379 66.1018 50.7014C66.3537 51.165 66.5149 51.6957 66.5855 52.2936ZM78.0583 53.8405C78.0583 54.9658 77.845 55.9231 77.4184 56.7125C76.9951 57.5019 76.4174 58.1048 75.6851 58.5213C74.9562 58.9345 74.1365 59.1411 73.2262 59.1411C72.3092 59.1411 71.4862 58.9328 70.7573 58.5163C70.0284 58.0998 69.4523 57.4968 69.0291 56.7074C68.6059 55.9181 68.3942 54.9624 68.3942 53.8405C68.3942 52.7152 68.6059 51.7579 69.0291 50.9685C69.4523 50.1791 70.0284 49.5778 70.7573 49.1647C71.4862 48.7481 72.3092 48.5399 73.2262 48.5399C74.1365 48.5399 74.9562 48.7481 75.6851 49.1647C76.4174 49.5778 76.9951 50.1791 77.4184 50.9685C77.845 51.7579 78.0583 52.7152 78.0583 53.8405ZM75.8463 53.8405C75.8463 53.1116 75.7371 52.4969 75.5188 51.9964C75.3038 51.4959 74.9998 51.1163 74.6068 50.8576C74.2138 50.599 73.7536 50.4697 73.2262 50.4697C72.6989 50.4697 72.2387 50.599 71.8457 50.8576C71.4527 51.1163 71.147 51.4959 70.9286 51.9964C70.7137 52.4969 70.6062 53.1116 70.6062 53.8405C70.6062 54.5694 70.7137 55.1841 70.9286 55.6846C71.147 56.1851 71.4527 56.5647 71.8457 56.8233C72.2387 57.082 72.6989 57.2113 73.2262 57.2113C73.7536 57.2113 74.2138 57.082 74.6068 56.8233C74.9998 56.5647 75.3038 56.1851 75.5188 55.6846C75.7371 55.1841 75.8463 54.5694 75.8463 53.8405ZM88.7312 48.681V59H86.8467L82.3573 52.5053H82.2818V59H80.1V48.681H82.0147L86.4688 55.1707H86.5595V48.681H88.7312ZM90.5664 50.4797V48.681H99.0413V50.4797H95.8821V59H93.7256V50.4797H90.5664ZM100.863 59V48.681H107.816V50.4797H103.044V52.9386H107.458V54.7373H103.044V57.2012H107.836V59H100.863ZM118.607 48.681V59H116.723L112.233 52.5053H112.158V59H109.976V48.681H111.891L116.345 55.1707H116.436V48.681H118.607ZM120.442 50.4797V48.681H128.917V50.4797H125.758V59H123.602V50.4797H120.442Z" fill="black" fill-opacity="0.5"/>
</svg>
