<svg width="186" height="107" viewBox="0 0 186 107" fill="none" xmlns="http://www.w3.org/2000/svg">
<rect x="1" y="1.42578" width="184" height="104" stroke="white" stroke-opacity="0.5" stroke-width="2"/>
<rect x="49" y="6.42578" width="89" height="94" fill="#83B8BA"/>
<path d="M67.4367 52.8086H65.2592C65.2194 52.5269 65.1382 52.2766 65.0156 52.0579C64.8929 51.8358 64.7355 51.6469 64.5433 51.4911C64.351 51.3353 64.129 51.216 63.8771 51.1332C63.6285 51.0503 63.3584 51.0089 63.0667 51.0089C62.5397 51.0089 62.0807 51.1398 61.6896 51.4016C61.2985 51.6602 60.9952 52.038 60.7798 52.5352C60.5643 53.029 60.4566 53.6289 60.4566 54.3349C60.4566 55.0607 60.5643 55.6706 60.7798 56.1644C60.9985 56.6583 61.3034 57.0311 61.6945 57.283C62.0856 57.5349 62.5381 57.6609 63.0518 57.6609C63.3401 57.6609 63.607 57.6228 63.8522 57.5465C64.1008 57.4703 64.3212 57.3593 64.5134 57.2134C64.7057 57.0643 64.8648 56.8836 64.9907 56.6715C65.12 56.4594 65.2095 56.2174 65.2592 55.9457L67.4367 55.9556C67.3804 56.4229 67.2395 56.8737 67.0141 57.3079C66.7921 57.7388 66.4921 58.1249 66.1143 58.4663C65.7398 58.8043 65.2923 59.0728 64.772 59.2717C64.2549 59.4672 63.6699 59.565 63.017 59.565C62.1088 59.565 61.2968 59.3595 60.5809 58.9485C59.8683 58.5375 59.3049 57.9426 58.8906 57.1637C58.4796 56.3848 58.2741 55.4419 58.2741 54.3349C58.2741 53.2246 58.4829 52.2799 58.9005 51.5011C59.3181 50.7222 59.8849 50.1289 60.6008 49.7212C61.3167 49.3103 62.1221 49.1048 63.017 49.1048C63.607 49.1048 64.1538 49.1876 64.6576 49.3533C65.1647 49.5191 65.6138 49.761 66.0049 50.0792C66.396 50.3941 66.7142 50.7802 66.9595 51.2376C67.208 51.695 67.3671 52.2186 67.4367 52.8086ZM78.7569 54.3349C78.7569 55.4452 78.5465 56.3898 78.1256 57.1687C77.7079 57.9476 77.1379 58.5425 76.4153 58.9535C75.6961 59.3612 74.8874 59.565 73.9892 59.565C73.0844 59.565 72.2723 59.3595 71.5531 58.9485C70.8339 58.5375 70.2655 57.9426 69.8479 57.1637C69.4302 56.3848 69.2214 55.4419 69.2214 54.3349C69.2214 53.2246 69.4302 52.2799 69.8479 51.5011C70.2655 50.7222 70.8339 50.1289 71.5531 49.7212C72.2723 49.3103 73.0844 49.1048 73.9892 49.1048C74.8874 49.1048 75.6961 49.3103 76.4153 49.7212C77.1379 50.1289 77.7079 50.7222 78.1256 51.5011C78.5465 52.2799 78.7569 53.2246 78.7569 54.3349ZM76.5744 54.3349C76.5744 53.6156 76.4667 53.0091 76.2513 52.5153C76.0391 52.0214 75.7392 51.6469 75.3514 51.3917C74.9636 51.1365 74.5096 51.0089 73.9892 51.0089C73.4688 51.0089 73.0148 51.1365 72.627 51.3917C72.2392 51.6469 71.9376 52.0214 71.7221 52.5153C71.51 53.0091 71.404 53.6156 71.404 54.3349C71.404 55.0541 71.51 55.6606 71.7221 56.1545C71.9376 56.6483 72.2392 57.0228 72.627 57.2781C73.0148 57.5333 73.4688 57.6609 73.9892 57.6609C74.5096 57.6609 74.9636 57.5333 75.3514 57.2781C75.7392 57.0228 76.0391 56.6483 76.2513 56.1545C76.4667 55.6606 76.5744 55.0541 76.5744 54.3349ZM89.2879 49.244V59.4258H87.4285L82.9989 53.0174H82.9243V59.4258H80.7716V49.244H82.6608L87.0557 55.6474H87.1452V49.244H89.2879ZM91.0987 51.0188V49.244H99.4609V51.0188H96.3438V59.4258H94.2159V51.0188H91.0987ZM101.258 59.4258V49.244H108.119V51.0188H103.411V53.445H107.766V55.2198H103.411V57.6509H108.139V59.4258H101.258ZM118.767 49.244V59.4258H116.907L112.478 53.0174H112.403V59.4258H110.25V49.244H112.14L116.534 55.6474H116.624V49.244H118.767ZM120.577 51.0188V49.244H128.94V51.0188H125.823V59.4258H123.695V51.0188H120.577Z" fill="black" fill-opacity="0.5"/>
<path opacity="0.5" d="M152 49.6008L148.183 53.4258L152 57.2508L150.825 58.4258L145.825 53.4258L150.825 48.4258L152 49.6008Z" fill="white"/>
<path opacity="0.5" d="M35 57.1333L38.8167 52.9258L35 48.7183L36.175 47.4258L41.175 52.9258L36.175 58.4258L35 57.1333Z" fill="white"/>
</svg>
