<svg width="186" height="106" viewBox="0 0 186 106" fill="none" xmlns="http://www.w3.org/2000/svg">
<rect x="1" y="1" width="184" height="104" stroke="white" stroke-opacity="0.5" stroke-width="2"/>
<path opacity="0.5" d="M152 49.175L148.183 53L152 56.825L150.825 58L145.825 53L150.825 48L152 49.175Z" fill="white"/>
<path opacity="0.5" d="M35 56.7075L38.8167 52.5L35 48.2925L36.175 47L41.175 52.5L36.175 58L35 56.7075Z" fill="white"/>
<path opacity="0.5" d="M97.825 81.0874L94 77.2707L90.175 81.0874L89 79.9124L94 74.9124L99 79.9124L97.825 81.0874Z" fill="white"/>
<path opacity="0.5" d="M89.2925 22.4126L93.5 26.2293L97.7075 22.4126L99 23.5876L93.5 28.5876L88 23.5876L89.2925 22.4126Z" fill="white"/>
<rect x="49" y="37" width="89" height="32" fill="#83B8BA"/>
<path d="M67.4367 51.3828H65.2592C65.2194 51.1011 65.1382 50.8509 65.0156 50.6321C64.8929 50.41 64.7355 50.2211 64.5433 50.0653C64.351 49.9096 64.129 49.7902 63.8771 49.7074C63.6285 49.6245 63.3584 49.5831 63.0667 49.5831C62.5397 49.5831 62.0807 49.714 61.6896 49.9759C61.2985 50.2344 60.9952 50.6122 60.7798 51.1094C60.5643 51.6032 60.4566 52.2031 60.4566 52.9091C60.4566 53.6349 60.5643 54.2448 60.7798 54.7386C60.9985 55.2325 61.3034 55.6054 61.6945 55.8572C62.0856 56.1091 62.5381 56.2351 63.0518 56.2351C63.3401 56.2351 63.607 56.197 63.8522 56.1207C64.1008 56.0445 64.3212 55.9335 64.5134 55.7876C64.7057 55.6385 64.8648 55.4579 64.9907 55.2457C65.12 55.0336 65.2095 54.7917 65.2592 54.5199L67.4367 54.5298C67.3804 54.9972 67.2395 55.4479 67.0141 55.8821C66.7921 56.313 66.4921 56.6991 66.1143 57.0405C65.7398 57.3786 65.2923 57.647 64.772 57.8459C64.2549 58.0414 63.6699 58.1392 63.017 58.1392C62.1088 58.1392 61.2968 57.9337 60.5809 57.5227C59.8683 57.1117 59.3049 56.5168 58.8906 55.7379C58.4796 54.959 58.2741 54.0161 58.2741 52.9091C58.2741 51.7988 58.4829 50.8542 58.9005 50.0753C59.3181 49.2964 59.8849 48.7031 60.6008 48.2955C61.3167 47.8845 62.1221 47.679 63.017 47.679C63.607 47.679 64.1538 47.7618 64.6576 47.9276C65.1647 48.0933 65.6138 48.3352 66.0049 48.6534C66.396 48.9683 66.7142 49.3544 66.9595 49.8118C67.208 50.2692 67.3671 50.7929 67.4367 51.3828ZM78.7569 52.9091C78.7569 54.0194 78.5465 54.964 78.1256 55.7429C77.7079 56.5218 77.1379 57.1167 76.4153 57.5277C75.6961 57.9354 74.8874 58.1392 73.9892 58.1392C73.0844 58.1392 72.2723 57.9337 71.5531 57.5227C70.8339 57.1117 70.2655 56.5168 69.8479 55.7379C69.4302 54.959 69.2214 54.0161 69.2214 52.9091C69.2214 51.7988 69.4302 50.8542 69.8479 50.0753C70.2655 49.2964 70.8339 48.7031 71.5531 48.2955C72.2723 47.8845 73.0844 47.679 73.9892 47.679C74.8874 47.679 75.6961 47.8845 76.4153 48.2955C77.1379 48.7031 77.7079 49.2964 78.1256 50.0753C78.5465 50.8542 78.7569 51.7988 78.7569 52.9091ZM76.5744 52.9091C76.5744 52.1899 76.4667 51.5833 76.2513 51.0895C76.0391 50.5956 75.7392 50.2211 75.3514 49.9659C74.9636 49.7107 74.5096 49.5831 73.9892 49.5831C73.4688 49.5831 73.0148 49.7107 72.627 49.9659C72.2392 50.2211 71.9376 50.5956 71.7221 51.0895C71.51 51.5833 71.404 52.1899 71.404 52.9091C71.404 53.6283 71.51 54.2348 71.7221 54.7287C71.9376 55.2225 72.2392 55.5971 72.627 55.8523C73.0148 56.1075 73.4688 56.2351 73.9892 56.2351C74.5096 56.2351 74.9636 56.1075 75.3514 55.8523C75.7392 55.5971 76.0391 55.2225 76.2513 54.7287C76.4667 54.2348 76.5744 53.6283 76.5744 52.9091ZM89.2879 47.8182V58H87.4285L82.9989 51.5916H82.9243V58H80.7716V47.8182H82.6608L87.0557 54.2216H87.1452V47.8182H89.2879ZM91.0987 49.593V47.8182H99.4609V49.593H96.3438V58H94.2159V49.593H91.0987ZM101.258 58V47.8182H108.119V49.593H103.411V52.0192H107.766V53.794H103.411V56.2251H108.139V58H101.258ZM118.767 47.8182V58H116.907L112.478 51.5916H112.403V58H110.25V47.8182H112.14L116.534 54.2216H116.624V47.8182H118.767ZM120.577 49.593V47.8182H128.94V49.593H125.823V58H123.695V49.593H120.577Z" fill="black" fill-opacity="0.5"/>
</svg>
