<svg width="186" height="106" viewBox="0 0 186 106" fill="none" xmlns="http://www.w3.org/2000/svg">
<rect x="1" y="1" width="184" height="104" stroke="white" stroke-opacity="0.5" stroke-width="2"/>
<rect x="6" y="37" width="174" height="33" fill="#83B8BA"/>
<path d="M67.4367 52.3828H65.2592C65.2194 52.1011 65.1382 51.8509 65.0156 51.6321C64.8929 51.41 64.7355 51.2211 64.5433 51.0653C64.351 50.9096 64.129 50.7902 63.8771 50.7074C63.6285 50.6245 63.3584 50.5831 63.0667 50.5831C62.5397 50.5831 62.0807 50.714 61.6896 50.9759C61.2985 51.2344 60.9952 51.6122 60.7798 52.1094C60.5643 52.6032 60.4566 53.2031 60.4566 53.9091C60.4566 54.6349 60.5643 55.2448 60.7798 55.7386C60.9985 56.2325 61.3034 56.6054 61.6945 56.8572C62.0856 57.1091 62.5381 57.2351 63.0518 57.2351C63.3401 57.2351 63.607 57.197 63.8522 57.1207C64.1008 57.0445 64.3212 56.9335 64.5134 56.7876C64.7057 56.6385 64.8648 56.4579 64.9907 56.2457C65.12 56.0336 65.2095 55.7917 65.2592 55.5199L67.4367 55.5298C67.3804 55.9972 67.2395 56.4479 67.0141 56.8821C66.7921 57.313 66.4921 57.6991 66.1143 58.0405C65.7398 58.3786 65.2923 58.647 64.772 58.8459C64.2549 59.0414 63.6699 59.1392 63.017 59.1392C62.1088 59.1392 61.2968 58.9337 60.5809 58.5227C59.8683 58.1117 59.3049 57.5168 58.8906 56.7379C58.4796 55.959 58.2741 55.0161 58.2741 53.9091C58.2741 52.7988 58.4829 51.8542 58.9005 51.0753C59.3181 50.2964 59.8849 49.7031 60.6008 49.2955C61.3167 48.8845 62.1221 48.679 63.017 48.679C63.607 48.679 64.1538 48.7618 64.6576 48.9276C65.1647 49.0933 65.6138 49.3352 66.0049 49.6534C66.396 49.9683 66.7142 50.3544 66.9595 50.8118C67.208 51.2692 67.3671 51.7929 67.4367 52.3828ZM78.7569 53.9091C78.7569 55.0194 78.5465 55.964 78.1256 56.7429C77.7079 57.5218 77.1379 58.1167 76.4153 58.5277C75.6961 58.9354 74.8874 59.1392 73.9892 59.1392C73.0844 59.1392 72.2723 58.9337 71.5531 58.5227C70.8339 58.1117 70.2655 57.5168 69.8479 56.7379C69.4302 55.959 69.2214 55.0161 69.2214 53.9091C69.2214 52.7988 69.4302 51.8542 69.8479 51.0753C70.2655 50.2964 70.8339 49.7031 71.5531 49.2955C72.2723 48.8845 73.0844 48.679 73.9892 48.679C74.8874 48.679 75.6961 48.8845 76.4153 49.2955C77.1379 49.7031 77.7079 50.2964 78.1256 51.0753C78.5465 51.8542 78.7569 52.7988 78.7569 53.9091ZM76.5744 53.9091C76.5744 53.1899 76.4667 52.5833 76.2513 52.0895C76.0391 51.5956 75.7392 51.2211 75.3514 50.9659C74.9636 50.7107 74.5096 50.5831 73.9892 50.5831C73.4688 50.5831 73.0148 50.7107 72.627 50.9659C72.2392 51.2211 71.9376 51.5956 71.7221 52.0895C71.51 52.5833 71.404 53.1899 71.404 53.9091C71.404 54.6283 71.51 55.2348 71.7221 55.7287C71.9376 56.2225 72.2392 56.5971 72.627 56.8523C73.0148 57.1075 73.4688 57.2351 73.9892 57.2351C74.5096 57.2351 74.9636 57.1075 75.3514 56.8523C75.7392 56.5971 76.0391 56.2225 76.2513 55.7287C76.4667 55.2348 76.5744 54.6283 76.5744 53.9091ZM89.2879 48.8182V59H87.4285L82.9989 52.5916H82.9243V59H80.7716V48.8182H82.6608L87.0557 55.2216H87.1452V48.8182H89.2879ZM91.0987 50.593V48.8182H99.4609V50.593H96.3438V59H94.2159V50.593H91.0987ZM101.258 59V48.8182H108.119V50.593H103.411V53.0192H107.766V54.794H103.411V57.2251H108.139V59H101.258ZM118.767 48.8182V59H116.907L112.478 52.5916H112.403V59H110.25V48.8182H112.14L116.534 55.2216H116.624V48.8182H118.767ZM120.577 50.593V48.8182H128.94V50.593H125.823V59H123.695V50.593H120.577Z" fill="black" fill-opacity="0.5"/>
<path opacity="0.5" d="M89.175 23L93 26.8167L96.825 23L98 24.175L93 29.175L88 24.175L89.175 23Z" fill="white"/>
<path opacity="0.5" d="M96.7075 83.5874L92.5 79.7707L88.2925 83.5874L87 82.4124L92.5 77.4124L98 82.4124L96.7075 83.5874Z" fill="white"/>
</svg>
