<svg width="24" height="24" viewBox="0 0 24 24" fill="none" xmlns="http://www.w3.org/2000/svg">
<path d="M11.9629 14.689C11.9521 14.6574 11.9227 14.6361 11.8896 14.6361H8.30032C8.26721 14.6361 8.23777 14.6574 8.22704 14.689L7.65067 16.3907C7.63995 16.4224 7.6105 16.4436 7.5774 16.4436H5.78601C5.7325 16.4436 5.69511 16.3901 5.71303 16.3391L8.9986 6.99597C9.00957 6.96476 9.0388 6.94391 9.07158 6.94391H11.1316C11.1644 6.94391 11.1936 6.96476 11.2046 6.99597L14.4902 16.3391C14.5081 16.3901 14.4707 16.4436 14.4172 16.4436H12.6125C12.5794 16.4436 12.55 16.4224 12.5392 16.3907L11.9629 14.689ZM11.3308 13.114C11.3839 13.114 11.4213 13.0611 11.4041 13.0103L10.1682 9.36189C10.1443 9.29132 10.0456 9.29132 10.0217 9.36189L8.78583 13.0103C8.76862 13.0611 8.80597 13.114 8.8591 13.114H11.3308Z" fill="#B8B8B8"/>
<path d="M17.5614 6.9575C17.6042 6.9575 17.6389 6.99255 17.6389 7.03578V16.3654C17.6389 16.4086 17.6042 16.4436 17.5614 16.4436H15.8531C15.8103 16.4436 15.7756 16.4086 15.7756 16.3654V7.03578C15.7756 6.99255 15.8103 6.9575 15.8531 6.9575H17.5614Z" fill="#B8B8B8"/>
</svg>
