<svg width="25" height="25" viewBox="0 0 25 25" fill="none" xmlns="http://www.w3.org/2000/svg">
  <path d="M17.457 7.92615H8.26953C7.90709 7.92615 7.61328 8.18198 7.61328 8.49758V11.3547C7.61328 11.6703 7.90709 11.9261 8.26953 11.9261H17.457C17.8195 11.9261 18.1133 11.6703 18.1133 11.3547V8.49758C18.1133 8.18198 17.8195 7.92615 17.457 7.92615Z" fill="#F5F5F5" />
  <path d="M16.8008 13.4261H8.92578C8.61512 13.4261 8.36328 13.682 8.36328 13.9976V16.8547C8.36328 17.1703 8.61512 17.4261 8.92578 17.4261H16.8008C17.1114 17.4261 17.3633 17.1703 17.3633 16.8547V13.9976C17.3633 13.682 17.1114 13.4261 16.8008 13.4261Z" fill="#F5F5F5" />
  <path fill-rule="evenodd" clip-rule="evenodd" d="M12.8633 3.67615C13.2775 3.67615 13.6133 4.03433 13.6133 4.47617L13.6133 20.8761C13.6133 21.318 13.2775 21.6761 12.8633 21.6761C12.4491 21.6761 12.1133 21.318 12.1133 20.8761L12.1133 4.47617C12.1133 4.03433 12.4491 3.67615 12.8633 3.67615Z" fill="#F5F5F5" />
</svg>
  