<svg width="25" height="25" viewBox="0 0 25 25" fill="none" xmlns="http://www.w3.org/2000/svg">
  <path d="M21.2437 11.9979C21.2037 11.9079 21.1537 11.8279 21.0837 11.7579L14.3337 5.00794C14.0437 4.71794 13.5637 4.71794 13.2737 5.00794C12.9837 5.29794 12.9837 5.77794 13.2737 6.06794L18.7437 11.5379H4.05371C3.64371 11.5379 3.30371 11.8779 3.30371 12.2879C3.30371 12.6979 3.64371 13.0379 4.05371 13.0379H18.7437L13.2737 18.5079C12.9837 18.7979 12.9837 19.2779 13.2737 19.5679C13.4237 19.7179 13.6137 19.7879 13.8037 19.7879C13.9937 19.7879 14.1837 19.7179 14.3337 19.5679L21.0837 12.8179C21.1537 12.7479 21.2037 12.6679 21.2437 12.5779C21.3237 12.3979 21.3237 12.1879 21.2437 12.0079V11.9979Z" fill="#F5F5F5" />
</svg>
  