<svg width="25" height="25" viewBox="0 0 25 25" fill="none" xmlns="http://www.w3.org/2000/svg">
  <path d="M12.9278 3.26032C13.0178 3.30032 13.0978 3.35032 13.1678 3.42032L19.9178 10.1703C20.2078 10.4603 20.2078 10.9403 19.9178 11.2303C19.6278 11.5203 19.1478 11.5203 18.8578 11.2303L13.3878 5.76032L13.3878 20.4503C13.3878 20.8603 13.0478 21.2003 12.6378 21.2003C12.2278 21.2003 11.8878 20.8603 11.8878 20.4503L11.8878 5.76032L6.41775 11.2303C6.12775 11.5203 5.64775 11.5203 5.35775 11.2303C5.20775 11.0803 5.13775 10.8903 5.13775 10.7003C5.13775 10.5103 5.20775 10.3203 5.35775 10.1703L12.1078 3.42032C12.1778 3.35032 12.2578 3.30032 12.3478 3.26032C12.5278 3.18032 12.7378 3.18032 12.9178 3.26032L12.9278 3.26032Z" fill="#F5F5F5" />
</svg>
  