<svg width="25" height="25" viewBox="0 0 25 25" fill="none" xmlns="http://www.w3.org/2000/svg">
  <path d="M20.3867 12.9382H3.88672" stroke="#F5F5F5" stroke-width="1.5" stroke-linecap="round" stroke-linejoin="round" />
  <path fill-rule="evenodd" clip-rule="evenodd" d="M21.1367 12.9382C21.1367 13.3524 20.8009 13.6882 20.3867 13.6882L3.88672 13.6882C3.47251 13.6882 3.13672 13.3524 3.13672 12.9382C3.13672 12.524 3.47251 12.1882 3.88672 12.1882L20.3867 12.1882C20.8009 12.1882 21.1367 12.524 21.1367 12.9382Z" fill="#F5F5F5" />
  <path d="M12.4278 10.6282C12.5178 10.5882 12.5978 10.5382 12.6678 10.4682L15.6678 7.46823C15.9578 7.17823 15.9578 6.69823 15.6678 6.40823C15.3778 6.11823 14.8978 6.11823 14.6078 6.40823L12.8878 8.12823L12.8878 2.43823C12.8878 2.02823 12.5478 1.68823 12.1378 1.68823C11.7278 1.68823 11.3878 2.02823 11.3878 2.43823L11.3878 8.12823L9.66775 6.40823C9.37775 6.11823 8.89775 6.11823 8.60775 6.40823C8.45775 6.55823 8.38775 6.74823 8.38775 6.93823C8.38775 7.12823 8.45775 7.31823 8.60775 7.46823L11.6078 10.4682C11.6778 10.5382 11.7578 10.5882 11.8478 10.6282C11.9378 10.6682 12.0278 10.6882 12.1378 10.6882C12.2478 10.6882 12.3378 10.6682 12.4278 10.6282Z" fill="#F5F5F5" />
  <path d="M12.4278 15.2482C12.5178 15.2882 12.5978 15.3382 12.6678 15.4082L15.6678 18.4082C15.9578 18.6982 15.9578 19.1782 15.6678 19.4682C15.3778 19.7582 14.8978 19.7582 14.6078 19.4682L12.8878 17.7482L12.8878 23.4382C12.8878 23.8482 12.5478 24.1882 12.1378 24.1882C11.7278 24.1882 11.3878 23.8482 11.3878 23.4382L11.3878 17.7482L9.66775 19.4682C9.37775 19.7582 8.89775 19.7582 8.60775 19.4682C8.45775 19.3182 8.38775 19.1282 8.38775 18.9382C8.38775 18.7482 8.45775 18.5582 8.60775 18.4082L11.6078 15.4082C11.6778 15.3382 11.7578 15.2882 11.8478 15.2482C11.9378 15.2082 12.0278 15.1882 12.1378 15.1882C12.2478 15.1882 12.3378 15.2082 12.4278 15.2482Z" fill="#F5F5F5" />
</svg>
  