<svg width="25" height="25" viewBox="0 0 25 25" fill="none" xmlns="http://www.w3.org/2000/svg">
  <path fill-rule="evenodd" clip-rule="evenodd" d="M21.1367 21.7009C21.1367 22.1151 20.8009 22.4509 20.3867 22.4509L3.88672 22.4509C3.47251 22.4509 3.13672 22.1151 3.13672 21.7009C3.13672 21.2867 3.47251 20.9509 3.88672 20.9509L20.3867 20.9509C20.8009 20.9509 21.1367 21.2867 21.1367 21.7009Z" fill="#F5F5F5" />
  <path fill-rule="evenodd" clip-rule="evenodd" d="M12.421 18.9382C12.5105 18.9016 12.5944 18.8469 12.6671 18.7742L16.3648 15.0765C16.6577 14.7836 16.6577 14.3088 16.3648 14.0159C16.0719 13.723 15.597 13.723 15.3041 14.0159L12.8868 16.4332L12.8868 4.17548C12.8868 3.76127 12.551 3.42548 12.1368 3.42548C11.7226 3.42548 11.3868 3.76127 11.3868 4.17548L11.3868 16.4332L8.96943 14.0159C8.67654 13.723 8.20167 13.723 7.90877 14.0159C7.61588 14.3088 7.61588 14.7836 7.90877 15.0765L11.6044 18.7721C11.6111 18.7789 11.6179 18.7855 11.6248 18.792C11.7589 18.9172 11.9389 18.9939 12.1368 18.9939C12.2374 18.9939 12.3334 18.9741 12.421 18.9382Z" fill="#F5F5F5" />
</svg>
  