<svg width="31" height="31" viewBox="0 0 31 31" fill="none" xmlns="http://www.w3.org/2000/svg">
<path d="M25.4434 26.4445C25.0291 26.4445 24.6934 26.1087 24.6934 25.6945C24.6934 25.2803 25.0291 24.9445 25.4434 24.9445C25.8576 24.9445 26.1934 25.2803 26.1934 25.6945C26.1934 26.1087 25.8576 26.4445 25.4434 26.4445Z" fill="#F5F5F5"/>
<path d="M11.7017 26.4445C11.2874 26.4445 10.9517 26.1087 10.9517 25.6945C10.9517 25.2803 11.2874 24.9445 11.7017 24.9445C12.1159 24.9445 12.4517 25.2803 12.4517 25.6945C12.4517 26.1087 12.1159 26.4445 11.7017 26.4445Z" fill="#F5F5F5"/>
<path d="M18.5728 26.4445C18.1585 26.4445 17.8228 26.1087 17.8228 25.6945C17.8228 25.2803 18.1585 24.9445 18.5728 24.9445C18.987 24.9445 19.3228 25.2803 19.3228 25.6945C19.3228 26.1087 18.987 26.4445 18.5728 26.4445Z" fill="#F5F5F5"/>
<path d="M4.83057 26.4445C4.41635 26.4445 4.08057 26.1087 4.08057 25.6945C4.08057 25.2803 4.41635 24.9445 4.83057 24.9445C5.24478 24.9445 5.58057 25.2803 5.58057 25.6945C5.58057 26.1087 5.24478 26.4445 4.83057 26.4445Z" fill="#F5F5F5"/>
<path d="M4.83008 12.7025C4.41586 12.7025 4.08008 12.3667 4.08008 11.9525C4.08008 11.5382 4.41586 11.2025 4.83008 11.2025C5.24429 11.2025 5.58008 11.5382 5.58008 11.9525C5.58008 12.3667 5.24429 12.7025 4.83008 12.7025Z" fill="#F5F5F5"/>
<path d="M25.4429 12.7025C25.0287 12.7025 24.6929 12.3667 24.6929 11.9525C24.6929 11.5382 25.0287 11.2025 25.4429 11.2025C25.8571 11.2025 26.1929 11.5382 26.1929 11.9525C26.1929 12.3667 25.8571 12.7025 25.4429 12.7025Z" fill="#F5F5F5"/>
<path d="M4.83057 19.5734C4.41635 19.5734 4.08057 19.2376 4.08057 18.8234C4.08057 18.4092 4.41635 18.0734 4.83057 18.0734C5.24478 18.0734 5.58057 18.4092 5.58057 18.8234C5.58057 19.2376 5.24478 19.5734 4.83057 19.5734Z" fill="#F5F5F5"/>
<path d="M25.4434 19.5734C25.0291 19.5734 24.6934 19.2376 24.6934 18.8234C24.6934 18.4092 25.0291 18.0734 25.4434 18.0734C25.8576 18.0734 26.1934 18.4092 26.1934 18.8234C26.1934 19.2376 25.8576 19.5734 25.4434 19.5734Z" fill="#F5F5F5"/>
<path fill-rule="evenodd" clip-rule="evenodd" d="M4.08008 4.90173C4.08008 4.48752 4.41586 4.15173 4.83008 4.15173L25.4426 4.15173C25.8568 4.15173 26.1926 4.48752 26.1926 4.90173C26.1926 5.31595 25.8568 5.65173 25.4426 5.65173L4.83008 5.65173C4.41586 5.65173 4.08008 5.31595 4.08008 4.90173Z" fill="#F5F5F5"/>
</svg>
