<svg width="31" height="31" viewBox="0 0 31 31" fill="none" xmlns="http://www.w3.org/2000/svg">
<path d="M3.99023 25.6046C3.99023 25.1904 4.32602 24.8546 4.74023 24.8546C5.15445 24.8546 5.49023 25.1904 5.49023 25.6046C5.49023 26.0188 5.15445 26.3546 4.74023 26.3546C4.32602 26.3546 3.99023 26.0188 3.99023 25.6046Z" fill="#F5F5F5"/>
<path d="M3.99023 11.8629C3.99023 11.4487 4.32602 11.1129 4.74023 11.1129C5.15445 11.1129 5.49023 11.4487 5.49023 11.8629C5.49023 12.2771 5.15445 12.6129 4.74023 12.6129C4.32602 12.6129 3.99023 12.2771 3.99023 11.8629Z" fill="#F5F5F5"/>
<path d="M3.99023 18.734C3.99023 18.3198 4.32602 17.984 4.74023 17.984C5.15445 17.984 5.49023 18.3198 5.49023 18.734C5.49023 19.1482 5.15445 19.484 4.74023 19.484C4.32602 19.484 3.99023 19.1482 3.99023 18.734Z" fill="#F5F5F5"/>
<path d="M3.99023 4.99207C3.99023 4.57785 4.32602 4.24207 4.74023 4.24207C5.15445 4.24207 5.49023 4.57785 5.49023 4.99207C5.49023 5.40628 5.15445 5.74207 4.74023 5.74207C4.32602 5.74207 3.99023 5.40628 3.99023 4.99207Z" fill="#F5F5F5"/>
<path d="M17.7324 4.99158C17.7324 4.57736 18.0682 4.24158 18.4824 4.24158C18.8966 4.24158 19.2324 4.57736 19.2324 4.99158C19.2324 5.40579 18.8966 5.74158 18.4824 5.74158C18.0682 5.74158 17.7324 5.40579 17.7324 4.99158Z" fill="#F5F5F5"/>
<path d="M17.7324 25.6044C17.7324 25.1902 18.0682 24.8544 18.4824 24.8544C18.8966 24.8544 19.2324 25.1902 19.2324 25.6044C19.2324 26.0186 18.8966 26.3544 18.4824 26.3544C18.0682 26.3544 17.7324 26.0186 17.7324 25.6044Z" fill="#F5F5F5"/>
<path d="M10.8613 4.99182C10.8613 4.57761 11.1971 4.24182 11.6113 4.24182C12.0255 4.24182 12.3613 4.57761 12.3613 4.99182C12.3613 5.40603 12.0255 5.74182 11.6113 5.74182C11.1971 5.74182 10.8613 5.40603 10.8613 4.99182Z" fill="#F5F5F5"/>
<path d="M10.8613 25.6046C10.8613 25.1904 11.1971 24.8546 11.6113 24.8546C12.0255 24.8546 12.3613 25.1904 12.3613 25.6046C12.3613 26.0188 12.0255 26.3546 11.6113 26.3546C11.1971 26.3546 10.8613 26.0188 10.8613 25.6046Z" fill="#F5F5F5"/>
<path fill-rule="evenodd" clip-rule="evenodd" d="M25.5332 4.24146C25.9474 4.24146 26.2832 4.57724 26.2832 4.99146L26.2832 25.604C26.2832 26.0182 25.9474 26.354 25.5332 26.354C25.119 26.354 24.7832 26.0182 24.7832 25.604L24.7832 4.99145C24.7832 4.57724 25.119 4.24145 25.5332 4.24146Z" fill="#F5F5F5"/>
</svg>
