<svg width="31" height="31" viewBox="0 0 31 31" fill="none" xmlns="http://www.w3.org/2000/svg">
<path d="M26.2832 4.99158C26.2832 5.40579 25.9474 5.74158 25.5332 5.74158C25.119 5.74158 24.7832 5.40579 24.7832 4.99158C24.7832 4.57736 25.119 4.24158 25.5332 4.24158C25.9474 4.24158 26.2832 4.57736 26.2832 4.99158Z" fill="#F5F5F5"/>
<path d="M26.2832 18.7333C26.2832 19.1475 25.9474 19.4833 25.5332 19.4833C25.119 19.4833 24.7832 19.1475 24.7832 18.7333C24.7832 18.3191 25.119 17.9833 25.5332 17.9833C25.9474 17.9833 26.2832 18.3191 26.2832 18.7333Z" fill="#F5F5F5"/>
<path d="M26.2832 11.8622C26.2832 12.2764 25.9474 12.6122 25.5332 12.6122C25.119 12.6122 24.7832 12.2764 24.7832 11.8622C24.7832 11.448 25.119 11.1122 25.5332 11.1122C25.9474 11.1122 26.2832 11.448 26.2832 11.8622Z" fill="#F5F5F5"/>
<path d="M26.2832 25.6041C26.2832 26.0183 25.9474 26.3541 25.5332 26.3541C25.119 26.3541 24.7832 26.0183 24.7832 25.6041C24.7832 25.1899 25.119 24.8541 25.5332 24.8541C25.9474 24.8541 26.2832 25.1899 26.2832 25.6041Z" fill="#F5F5F5"/>
<path d="M12.541 25.6046C12.541 26.0188 12.2052 26.3546 11.791 26.3546C11.3768 26.3546 11.041 26.0188 11.041 25.6046C11.041 25.1904 11.3768 24.8546 11.791 24.8546C12.2052 24.8546 12.541 25.1904 12.541 25.6046Z" fill="#F5F5F5"/>
<path d="M12.541 4.99182C12.541 5.40603 12.2052 5.74182 11.791 5.74182C11.3768 5.74182 11.041 5.40603 11.041 4.99182C11.041 4.57761 11.3768 4.24182 11.791 4.24182C12.2052 4.24182 12.541 4.57761 12.541 4.99182Z" fill="#F5F5F5"/>
<path d="M19.4121 25.6044C19.4121 26.0186 19.0763 26.3544 18.6621 26.3544C18.2479 26.3544 17.9121 26.0186 17.9121 25.6044C17.9121 25.1902 18.2479 24.8544 18.6621 24.8544C19.0763 24.8544 19.4121 25.1902 19.4121 25.6044Z" fill="#F5F5F5"/>
<path d="M19.4121 4.99158C19.4121 5.40579 19.0763 5.74158 18.6621 5.74158C18.2479 5.74158 17.9121 5.40579 17.9121 4.99158C17.9121 4.57736 18.2479 4.24158 18.6621 4.24158C19.0763 4.24158 19.4121 4.57736 19.4121 4.99158Z" fill="#F5F5F5"/>
<path fill-rule="evenodd" clip-rule="evenodd" d="M4.74023 26.3547C4.32602 26.3547 3.99023 26.0189 3.99023 25.6047L3.99024 4.99219C3.99024 4.57797 4.32602 4.24219 4.74024 4.24219C5.15445 4.24219 5.49024 4.57797 5.49024 4.99219L5.49023 25.6047C5.49023 26.0189 5.15445 26.3547 4.74023 26.3547Z" fill="#F5F5F5"/>
</svg>
