<svg width="31" height="31" viewBox="0 0 31 31" fill="none" xmlns="http://www.w3.org/2000/svg">
<path d="M4.83008 4.15167C5.24429 4.15167 5.58008 4.48746 5.58008 4.90167C5.58008 5.31589 5.24429 5.65167 4.83008 5.65167C4.41586 5.65167 4.08008 5.31589 4.08008 4.90167C4.08008 4.48746 4.41586 4.15167 4.83008 4.15167Z" fill="#F5F5F5"/>
<path d="M18.5718 4.15167C18.986 4.15167 19.3218 4.48746 19.3218 4.90167C19.3218 5.31589 18.986 5.65167 18.5718 5.65167C18.1576 5.65167 17.8218 5.31589 17.8218 4.90167C17.8218 4.48746 18.1576 4.15167 18.5718 4.15167Z" fill="#F5F5F5"/>
<path d="M11.7007 4.15167C12.1149 4.15167 12.4507 4.48746 12.4507 4.90167C12.4507 5.31589 12.1149 5.65167 11.7007 5.65167C11.2865 5.65167 10.9507 5.31589 10.9507 4.90167C10.9507 4.48746 11.2865 4.15167 11.7007 4.15167Z" fill="#F5F5F5"/>
<path d="M25.4429 4.15167C25.8571 4.15167 26.1929 4.48746 26.1929 4.90167C26.1929 5.31589 25.8571 5.65167 25.4429 5.65167C25.0287 5.65167 24.6929 5.31589 24.6929 4.90167C24.6929 4.48746 25.0287 4.15167 25.4429 4.15167Z" fill="#F5F5F5"/>
<path d="M25.4434 17.8937C25.8576 17.8937 26.1934 18.2295 26.1934 18.6437C26.1934 19.058 25.8576 19.3937 25.4434 19.3937C25.0291 19.3937 24.6934 19.058 24.6934 18.6437C24.6934 18.2295 25.0291 17.8937 25.4434 17.8937Z" fill="#F5F5F5"/>
<path d="M4.83057 17.8937C5.24478 17.8937 5.58057 18.2295 5.58057 18.6437C5.58057 19.058 5.24478 19.3937 4.83057 19.3937C4.41635 19.3937 4.08057 19.058 4.08057 18.6437C4.08057 18.2295 4.41635 17.8937 4.83057 17.8937Z" fill="#F5F5F5"/>
<path d="M25.4429 11.0228C25.8571 11.0228 26.1929 11.3586 26.1929 11.7728C26.1929 12.187 25.8571 12.5228 25.4429 12.5228C25.0287 12.5228 24.6929 12.187 24.6929 11.7728C24.6929 11.3586 25.0287 11.0228 25.4429 11.0228Z" fill="#F5F5F5"/>
<path d="M4.83008 11.0228C5.24429 11.0228 5.58008 11.3586 5.58008 11.7728C5.58008 12.187 5.24429 12.5228 4.83008 12.5228C4.41586 12.5228 4.08008 12.187 4.08008 11.7728C4.08008 11.3586 4.41586 11.0228 4.83008 11.0228Z" fill="#F5F5F5"/>
<path fill-rule="evenodd" clip-rule="evenodd" d="M26.1934 25.6945C26.1934 26.1087 25.8576 26.4445 25.4434 26.4445L4.83081 26.4445C4.4166 26.4445 4.08081 26.1087 4.08081 25.6945C4.08081 25.2802 4.4166 24.9445 4.83081 24.9445L25.4434 24.9445C25.8576 24.9445 26.1934 25.2802 26.1934 25.6945Z" fill="#F5F5F5"/>
</svg>
