<svg width="31" height="31" viewBox="0 0 31 31" fill="none" xmlns="http://www.w3.org/2000/svg">
  <path fill-rule="evenodd" clip-rule="evenodd" d="M24.1928 5.74249H6.08057C5.80442 5.74249 5.58057 5.96635 5.58057 6.24249V24.3547C5.58057 24.6309 5.80442 24.8547 6.08057 24.8547H24.1928C24.4689 24.8547 24.6928 24.6309 24.6928 24.3547V6.24249C24.6928 5.96635 24.4689 5.74249 24.1928 5.74249ZM6.08057 4.24249C4.976 4.24249 4.08057 5.13792 4.08057 6.24249V24.3547C4.08057 25.4593 4.976 26.3547 6.08057 26.3547H24.1928C25.2974 26.3547 26.1928 25.4593 26.1928 24.3547V6.24249C26.1928 5.13792 25.2974 4.24249 24.1928 4.24249H6.08057Z" fill="#F5F5F5" />
</svg>
  