<svg width="25" height="25" viewBox="0 0 25 25" fill="none" xmlns="http://www.w3.org/2000/svg">
  <path d="M14.2938 11.664C14.7193 11.664 15.0642 11.3191 15.0642 10.8936C15.0642 10.4681 14.7193 10.1232 14.2938 10.1232C13.8684 10.1232 13.5234 10.4681 13.5234 10.8936C13.5234 11.3191 13.8684 11.664 14.2938 11.664Z" fill="#F5F5F5" />
  <path d="M9.97939 11.664C10.4049 11.664 10.7498 11.3191 10.7498 10.8936C10.7498 10.4681 10.4049 10.1232 9.97939 10.1232C9.55391 10.1232 9.20898 10.4681 9.20898 10.8936C9.20898 11.3191 9.55391 11.664 9.97939 11.664Z" fill="#F5F5F5" />
  <path fill-rule="evenodd" clip-rule="evenodd" d="M10.0718 3.80285C9.87929 3.43606 9.42593 3.29475 9.05915 3.48722C8.69237 3.67968 8.55106 4.13304 8.74352 4.49983L9.54422 6.02572C8.69287 6.37014 7.91046 6.884 7.24847 7.54598C6.7412 8.05326 6.3209 8.63125 5.99718 9.25678L4.50796 8.39542C4.1494 8.18803 3.69061 8.31058 3.48322 8.66914C3.27584 9.02769 3.39838 9.48648 3.75694 9.69387L5.4515 10.674C5.30145 11.2438 5.22363 11.8351 5.22363 12.4344V12.917H3.2002C2.78598 12.917 2.4502 13.2528 2.4502 13.667C2.4502 14.0812 2.78598 14.417 3.2002 14.417H5.22363V14.8997C5.22363 15.499 5.30146 16.0903 5.45151 16.6601L3.75694 17.6402C3.39838 17.8476 3.27584 18.3064 3.48322 18.665C3.69061 19.0235 4.1494 19.1461 4.50796 18.9387L5.9972 18.0773C6.32092 18.7028 6.74121 19.2808 7.24847 19.7881C8.54496 21.0846 10.3034 21.8129 12.1369 21.8129C13.9704 21.8129 15.7288 21.0846 17.0253 19.7881C17.5325 19.2808 17.9528 18.7028 18.2766 18.0773L19.7659 18.9387C20.1244 19.1461 20.5832 19.0235 20.7906 18.665C20.998 18.3064 20.8754 17.8476 20.5169 17.6402L18.8222 16.6601C18.9723 16.0903 19.0501 15.499 19.0501 14.8997V14.417H21.0736C21.4878 14.417 21.8236 14.0812 21.8236 13.667C21.8236 13.2528 21.4878 12.917 21.0736 12.917H19.0501V12.4344C19.0501 11.8351 18.9723 11.2438 18.8223 10.674L20.5169 9.69387C20.8754 9.48648 20.998 9.02769 20.7906 8.66914C20.5832 8.31058 20.1244 8.18803 19.7659 8.39542L18.2766 9.25681C17.9529 8.63126 17.5326 8.05326 17.0253 7.54598C16.3632 6.88394 15.5807 6.37003 14.7293 6.02561L15.5299 4.49983C15.7224 4.13304 15.5811 3.67968 15.2143 3.48722C14.8475 3.29475 14.3941 3.43606 14.2017 3.80285L13.2525 5.61172C12.886 5.5518 12.513 5.52114 12.1369 5.52114C11.7606 5.52114 11.3876 5.55181 11.021 5.61177L10.0718 3.80285ZM8.30913 8.60664C9.32431 7.59147 10.7012 7.02114 12.1369 7.02114C13.5726 7.02114 14.9494 7.59147 15.9646 8.60664C16.9798 9.62182 17.5501 10.9987 17.5501 12.4344V12.917H6.72363V12.4344C6.72363 10.9987 7.29395 9.62182 8.30913 8.60664ZM17.5501 14.417V14.8997C17.5501 16.3354 16.9798 17.7122 15.9646 18.7274C14.9494 19.7426 13.5726 20.3129 12.1369 20.3129C10.7012 20.3129 9.32431 19.7426 8.30913 18.7274C7.29395 17.7122 6.72363 16.3354 6.72363 14.8997V14.417H17.5501Z" fill="#F5F5F5" />
</svg>
  