<svg width="25" height="25" viewBox="0 0 25 25" fill="none" xmlns="http://www.w3.org/2000/svg">
  <path fill-rule="evenodd" clip-rule="evenodd" d="M11.6064 2.71027C11.8993 2.41738 12.3741 2.41738 12.667 2.71027L17.8213 7.86454C18.1142 8.15744 18.1142 8.63231 17.8213 8.9252C17.5284 9.2181 17.0535 9.2181 16.7606 8.9252L12.1367 4.30126L7.51275 8.9252C7.21986 9.2181 6.74498 9.2181 6.45209 8.9252C6.1592 8.63231 6.1592 8.15744 6.45209 7.86454L11.6064 2.71027Z" fill="#F5F5F5" />
  <path fill-rule="evenodd" clip-rule="evenodd" d="M11.6064 22.0795C11.8993 22.3724 12.3741 22.3724 12.667 22.0795L17.8213 16.9252C18.1142 16.6323 18.1142 16.1574 17.8213 15.8645C17.5284 15.5716 17.0535 15.5716 16.7606 15.8645L12.1367 20.4885L7.51275 15.8645C7.21986 15.5716 6.74498 15.5716 6.45209 15.8645C6.1592 16.1574 6.1592 16.6323 6.45209 16.9252L11.6064 22.0795Z" fill="#F5F5F5" />
</svg>
  