<svg width="25" height="25" viewBox="0 0 25 25" fill="none" xmlns="http://www.w3.org/2000/svg">
  <path fill-rule="evenodd" clip-rule="evenodd" d="M2.82608 3.76174C3.10739 3.48044 3.48892 3.3224 3.88674 3.3224H20.3867C20.7846 3.3224 21.1661 3.48044 21.4474 3.76174C21.7287 4.04305 21.8867 4.42458 21.8867 4.8224V16.8224C21.8867 17.2202 21.7287 17.6018 21.4474 17.8831C21.1661 18.1644 20.7846 18.3224 20.3867 18.3224H7.87828L7.87407 18.326L4.84588 20.8572L4.84302 20.8596C4.62449 21.0404 4.35917 21.1556 4.07782 21.1917C3.79648 21.2279 3.51066 21.1835 3.25353 21.0638C2.99639 20.944 2.77847 20.7538 2.62505 20.5153C2.47164 20.2767 2.38901 19.9995 2.38677 19.7158L2.38672 19.7099L2.38674 4.8224C2.38674 4.42458 2.54478 4.04305 2.82608 3.76174ZM20.3867 4.8224L3.88674 4.8224V19.7039L6.90803 17.1784C7.17624 16.9488 7.51771 16.8225 7.87093 16.8224H20.3867V4.8224Z" fill="#F5F5F5" />
  <path d="M12.1367 11.7599C12.6545 11.7599 13.0742 11.3402 13.0742 10.8224C13.0742 10.3046 12.6545 9.8849 12.1367 9.8849C11.619 9.8849 11.1992 10.3046 11.1992 10.8224C11.1992 11.3402 11.619 11.7599 12.1367 11.7599Z" fill="#F5F5F5" />
  <path d="M16.6367 11.7599C17.1545 11.7599 17.5742 11.3402 17.5742 10.8224C17.5742 10.3046 17.1545 9.8849 16.6367 9.8849C16.119 9.8849 15.6992 10.3046 15.6992 10.8224C15.6992 11.3402 16.119 11.7599 16.6367 11.7599Z" fill="#F5F5F5" />
  <path d="M7.63672 11.7599C8.15449 11.7599 8.57422 11.3402 8.57422 10.8224C8.57422 10.3046 8.15449 9.8849 7.63672 9.8849C7.11895 9.8849 6.69922 10.3046 6.69922 10.8224C6.69922 11.3402 7.11895 11.7599 7.63672 11.7599Z" fill="#F5F5F5" />
</svg>
  