<svg width="31" height="31" viewBox="0 0 31 31" fill="none" xmlns="http://www.w3.org/2000/svg">
<path fill-rule="evenodd" clip-rule="evenodd" d="M21.6523 11.5636C22.0335 11.9632 22.0186 12.5962 21.619 12.9775L13.7812 20.4547C13.3946 20.8236 12.7863 20.8233 12.4 20.4541L8.48783 16.7155C8.08854 16.3339 8.07418 15.7009 8.45575 15.3017C8.83732 14.9024 9.47032 14.888 9.8696 15.2696L13.0915 18.3485L20.2384 11.5304C20.638 11.1491 21.271 11.164 21.6523 11.5636Z" fill="#F5F5F5"/>
<path fill-rule="evenodd" clip-rule="evenodd" d="M4.37189 4.4585C4.19617 4.4585 4.05371 4.60095 4.05371 4.77668V26.1403C4.05371 26.316 4.19617 26.4585 4.37189 26.4585H25.7355C25.9113 26.4585 26.0537 26.316 26.0537 26.1403V4.77668C26.0537 4.60095 25.9113 4.4585 25.7355 4.4585H4.37189ZM2.55371 4.77668C2.55371 3.77252 3.36774 2.9585 4.37189 2.9585H25.7355C26.7397 2.9585 27.5537 3.77252 27.5537 4.77668V26.1403C27.5537 27.1445 26.7397 27.9585 25.7355 27.9585H4.37189C3.36774 27.9585 2.55371 27.1445 2.55371 26.1403V4.77668Z" fill="#F5F5F5"/>
</svg>
