<svg width="25" height="24" viewBox="0 0 25 24" fill="none" xmlns="http://www.w3.org/2000/svg">
  <path fill-rule="evenodd" clip-rule="evenodd" d="M17.6245 7.57283C17.9174 7.27994 17.9174 6.80507 17.6245 6.51217C17.3316 6.21928 16.8567 6.21928 16.5638 6.51217L12.1367 10.9393L7.70953 6.51217C7.41664 6.21928 6.94176 6.21928 6.64887 6.51217C6.35598 6.80507 6.35598 7.27994 6.64887 7.57283L11.076 12L6.64887 16.4272C6.35598 16.72 6.35598 17.1949 6.64887 17.4878C6.94176 17.7807 7.41664 17.7807 7.70953 17.4878L12.1367 13.0607L16.5638 17.4878C16.8567 17.7807 17.3316 17.7807 17.6245 17.4878C17.9174 17.1949 17.9174 16.72 17.6245 16.4272L13.1973 12L17.6245 7.57283Z" fill="#F5F5F5" />
</svg>
  