<svg width="24" height="24" viewBox="0 0 24 24" fill="none" xmlns="http://www.w3.org/2000/svg">
  <path d="M6.16495 9.7121C6.16495 10.1434 6.51455 10.493 6.9458 10.493C7.37706 10.493 7.72666 10.1434 7.72666 9.7121H6.16495ZM8.20978 5.54532L7.56052 5.1115L7.56052 5.1115L8.20978 5.54532ZM15.909 2.35621L16.0613 1.59036L16.0613 1.59036L15.909 2.35621ZM19.7491 4.4088L20.3012 3.85665L20.3012 3.85665L19.7491 4.4088ZM20.6535 12.2834C20.4884 12.6818 20.6776 13.1386 21.0761 13.3036C21.4745 13.4687 21.9313 13.2795 22.0963 12.881L20.6535 12.2834ZM2.48349 15.6744L1.93134 16.2266L1.93134 16.2266L2.48349 15.6744ZM2.48349 8.24979L1.93134 7.69764L1.93134 7.69764L2.48349 8.24979ZM6.1958 6.7121L6.1958 7.49296L6.19609 7.49296L6.1958 6.7121ZM7.31046 7.62924C7.72896 7.73333 8.15261 7.47845 8.25669 7.05995C8.36078 6.64144 8.1059 6.2178 7.6874 6.11371L7.31046 7.62924ZM7.48982 17.993C7.92108 17.993 8.27068 17.6434 8.27068 17.2121C8.27068 16.7808 7.92108 16.4312 7.48982 16.4312V17.993ZM12.3221 19.1264C12.3221 19.5577 12.6717 19.9073 13.1029 19.9073C13.5342 19.9073 13.8838 19.5577 13.8838 19.1264H12.3221ZM13.1029 10.9289L12.3251 10.8598L12.3221 10.8943V10.9289H13.1029ZM15.1309 9.00081L15.1309 9.78176L15.143 9.78157L15.1309 9.00081ZM16.3632 10.1673C16.7193 10.4106 17.2052 10.3192 17.4485 9.96309C17.6918 9.60702 17.6003 9.12114 17.2442 8.87785L16.3632 10.1673ZM11 12.9075C10.5687 12.9075 10.2191 13.2571 10.2191 13.6884C10.2191 14.1196 10.5687 14.4692 11 14.4692V12.9075ZM17 14.4692C17.4313 14.4692 17.7809 14.1196 17.7809 13.6884C17.7809 13.2571 17.4313 12.9075 17 12.9075V14.4692ZM7.72666 9.7121C7.72666 8.38318 8.12073 7.0841 8.85904 5.97914L7.56052 5.1115C6.65061 6.47328 6.16495 8.0743 6.16495 9.7121H7.72666ZM8.85904 5.97914C9.59735 4.87419 10.6467 4.01298 11.8745 3.50442L11.2769 2.06159C9.76373 2.68835 8.47043 3.74972 7.56052 5.1115L8.85904 5.97914ZM11.8745 3.50442C13.1023 2.99586 14.4533 2.8628 15.7566 3.12206L16.0613 1.59036C14.455 1.27084 12.79 1.43483 11.2769 2.06159L11.8745 3.50442ZM15.7566 3.12206C17.06 3.38132 18.2573 4.02126 19.197 4.96095L20.3012 3.85665C19.1432 2.69855 17.6676 1.90988 16.0613 1.59036L15.7566 3.12206ZM19.197 4.96095C20.1366 5.90064 20.7766 7.09787 21.0358 8.40126L22.5675 8.09659C22.248 6.49026 21.4593 5.01475 20.3012 3.85665L19.197 4.96095ZM21.0358 8.40126C21.2951 9.70465 21.162 11.0556 20.6535 12.2834L22.0963 12.881C22.7231 11.3679 22.8871 9.70292 22.5675 8.09659L21.0358 8.40126ZM6.1958 16.4312C5.01051 16.4312 3.87377 15.9604 3.03564 15.1223L1.93134 16.2266C3.06235 17.3576 4.59632 17.993 6.1958 17.993V16.4312ZM3.03564 15.1223C2.19751 14.2841 1.72666 13.1474 1.72666 11.9621H0.164946C0.164946 13.5616 0.800338 15.0956 1.93134 16.2266L3.03564 15.1223ZM1.72666 11.9621C1.72666 10.7768 2.19751 9.64007 3.03564 8.80194L1.93134 7.69764C0.800337 8.82865 0.164946 10.3626 0.164946 11.9621H1.72666ZM3.03564 8.80194C3.87377 7.96381 5.01051 7.49296 6.1958 7.49296V5.93125C4.59632 5.93125 3.06235 6.56664 1.93134 7.69764L3.03564 8.80194ZM6.19609 7.49296C6.57171 7.49281 6.94594 7.53858 7.31046 7.62924L7.6874 6.11371C7.19939 5.99233 6.69838 5.93106 6.19551 5.93125L6.19609 7.49296ZM7.48982 16.4312H6.1958V17.993H7.48982V16.4312ZM13.8838 19.1264V13.6884H12.3221V19.1264H13.8838ZM13.8838 13.6884V10.9289H12.3221V13.6884H13.8838ZM13.8807 10.9981C13.9215 10.5396 14.0001 10.2615 14.1349 10.0918C14.2312 9.97051 14.4554 9.78166 15.1309 9.78166V8.21995C14.1388 8.21995 13.3915 8.51685 12.912 9.12045C12.471 9.67566 12.3694 10.3616 12.3251 10.8598L13.8807 10.9981ZM15.143 9.78157C15.4023 9.77756 15.5773 9.79741 15.7385 9.84506C15.9011 9.89314 16.0924 9.98228 16.3632 10.1673L17.2442 8.87785C16.8831 8.6311 16.5439 8.45463 16.1811 8.3474C15.8169 8.23974 15.4714 8.21459 15.1188 8.22005L15.143 9.78157ZM11 14.4692H13.1029V12.9075H11V14.4692ZM13.1029 14.4692H17V12.9075H13.1029V14.4692Z" fill="#F5F5F5" />
</svg>
  