<svg width="25" height="25" viewBox="0 0 25 25" fill="none" xmlns="http://www.w3.org/2000/svg">
  <path fill-rule="evenodd" clip-rule="evenodd" d="M16.5434 6.17798C15.234 5.91753 13.8769 6.0512 12.6434 6.5621C11.41 7.07299 10.3558 7.93815 9.61414 9.04818C8.87244 10.1582 8.47656 11.4633 8.47656 12.7983C8.47656 13.2125 8.14078 13.5483 7.72656 13.5483C7.31235 13.5483 6.97656 13.2125 6.97656 12.7983C6.97656 12.0369 7.08192 11.2835 7.28642 10.5585C7.18344 10.5517 7.0802 10.5482 6.97684 10.5483H6.97656C5.78309 10.5483 4.6385 11.0224 3.79458 11.8663C2.95067 12.7102 2.47656 13.8548 2.47656 15.0483C2.47656 16.2418 2.95067 17.3863 3.79458 18.2303C4.6385 19.0742 5.78309 19.5483 6.97656 19.5483H15.2266C16.5616 19.5483 17.8666 19.1524 18.9767 18.4107C20.0867 17.669 20.9519 16.6148 21.4627 15.3814C21.9736 14.148 22.1073 12.7908 21.8469 11.4814C21.5864 10.1721 20.9435 8.96932 19.9995 8.02531C19.0555 7.08131 17.8528 6.43843 16.5434 6.17798ZM7.84692 9.10999C8.00079 8.80213 8.17432 8.5031 8.36694 8.21483C9.27346 6.85812 10.5619 5.8007 12.0694 5.17628C13.5769 4.55185 15.2357 4.38848 16.8361 4.7068C18.4364 5.02513 19.9064 5.81087 21.0602 6.96465C22.214 8.11843 22.9997 9.58844 23.318 11.1888C23.6364 12.7891 23.473 14.4479 22.8486 15.9554C22.2241 17.4629 21.1667 18.7514 19.81 19.6579C18.4533 20.5644 16.8583 21.0483 15.2266 21.0483H6.97656C5.38526 21.0483 3.85914 20.4161 2.73392 19.2909C1.6087 18.1657 0.976562 16.6396 0.976562 15.0483C0.976562 13.457 1.6087 11.9309 2.73392 10.8056C3.85907 9.68049 5.38508 9.04836 6.97628 9.04828M7.84692 9.10999C7.55889 9.06885 7.26804 9.04819 6.97656 9.04828L7.84692 9.10999Z" fill="#F5F5F5" />
  <path fill-rule="evenodd" clip-rule="evenodd" d="M18.0804 11.0897C18.3733 11.3826 18.3733 11.8575 18.0804 12.1504L14.2036 16.0272C14.0629 16.1678 13.8722 16.2468 13.6733 16.2468C13.4744 16.2468 13.2836 16.1678 13.1429 16.0272L11.2045 14.0888C10.9116 13.7959 10.9116 13.321 11.2045 13.0281C11.4974 12.7352 11.9723 12.7352 12.2652 13.0281L13.6733 14.4362L17.0197 11.0897C17.3126 10.7968 17.7875 10.7968 18.0804 11.0897Z" fill="#F5F5F5" />
</svg>
  