<svg width="25" height="25" viewBox="0 0 25 25" fill="none" xmlns="http://www.w3.org/2000/svg">
  <path fill-rule="evenodd" clip-rule="evenodd" d="M4.42041 9.21582C4.42041 7.75708 5.60295 6.57454 7.06169 6.57454C8.52044 6.57454 9.70298 7.75708 9.70298 9.21582C9.70298 10.6746 8.52044 11.8571 7.06169 11.8571C5.60295 11.8571 4.42041 10.6746 4.42041 9.21582ZM7.06169 5.07454C4.77453 5.07454 2.92041 6.92866 2.92041 9.21582C2.92041 10.6749 3.675 11.9578 4.81523 12.6954C2.39082 13.5676 0.621011 15.8112 0.441134 18.4909C0.395088 19.1769 0.954465 19.6912 1.57607 19.6912H12.532H12.5474H22.6973C23.3189 19.6912 23.8783 19.1769 23.8323 18.4909C23.6524 15.8114 21.8828 13.5679 19.4587 12.6956C20.5991 11.958 21.3539 10.6751 21.3539 9.21582C21.3539 6.92866 19.4997 5.07454 17.2126 5.07454C14.9254 5.07454 13.0713 6.92866 13.0713 9.21582C13.0713 10.6748 13.8258 11.9576 14.9659 12.6953C13.8554 13.0947 12.8824 13.7818 12.1367 14.666C11.3909 13.7815 10.4182 13.0947 9.30817 12.6954C10.4484 11.9578 11.203 10.6749 11.203 9.21582C11.203 6.92866 9.34886 5.07454 7.06169 5.07454ZM22.293 18.1912H13.6554C13.5673 17.4086 13.3431 16.6672 13.0071 15.9913C13.9373 14.6681 15.4741 13.8056 17.2117 13.8056C19.7932 13.8056 21.9303 15.7107 22.293 18.1912ZM7.06172 13.8056C9.64324 13.8056 11.7804 15.7107 12.1431 18.1912H1.98036C2.34308 15.7107 4.4802 13.8056 7.06172 13.8056ZM14.5713 9.21582C14.5713 7.75708 15.7538 6.57454 17.2126 6.57454C18.6713 6.57454 19.8539 7.75708 19.8539 9.21582C19.8539 10.6746 18.6713 11.8571 17.2126 11.8571C15.7538 11.8571 14.5713 10.6746 14.5713 9.21582Z" fill="#F5F5F5" />
</svg>
  