<svg width="24" height="25" viewBox="0 0 24 25" fill="none" xmlns="http://www.w3.org/2000/svg">
<path fill-rule="evenodd" clip-rule="evenodd" d="M3.75 5.41052C3.75 4.99631 4.08579 4.66052 4.5 4.66052H10.5C10.9142 4.66052 11.25 4.99631 11.25 5.41052V11.4105C11.25 11.8247 10.9142 12.1605 10.5 12.1605H4.5C4.08579 12.1605 3.75 11.8247 3.75 11.4105V5.41052ZM5.25 6.16052V10.6605H9.75V6.16052H5.25Z" fill="#B8B8B8"/>
<path fill-rule="evenodd" clip-rule="evenodd" d="M12.75 5.41052C12.75 4.99631 13.0858 4.66052 13.5 4.66052H19.5C19.9142 4.66052 20.25 4.99631 20.25 5.41052V11.4105C20.25 11.8247 19.9142 12.1605 19.5 12.1605H13.5C13.0858 12.1605 12.75 11.8247 12.75 11.4105V5.41052ZM14.25 6.16052V10.6605H18.75V6.16052H14.25Z" fill="#B8B8B8"/>
<path fill-rule="evenodd" clip-rule="evenodd" d="M3.75 14.4105C3.75 13.9963 4.08579 13.6605 4.5 13.6605H10.5C10.9142 13.6605 11.25 13.9963 11.25 14.4105V20.4105C11.25 20.8247 10.9142 21.1605 10.5 21.1605H4.5C4.08579 21.1605 3.75 20.8247 3.75 20.4105V14.4105ZM5.25 15.1605V19.6605H9.75V15.1605H5.25Z" fill="#B8B8B8"/>
<path fill-rule="evenodd" clip-rule="evenodd" d="M12.75 14.4105C12.75 13.9963 13.0858 13.6605 13.5 13.6605H19.5C19.9142 13.6605 20.25 13.9963 20.25 14.4105V20.4105C20.25 20.8247 19.9142 21.1605 19.5 21.1605H13.5C13.0858 21.1605 12.75 20.8247 12.75 20.4105V14.4105ZM14.25 15.1605V19.6605H18.75V15.1605H14.25Z" fill="#B8B8B8"/>
</svg>
