<svg width="24" height="24" viewBox="0 0 24 24" fill="none" xmlns="http://www.w3.org/2000/svg">
<path fill-rule="evenodd" clip-rule="evenodd" d="M21.4858 16.2648C21.4858 16.7927 21.0579 17.2207 20.5299 17.2207H12H3.4707C2.94276 17.2207 2.51478 16.7927 2.51478 16.2648V14.4559H21.4858V16.2648ZM12.75 18.7207H20.5299C21.8863 18.7207 22.9858 17.6212 22.9858 16.2648V4.32335C22.9858 2.96698 21.8863 1.86743 20.5299 1.86743H3.4707C2.11433 1.86743 1.01478 2.96698 1.01478 4.32335V13.6751C1.01437 13.6853 1.01416 13.6956 1.01416 13.7059C1.01416 13.7162 1.01437 13.7265 1.01478 13.7367V16.2648C1.01478 17.6212 2.11433 18.7207 3.4707 18.7207H11.25V20.6326H8.58838C8.17417 20.6326 7.83838 20.9683 7.83838 21.3826C7.83838 21.7968 8.17417 22.1326 8.58838 22.1326H11.9966C11.9977 22.1326 11.9989 22.1326 12 22.1326C12.0011 22.1326 12.0023 22.1326 12.0034 22.1326H15.4121C15.8263 22.1326 16.1621 21.7968 16.1621 21.3826C16.1621 20.9683 15.8263 20.6326 15.4121 20.6326H12.75V18.7207ZM2.51478 4.32335V12.9559H21.4858V4.32335C21.4858 3.79541 21.0579 3.36743 20.5299 3.36743H3.4707C2.94276 3.36743 2.51478 3.79541 2.51478 4.32335Z" fill="#F5F5F5"/>
</svg>
