<svg width="31" height="30" viewBox="0 0 31 30" fill="none" xmlns="http://www.w3.org/2000/svg">
<path d="M18.4189 11.2185C18.6951 11.2185 18.9189 11.4424 18.9189 11.7185L18.9189 18.2821C18.9189 18.5582 18.6951 18.7821 18.4189 18.7821L11.8554 18.7821C11.5792 18.7821 11.3554 18.5582 11.3554 18.2821L11.3554 11.7185C11.3554 11.4424 11.5792 11.2185 11.8554 11.2185L18.4189 11.2185Z" fill="#F5F5F5"/>
<path fill-rule="evenodd" clip-rule="evenodd" d="M24.7803 12.0027C25.0732 12.2956 25.0732 12.7705 24.7803 13.0634L22.8437 15L24.7803 16.9366C25.0732 17.2295 25.0732 17.7044 24.7803 17.9973C24.4874 18.2902 24.0126 18.2902 23.7197 17.9973L21.2527 15.5303C20.9598 15.2374 20.9598 14.7626 21.2527 14.4697L23.7197 12.0027C24.0126 11.7098 24.4874 11.7098 24.7803 12.0027Z" fill="#F5F5F5"/>
<path fill-rule="evenodd" clip-rule="evenodd" d="M28.8096 15.0002C28.8096 15.4145 28.4738 15.7502 28.0596 15.7502L21.7832 15.7502C21.369 15.7502 21.0332 15.4145 21.0332 15.0002C21.0332 14.586 21.369 14.2502 21.7832 14.2502L28.0596 14.2502C28.4738 14.2502 28.8096 14.586 28.8096 15.0002Z" fill="#F5F5F5"/>
<path fill-rule="evenodd" clip-rule="evenodd" d="M4.94623 12.0027C4.65334 12.2956 4.65334 12.7705 4.94623 13.0634L6.88287 15L4.94623 16.9366C4.65334 17.2295 4.65334 17.7044 4.94623 17.9973C5.23913 18.2902 5.714 18.2902 6.00689 17.9973L8.47386 15.5303C8.76676 15.2374 8.76676 14.7626 8.47386 14.4697L6.00689 12.0027C5.714 11.7098 5.23913 11.7098 4.94623 12.0027Z" fill="#F5F5F5"/>
<path fill-rule="evenodd" clip-rule="evenodd" d="M0.916992 15.0002C0.916992 15.4145 1.25278 15.7502 1.66699 15.7502L7.94339 15.7502C8.3576 15.7502 8.69339 15.4145 8.69339 15.0002C8.69339 14.586 8.3576 14.2502 7.94339 14.2502L1.66699 14.2502C1.25278 14.2502 0.916992 14.586 0.916992 15.0002Z" fill="#F5F5F5"/>
<path fill-rule="evenodd" clip-rule="evenodd" d="M17.8604 24.917C17.5675 25.2099 17.0926 25.2099 16.7997 24.917L14.8631 22.9803L12.9265 24.917C12.6336 25.2099 12.1587 25.2099 11.8658 24.917C11.5729 24.6241 11.5729 24.1492 11.8658 23.8563L14.3328 21.3894C14.6257 21.0965 15.1005 21.0965 15.3934 21.3894L17.8604 23.8563C18.1533 24.1492 18.1533 24.6241 17.8604 24.917Z" fill="#F5F5F5"/>
<path fill-rule="evenodd" clip-rule="evenodd" d="M14.8633 28.9459C14.4491 28.9459 14.1133 28.6101 14.1133 28.1959L14.1133 21.9195C14.1133 21.5053 14.4491 21.1695 14.8633 21.1695C15.2775 21.1695 15.6133 21.5053 15.6133 21.9195L15.6133 28.1959C15.6133 28.6101 15.2775 28.9459 14.8633 28.9459Z" fill="#F5F5F5"/>
<path fill-rule="evenodd" clip-rule="evenodd" d="M17.8604 5.08326C17.5675 4.79036 17.0926 4.79036 16.7997 5.08326L14.8631 7.0199L12.9265 5.08326C12.6336 4.79036 12.1587 4.79036 11.8658 5.08326C11.5729 5.37615 11.5729 5.85102 11.8658 6.14392L14.3328 8.61089C14.6257 8.90378 15.1005 8.90378 15.3934 8.61089L17.8604 6.14392C18.1533 5.85102 18.1533 5.37615 17.8604 5.08326Z" fill="#F5F5F5"/>
<path fill-rule="evenodd" clip-rule="evenodd" d="M14.8633 1.05414C14.4491 1.05414 14.1133 1.38992 14.1133 1.80414L14.1133 8.08053C14.1133 8.49475 14.4491 8.83053 14.8633 8.83053C15.2775 8.83053 15.6133 8.49475 15.6133 8.08053L15.6133 1.80414C15.6133 1.38992 15.2775 1.05414 14.8633 1.05414Z" fill="#F5F5F5"/>
</svg>
