<svg width="25" height="24" viewBox="0 0 25 24" fill="none" xmlns="http://www.w3.org/2000/svg">
  <path d="M12.1368 6.80722C13.0351 6.80722 13.7634 6.07898 13.7634 5.18066C13.7634 4.28233 13.0351 3.55409 12.1368 3.55409C11.2385 3.55409 10.5103 4.28233 10.5103 5.18066C10.5103 6.07898 11.2385 6.80722 12.1368 6.80722Z" fill="#F5F5F5" />
  <path d="M12.1368 13.6266C13.0351 13.6266 13.7634 12.8983 13.7634 12C13.7634 11.1017 13.0351 10.3734 12.1368 10.3734C11.2385 10.3734 10.5103 11.1017 10.5103 12C10.5103 12.8983 11.2385 13.6266 12.1368 13.6266Z" fill="#F5F5F5" />
  <path d="M12.1368 20.4459C13.0351 20.4459 13.7634 19.7177 13.7634 18.8193C13.7634 17.921 13.0351 17.1928 12.1368 17.1928C11.2385 17.1928 10.5103 17.921 10.5103 18.8193C10.5103 19.7177 11.2385 20.4459 12.1368 20.4459Z" fill="#F5F5F5" />
</svg>
  