<svg width="31" height="31" viewBox="0 0 31 31" fill="none" xmlns="http://www.w3.org/2000/svg">
<path fill-rule="evenodd" clip-rule="evenodd" d="M4.30713 10.7355H25.8038C26.356 10.7355 26.8038 11.1832 26.8038 11.7355V19.1085C26.8038 19.6607 26.356 20.1817 25.8038 20.1817H4.30713C3.75484 20.1817 3.30713 19.6607 3.30713 19.1085V11.7355C3.30713 11.1832 3.75484 10.7355 4.30713 10.7355ZM24.6272 14.7051L22.0597 17.2726C21.7668 17.5655 21.2919 17.5655 20.999 17.2726L18.4315 14.7051C18.1386 14.4122 18.1386 13.9373 18.4315 13.6445C18.7244 13.3516 19.1993 13.3516 19.4922 13.6445L21.5294 15.6816L23.5666 13.6445C23.8595 13.3516 24.3343 13.3516 24.6272 13.6445C24.9201 13.9373 24.9201 14.4122 24.6272 14.7051Z" fill="#F5F5F5"/>
</svg>
