<svg width="24" height="24" viewBox="0 0 24 24" fill="none" xmlns="http://www.w3.org/2000/svg">
<path fill-rule="evenodd" clip-rule="evenodd" d="M3.43934 3.43934C3.72064 3.15804 4.10217 3 4.5 3H10C10.4142 3 10.75 3.33579 10.75 3.75C10.75 4.16421 10.4142 4.5 10 4.5L4.5 4.5L4.5 19.5H19.5V14C19.5 13.5858 19.8358 13.25 20.25 13.25C20.6642 13.25 21 13.5858 21 14V19.5C21 19.8978 20.842 20.2794 20.5607 20.5607C20.2794 20.842 19.8978 21 19.5 21H4.5C4.10218 21 3.72065 20.842 3.43934 20.5607C3.15804 20.2794 3 19.8978 3 19.5V4.5C3 4.10217 3.15804 3.72064 3.43934 3.43934ZM14.6563 3.03423L20.2248 3.03423C20.4237 3.03423 20.6145 3.11324 20.7551 3.2539C20.8958 3.39455 20.9748 3.58531 20.9748 3.78423V9.35269C20.9748 9.76691 20.639 10.1027 20.2248 10.1027C19.8106 10.1027 19.4748 9.76691 19.4748 9.35269V5.59348L12.53 12.5306C12.237 12.8234 11.7621 12.8231 11.4694 12.53C11.1766 12.237 11.1769 11.7621 11.47 11.4694L18.4127 4.53423L14.6563 4.53423C14.2421 4.53423 13.9063 4.19844 13.9063 3.78423C13.9063 3.37001 14.2421 3.03423 14.6563 3.03423Z" fill="#F5F5F5"/>
</svg>
