<svg width="24" height="25" viewBox="0 0 24 25" fill="none" xmlns="http://www.w3.org/2000/svg">
<path fill-rule="evenodd" clip-rule="evenodd" d="M14 2.80719L5.7 2.80721V3.55721L5.7 2.80721C5.29808 2.80722 4.92403 2.97875 4.65673 3.26515C4.39107 3.54979 4.25 3.92545 4.25 4.30721V20.8072C4.25 21.189 4.39107 21.5646 4.65673 21.8493C4.92404 22.1357 5.29809 22.3072 5.7 22.3072H18.3C18.7019 22.3072 19.076 22.1357 19.3433 21.8493C19.6089 21.5646 19.75 21.189 19.75 20.8072V8.55721C19.75 8.3583 19.671 8.16754 19.5303 8.02689L14.5303 3.02686C14.3897 2.88621 14.1989 2.80719 14 2.80719ZM8.32324 11.5701C8.32324 11.1007 8.7038 10.7201 9.17324 10.7201H14.8271C15.2965 10.7201 15.6771 11.1007 15.6771 11.5701C15.6771 12.0395 15.2965 12.4201 14.8271 12.4201H9.17324C8.7038 12.4201 8.32324 12.0395 8.32324 11.5701ZM8.32324 15.5701C8.32324 15.1007 8.7038 14.7201 9.17324 14.7201H14.8271C15.2965 14.7201 15.6771 15.1007 15.6771 15.5701C15.6771 16.0395 15.2965 16.4201 14.8271 16.4201H9.17324C8.7038 16.4201 8.32324 16.0395 8.32324 15.5701Z" fill="#B8B8B8"/>
</svg>
