<svg width="25" height="25" viewBox="0 0 25 25" fill="none" xmlns="http://www.w3.org/2000/svg">
  <path d="M20.1711 8.1105L14.9211 2.8605C14.7782 2.7212 14.5863 2.64375 14.3867 2.64487H5.38672C4.98889 2.64487 4.60736 2.80291 4.32606 3.08421C4.04475 3.36552 3.88672 3.74705 3.88672 4.14487V20.6449C3.88672 21.0427 4.04475 21.4242 4.32606 21.7055C4.60736 21.9868 4.98889 22.1449 5.38672 22.1449H18.8867C19.2845 22.1449 19.6661 21.9868 19.9474 21.7055C20.2287 21.4242 20.3867 21.0427 20.3867 20.6449V8.64487C20.3878 8.44533 20.3104 8.25337 20.1711 8.1105ZM14.3867 8.64487V4.51987L18.5117 8.64487H14.3867Z" fill="#F5F5F5" />
</svg>
  