<svg width="25" height="25" viewBox="0 0 25 25" fill="none" xmlns="http://www.w3.org/2000/svg">
  <path fill-rule="evenodd" clip-rule="evenodd" d="M3.2819 5.85688C3.2819 5.83482 3.28948 5.81974 3.2948 5.81273L8.26721 5.81273L10.8693 7.87421L10.8711 7.87561C11.1295 8.07911 11.4486 8.19371 11.7818 8.19516L11.785 8.19517L18.269 8.19517C18.2743 8.20218 18.2819 8.21725 18.2819 8.23931L18.2819 10.6218C18.2819 10.6694 18.2864 10.7161 18.2949 10.7613L6.07219 10.7613C5.75219 10.7613 5.45219 10.8513 5.20219 11.0313C4.94219 11.2113 4.75219 11.4713 4.65219 11.7613L3.2819 15.7027L3.2819 5.85688ZM1.78259 20.184C1.79959 20.5831 2.12857 20.9015 2.5319 20.9015C2.53788 20.9015 2.54384 20.9014 2.54978 20.9013L19.0322 20.9013C19.3522 20.9013 19.6322 20.7013 19.7422 20.4013L22.4122 12.7013C22.4922 12.4813 22.5122 12.2413 22.4722 12.0013C22.4422 11.7713 22.3422 11.5513 22.2022 11.3613C22.0622 11.1813 21.8722 11.0213 21.6622 10.9213C21.4522 10.8113 21.2222 10.7613 20.9922 10.7613L19.7689 10.7613C19.7775 10.7161 19.7819 10.6694 19.7819 10.6218L19.7819 8.23931C19.7819 7.84318 19.6337 7.45525 19.3575 7.16281C19.0799 6.86891 18.694 6.69517 18.2819 6.69517L11.7966 6.69517L9.19451 4.63369L9.19274 4.63229C8.93428 4.42879 8.61522 4.31418 8.28204 4.31273L3.2819 4.31273C2.86978 4.31273 2.48386 4.48648 2.2063 4.78037C1.93012 5.07282 1.7819 5.46074 1.7819 5.85688L1.7819 20.1155C1.78107 20.1383 1.7813 20.1612 1.78259 20.184ZM18.5022 19.4013L3.59219 19.4013L6.08219 12.2613L21.0022 12.2113L18.5022 19.4013Z" fill="#F5F5F5" />
</svg>
  