<svg width="31" height="31" viewBox="0 0 31 31" fill="none" xmlns="http://www.w3.org/2000/svg">
<path d="M18.2888 13.0822C17.3611 13.0822 16.6089 12.3301 16.6089 11.4023C16.6089 10.4745 17.3611 9.72241 18.2888 9.72241C19.2166 9.72241 19.9688 10.4745 19.9688 11.4023C19.9688 12.3301 19.2166 13.0822 18.2888 13.0822Z" fill="#F5F5F5"/>
<path fill-rule="evenodd" clip-rule="evenodd" d="M4.8042 5.60229C4.8042 5.46422 4.91613 5.35229 5.0542 5.35229H25.0542C25.1923 5.35229 25.3042 5.46422 25.3042 5.60229V21.3411L22.2517 18.5885C21.9312 18.2995 21.4508 18.2786 21.1065 18.5387L18.2453 20.7004C17.9736 20.9056 17.5944 20.8884 17.3425 20.6595L10.7908 14.7068C10.439 14.3872 9.89938 14.3962 9.55847 14.7273L4.8042 19.3454V5.60229ZM5.0542 3.85229C4.0877 3.85229 3.3042 4.6358 3.3042 5.60229V25.6023C3.3042 26.5688 4.0877 27.3523 5.0542 27.3523H25.0542C26.0207 27.3523 26.8042 26.5688 26.8042 25.6023V5.60229C26.8042 4.6358 26.0207 3.85229 25.0542 3.85229H5.0542Z" fill="#F5F5F5"/>
</svg>
