<svg width="25" height="25" viewBox="0 0 25 25" fill="none" xmlns="http://www.w3.org/2000/svg">
  <path fill-rule="evenodd" clip-rule="evenodd" d="M10.6367 4.10107C10.6367 4.51529 10.3009 4.85107 9.88672 4.85107L4.63672 4.85108L4.63672 19.8511L9.88672 19.8511C10.3009 19.8511 10.6367 20.1869 10.6367 20.6011C10.6367 21.0153 10.3009 21.3511 9.88672 21.3511L4.63672 21.3511C4.2389 21.3511 3.85737 21.193 3.57606 20.9117C3.29475 20.6304 3.13672 20.2489 3.13672 19.8511L3.13672 4.85108C3.13672 4.45325 3.29475 4.07172 3.57606 3.79042C3.85736 3.50911 4.23889 3.35108 4.63672 3.35108L9.88672 3.35107C10.3009 3.35107 10.6367 3.68686 10.6367 4.10107Z" fill="#F5F5F5" />
  <path fill-rule="evenodd" clip-rule="evenodd" d="M14.3567 16.8261C14.6467 16.5361 14.6467 16.0561 14.3567 15.7661L11.6967 13.1061L20.3867 13.1061C20.7967 13.1061 21.1367 12.7661 21.1367 12.3561C21.1367 11.9461 20.7967 11.6061 20.3867 11.6061L11.6967 11.6061L14.3567 8.94608C14.6467 8.65608 14.6467 8.17608 14.3567 7.88608C14.0667 7.59608 13.5867 7.59608 13.2967 7.88608L9.35672 11.8261C9.28672 11.8961 9.23672 11.9761 9.19672 12.0661C9.11672 12.2461 9.11672 12.4561 9.19672 12.6361C9.23672 12.7261 9.28672 12.8061 9.35672 12.8761L13.2967 16.8161C13.5867 17.1061 14.0667 17.1061 14.3567 16.8161L14.3567 16.8261Z" fill="#F5F5F5" />
</svg>
  