<svg width="25" height="25" viewBox="0 0 25 25" fill="none" xmlns="http://www.w3.org/2000/svg">
  <path d="M8.26953 18.4106L17.457 18.4106C17.8195 18.4106 18.1133 18.1548 18.1133 17.8392L18.1133 14.9821C18.1133 14.6665 17.8195 14.4106 17.457 14.4106L8.26953 14.4106C7.90709 14.4106 7.61328 14.6665 7.61328 14.9821L7.61328 17.8392C7.61328 18.1548 7.90709 18.4106 8.26953 18.4106Z" fill="#F5F5F5" />
  <path d="M8.26953 12.9106L17.457 12.9106C17.8195 12.9106 18.1133 12.6548 18.1133 12.3392L18.1133 9.48207C18.1133 9.16648 17.8195 8.91064 17.457 8.91064L8.26953 8.91064C7.90709 8.91064 7.61328 9.16648 7.61328 9.48207L7.61328 12.3392C7.61328 12.6548 7.90709 12.9106 8.26953 12.9106Z" fill="#F5F5F5" />
  <path fill-rule="evenodd" clip-rule="evenodd" d="M21.8633 20.6606C21.8633 21.0749 21.5051 21.4106 21.0633 21.4106L4.66331 21.4106C4.22146 21.4106 3.86328 21.0749 3.86328 20.6606C3.86328 20.2464 4.22146 19.9106 4.66331 19.9106L21.0633 19.9106C21.5051 19.9106 21.8633 20.2464 21.8633 20.6606Z" fill="#F5F5F5" />
</svg>
  