<svg width="25" height="25" viewBox="0 0 25 25" fill="none" xmlns="http://www.w3.org/2000/svg">
  <path d="M17.457 14.9261H8.26953C7.90709 14.9261 7.61328 15.182 7.61328 15.4976V18.3547C7.61328 18.6703 7.90709 18.9261 8.26953 18.9261H17.457C17.8195 18.9261 18.1133 18.6703 18.1133 18.3547V15.4976C18.1133 15.182 17.8195 14.9261 17.457 14.9261Z" fill="#F5F5F5" />
  <path d="M17.457 6.42615H8.26953C7.90709 6.42615 7.61328 6.68198 7.61328 6.99758V9.85472C7.61328 10.1703 7.90709 10.4261 8.26953 10.4261H17.457C17.8195 10.4261 18.1133 10.1703 18.1133 9.85472V6.99758C18.1133 6.68198 17.8195 6.42615 17.457 6.42615Z" fill="#F5F5F5" />
  <path fill-rule="evenodd" clip-rule="evenodd" d="M3.86328 12.6761C3.86328 12.2619 4.22146 11.9261 4.6633 11.9261H21.0633C21.5051 11.9261 21.8633 12.2619 21.8633 12.6761C21.8633 13.0904 21.5051 13.4261 21.0633 13.4261H4.6633C4.22146 13.4261 3.86328 13.0904 3.86328 12.6761Z" fill="#F5F5F5" />
</svg>
  