<svg width="25" height="25" viewBox="0 0 25 25" fill="none" xmlns="http://www.w3.org/2000/svg">
  <path d="M17.457 7.03613H8.26953C7.90709 7.03613 7.61328 7.29197 7.61328 7.60756V10.4647C7.61328 10.7803 7.90709 11.0361 8.26953 11.0361H17.457C17.8195 11.0361 18.1133 10.7803 18.1133 10.4647V7.60756C18.1133 7.29197 17.8195 7.03613 17.457 7.03613Z" fill="#F5F5F5" />
  <path d="M17.457 12.5361H8.26953C7.90709 12.5361 7.61328 12.792 7.61328 13.1076V15.9647C7.61328 16.2803 7.90709 16.5361 8.26953 16.5361H17.457C17.8195 16.5361 18.1133 16.2803 18.1133 15.9647V13.1076C18.1133 12.792 17.8195 12.5361 17.457 12.5361Z" fill="#F5F5F5" />
  <path fill-rule="evenodd" clip-rule="evenodd" d="M3.86328 4.78613C3.86328 4.37192 4.22146 4.03613 4.6633 4.03613H21.0633C21.5051 4.03613 21.8633 4.37192 21.8633 4.78613C21.8633 5.20035 21.5051 5.53613 21.0633 5.53613H4.6633C4.22146 5.53613 3.86328 5.20035 3.86328 4.78613Z" fill="#F5F5F5" />
</svg>
  