<svg width="25" height="25" viewBox="0 0 25 25" fill="none" xmlns="http://www.w3.org/2000/svg">
  <path d="M17.6643 7.17615H8.06277C7.68401 7.17615 7.37695 7.43198 7.37695 7.74758V10.6047C7.37695 10.9203 7.68401 11.1761 8.06277 11.1761H17.6643C18.043 11.1761 18.3501 10.9203 18.3501 10.6047V7.74758C18.3501 7.43198 18.043 7.17615 17.6643 7.17615Z" fill="#F5F5F5" />
  <path d="M8.06231 18.1761L17.6638 18.1761C18.0426 18.1761 18.3496 17.9203 18.3496 17.6047L18.3496 14.7476C18.3496 14.432 18.0426 14.1761 17.6638 14.1761L8.06231 14.1761C7.68354 14.1761 7.37649 14.432 7.37649 14.7476L7.37649 17.6047C7.37649 17.9203 7.68354 18.1761 8.06231 18.1761Z" fill="#F5F5F5" />
  <path fill-rule="evenodd" clip-rule="evenodd" d="M3.86328 3.42615C3.86328 3.01193 4.22146 2.67615 4.6633 2.67615H21.0633C21.5051 2.67615 21.8633 3.01193 21.8633 3.42615C21.8633 3.84036 21.5051 4.17615 21.0633 4.17615H4.6633C4.22146 4.17615 3.86328 3.84036 3.86328 3.42615Z" fill="#F5F5F5" />
  <path fill-rule="evenodd" clip-rule="evenodd" d="M21.8633 21.9261C21.8633 22.3404 21.5051 22.6761 21.0633 22.6761L4.66331 22.6761C4.22147 22.6761 3.86328 22.3404 3.86328 21.9261C3.86328 21.5119 4.22147 21.1761 4.66331 21.1761L21.0633 21.1761C21.5051 21.1761 21.8633 21.5119 21.8633 21.9261Z" fill="#F5F5F5" />
</svg>
  