<svg width="25" height="25" viewBox="0 0 25 25" fill="none" xmlns="http://www.w3.org/2000/svg">
  <path d="M17.457 5.61365H8.26953C7.90709 5.61365 7.61328 5.86948 7.61328 6.18508V9.04222C7.61328 9.35781 7.90709 9.61365 8.26953 9.61365H17.457C17.8195 9.61365 18.1133 9.35781 18.1133 9.04222V6.18508C18.1133 5.86948 17.8195 5.61365 17.457 5.61365Z" fill="#F5F5F5" />
  <path d="M8.26953 19.7386L17.457 19.7386C17.8195 19.7386 18.1133 19.4828 18.1133 19.1672L18.1133 16.3101C18.1133 15.9945 17.8195 15.7386 17.457 15.7386L8.26953 15.7386C7.90709 15.7386 7.61328 15.9945 7.61328 16.3101L7.61328 19.1672C7.61328 19.4828 7.90709 19.7386 8.26953 19.7386Z" fill="#F5F5F5" />
  <path fill-rule="evenodd" clip-rule="evenodd" d="M3.86328 3.36365C3.86328 2.94943 4.22146 2.61365 4.6633 2.61365H21.0633C21.5051 2.61365 21.8633 2.94943 21.8633 3.36365C21.8633 3.77786 21.5051 4.11365 21.0633 4.11365H4.6633C4.22146 4.11365 3.86328 3.77786 3.86328 3.36365Z" fill="#F5F5F5" />
  <path fill-rule="evenodd" clip-rule="evenodd" d="M21.8633 21.9886C21.8633 22.4029 21.5051 22.7386 21.0633 22.7386L4.66331 22.7386C4.22147 22.7386 3.86328 22.4029 3.86328 21.9886C3.86328 21.5744 4.22147 21.2386 4.66331 21.2386L21.0633 21.2386C21.5051 21.2386 21.8633 21.5744 21.8633 21.9886Z" fill="#F5F5F5" />
</svg>
  