<svg width="31" height="31" viewBox="0 0 31 31" fill="none" xmlns="http://www.w3.org/2000/svg">
<path fill-rule="evenodd" clip-rule="evenodd" d="M22.5011 11.1637L19.6264 11.1637C19.2122 11.1637 18.8764 10.8279 18.8764 10.4137C18.8764 9.99948 19.2122 9.6637 19.6264 9.6637L22.5193 9.6637C22.5308 9.6637 22.5424 9.66396 22.554 9.6645C23.9172 9.72766 25.2037 10.3137 26.1461 11.3007C27.0886 12.2878 27.6144 13.6001 27.6144 14.9648C27.6144 16.3295 27.0886 17.6418 26.1461 18.6288C25.2037 19.6159 23.9172 20.2019 22.554 20.2651C22.542 20.2656 22.5299 20.2659 22.5179 20.2659L18.3933 20.2586L18.3919 20.2586C17.6966 20.2597 17.0079 20.1236 16.3653 19.8582C15.7223 19.5925 15.1381 19.2025 14.6461 18.7106C14.1541 18.2186 13.7641 17.6343 13.4985 16.9913C13.2328 16.3483 13.0968 15.6591 13.0981 14.9634C13.0988 14.5492 13.4353 14.214 13.8495 14.2148C14.2637 14.2156 14.5988 14.552 14.5981 14.9662C14.5971 15.4645 14.6946 15.958 14.8848 16.4186C15.0751 16.8791 15.3544 17.2976 15.7067 17.6499C16.0591 18.0022 16.4775 18.2816 16.9381 18.4718C17.3986 18.6621 17.8922 18.7595 18.3905 18.7586H18.3932L22.5018 18.7659C23.4732 18.7165 24.3892 18.2969 25.0612 17.593C25.7372 16.885 26.1144 15.9437 26.1144 14.9648C26.1144 13.9859 25.7372 13.0446 25.0612 12.3366C24.389 11.6325 23.4728 11.213 22.5011 11.1637Z" fill="#F5F5F5"/>
<path fill-rule="evenodd" clip-rule="evenodd" d="M16.1095 12.2795C15.7571 11.9272 15.3387 11.6479 14.8782 11.4576C14.4176 11.2673 13.9241 11.1699 13.4258 11.1708L13.423 11.1708L9.31448 11.1635C8.343 11.213 7.42703 11.6325 6.75501 12.3364C6.07902 13.0444 5.70183 13.9857 5.70183 14.9646C5.70183 15.9435 6.07902 16.8848 6.75501 17.5928C7.42718 18.2969 8.34339 18.7164 9.31511 18.7657L12.1898 18.7657C12.604 18.7657 12.9398 19.1015 12.9398 19.5157C12.9398 19.9299 12.604 20.2657 12.1898 20.2657L9.29697 20.2657C9.2854 20.2657 9.27382 20.2654 9.26226 20.2649C7.899 20.2017 6.61249 19.6157 5.67008 18.6287C4.72767 17.6416 4.20183 16.3293 4.20183 14.9646C4.20183 13.5999 4.72767 12.2876 5.67008 11.3006C6.61249 10.3135 7.899 9.72747 9.26226 9.66432C9.27426 9.66376 9.28628 9.66349 9.2983 9.66351L13.4244 9.67082C14.1196 9.6697 14.8083 9.80577 15.4509 10.0712C16.0939 10.3369 16.6782 10.7269 17.1701 11.2188C17.6621 11.7108 18.0521 12.2951 18.3177 12.9381C18.5834 13.5811 18.7195 14.2703 18.7182 14.966C18.7174 15.3802 18.381 15.7154 17.9668 15.7146C17.5525 15.7138 17.2174 15.3774 17.2182 14.9632C17.2191 14.4649 17.1216 13.9714 16.9314 13.5108C16.7411 13.0503 16.4618 12.6318 16.1095 12.2795Z" fill="#F5F5F5"/>
</svg>
