<svg width="24" height="24" viewBox="0 0 24 24" fill="none" xmlns="http://www.w3.org/2000/svg">
<path d="M21 8.46785C21 6.8533 20.0098 5.47016 18.6036 4.89221L18.4702 4.83923L18.8936 4.10593C19.0158 3.89432 18.8631 3.63006 18.6187 3.63006H14.8823C14.6382 3.63006 14.4855 3.89465 14.6074 4.10593L16.4756 7.34158C16.5978 7.55318 16.9032 7.55318 17.0251 7.34158L17.4956 6.52658L17.9396 6.72041C18.6089 7.02197 19.0747 7.69166 19.0747 8.46965C19.0747 8.76585 19.0073 9.04613 18.8868 9.29674L14.5003 18.6933C14.461 18.7753 14.4033 18.8507 14.3269 18.9132C14.0931 19.1046 13.7492 19.1043 13.5155 18.9126C13.4817 18.885 13.4519 18.8549 13.4252 18.8226L9.79186 14.368L8.7771 16.1566L11.9959 20.1111C12.4667 20.6461 13.1565 20.9834 13.9253 20.9834C14.983 20.9834 15.8915 20.3446 16.2856 19.4313L20.6354 10.1097C20.8692 9.61133 21 9.05499 21 8.46785Z" fill="white"/>
<path d="M5.54434 16.485C5.5396 16.485 5.53486 16.4847 5.53012 16.4847C4.46423 16.4847 3.60013 17.3488 3.60013 18.4148C3.60013 19.4807 4.46423 20.3448 5.53012 20.3448C6.59607 20.3448 7.46017 19.4807 7.46017 18.4148C7.46017 18.0652 7.36723 17.7374 7.20477 17.4548L11.4253 9.67665C11.4315 9.6657 11.438 9.65475 11.4439 9.64381L11.4472 9.6385C11.7934 9.00136 11.9902 8.27128 11.9902 7.4951C11.9902 5.01255 9.97759 3 7.4951 3C5.01255 3 3 5.01255 3 7.4951C3 8.61075 3.40629 9.63139 4.07921 10.4173L6.37285 13.2269L7.39377 11.4513L5.53046 9.17183C5.15966 8.72644 4.91995 8.12039 4.91995 7.49538C4.91995 6.07641 6.0702 4.92616 7.48917 4.92616C8.90814 4.92616 10.0584 6.07641 10.0584 7.49538C10.0584 7.95466 9.93797 8.38583 9.72665 8.759L9.72546 8.76108L5.54434 16.485Z" fill="white"/>
</svg>
