<svg width="25" height="25" viewBox="0 0 25 25" fill="none" xmlns="http://www.w3.org/2000/svg">
  <path fill-rule="evenodd" clip-rule="evenodd" d="M8.82135 21.3983H4.63135C4.23135 21.3983 3.85135 21.2383 3.57135 20.9583C3.29135 20.6783 3.13135 20.2883 3.13135 19.8983V15.7083C3.13135 15.5183 3.17135 15.3183 3.24135 15.1383C3.31135 14.9583 3.42135 14.7883 3.57135 14.6483L14.8213 3.39833C14.9513 3.25833 15.1213 3.14833 15.3013 3.06833C15.6813 2.90833 16.0913 2.91833 16.4613 3.06833C16.6513 3.14833 16.8113 3.25833 16.9513 3.39833L21.1313 7.57833C21.2713 7.71833 21.3813 7.87833 21.4613 8.06833C21.5413 8.24833 21.5813 8.44833 21.5813 8.64833C21.5813 8.84833 21.5413 9.04833 21.4613 9.22833C21.3913 9.40833 21.2813 9.56833 21.1313 9.70833L18.703 12.1367C18.6915 12.1498 18.6796 12.1627 18.667 12.1752C18.6545 12.1877 18.6417 12.1997 18.6285 12.2111L9.88135 20.9583C9.76154 21.0781 9.61976 21.176 9.46854 21.2456C9.38507 21.2945 9.29417 21.3258 9.20117 21.3397C9.07885 21.3712 8.95224 21.3883 8.82135 21.3883V21.3983ZM7.32952 19.8983H4.63135V17.2002L5.98103 18.5498L5.98139 18.5502L5.98175 18.5506L7.32952 19.8983ZM9.13609 19.5836L17.0754 11.6442L15.5117 10.0805L7.57238 18.0199L9.13609 19.5836ZM14.4511 9.01987L6.51172 16.9592L4.94609 15.3936L12.8854 7.45424L14.4511 9.01987ZM16.042 8.48954L18.1361 10.5836L20.0713 8.64833L15.8813 4.45833L13.9461 6.39358L16.042 8.48954Z" fill="#F5F5F5" />
</svg>
  