<svg width="25" height="24" viewBox="0 0 25 24" fill="none" xmlns="http://www.w3.org/2000/svg">
  <path fill-rule="evenodd" clip-rule="evenodd" d="M12.8867 8.25C12.8867 7.83579 12.5509 7.5 12.1367 7.5C11.7225 7.5 11.3867 7.83579 11.3867 8.25V11.25H8.38672C7.97251 11.25 7.63672 11.5858 7.63672 12C7.63672 12.4142 7.97251 12.75 8.38672 12.75H11.3867V15.75C11.3867 16.1642 11.7225 16.5 12.1367 16.5C12.5509 16.5 12.8867 16.1642 12.8867 15.75V12.75H15.8867C16.3009 12.75 16.6367 12.4142 16.6367 12C16.6367 11.5858 16.3009 11.25 15.8867 11.25H12.8867V8.25Z" fill="#F5F5F5" />
  <path fill-rule="evenodd" clip-rule="evenodd" d="M3.37598 4.98911C3.37598 4.02261 4.15948 3.23911 5.12598 3.23911H19.1478C20.1143 3.23911 20.8978 4.02261 20.8978 4.98911V19.0109C20.8978 19.9774 20.1143 20.7609 19.1478 20.7609H5.12598C4.15948 20.7609 3.37598 19.9774 3.37598 19.0109V4.98911ZM5.12598 4.73911C4.98791 4.73911 4.87598 4.85104 4.87598 4.98911V19.0109C4.87598 19.149 4.98791 19.2609 5.12598 19.2609H19.1478C19.2858 19.2609 19.3978 19.149 19.3978 19.0109V4.98911C19.3978 4.85104 19.2858 4.73911 19.1478 4.73911H5.12598Z" fill="#F5F5F5" />
</svg>
  