<svg width="25" height="24" viewBox="0 0 25 24" fill="none" xmlns="http://www.w3.org/2000/svg">
  <path fill-rule="evenodd" clip-rule="evenodd" d="M12.1367 3.75C7.58037 3.75 3.88672 7.44365 3.88672 12C3.88672 16.5563 7.58037 20.25 12.1367 20.25C16.6931 20.25 20.3867 16.5563 20.3867 12C20.3867 7.44365 16.6931 3.75 12.1367 3.75ZM2.38672 12C2.38672 6.61522 6.75194 2.25 12.1367 2.25C17.5215 2.25 21.8867 6.61522 21.8867 12C21.8867 17.3848 17.5215 21.75 12.1367 21.75C6.75194 21.75 2.38672 17.3848 2.38672 12Z" fill="#F5F5F5" />
  <path fill-rule="evenodd" clip-rule="evenodd" d="M12.8867 8.25C12.8867 7.83579 12.5509 7.5 12.1367 7.5C11.7225 7.5 11.3867 7.83579 11.3867 8.25V11.25H8.38672C7.97251 11.25 7.63672 11.5858 7.63672 12C7.63672 12.4142 7.97251 12.75 8.38672 12.75H11.3867V15.75C11.3867 16.1642 11.7225 16.5 12.1367 16.5C12.5509 16.5 12.8867 16.1642 12.8867 15.75V12.75H15.8867C16.3009 12.75 16.6367 12.4142 16.6367 12C16.6367 11.5858 16.3009 11.25 15.8867 11.25H12.8867V8.25Z" fill="#F5F5F5" />
</svg>
  