<svg width="25" height="24" viewBox="0 0 25 24" fill="none" xmlns="http://www.w3.org/2000/svg">
  <path fill-rule="evenodd" clip-rule="evenodd" d="M12.8867 5.76829C12.8867 5.35407 12.5509 5.01829 12.1367 5.01829C11.7225 5.01829 11.3867 5.35407 11.3867 5.76829V11.25H5.86377C5.44956 11.25 5.11377 11.5858 5.11377 12C5.11377 12.4142 5.44956 12.75 5.86377 12.75H11.3867V18.2318C11.3867 18.646 11.7225 18.9818 12.1367 18.9818C12.5509 18.9818 12.8867 18.646 12.8867 18.2318V12.75H18.4092C18.8235 12.75 19.1592 12.4142 19.1592 12C19.1592 11.5858 18.8235 11.25 18.4092 11.25H12.8867V5.76829Z" fill="#F5F5F5" />
</svg>
  