<svg width="25" height="24" viewBox="0 0 25 24" fill="none" xmlns="http://www.w3.org/2000/svg">
  <path fill-rule="evenodd" clip-rule="evenodd" d="M12.1366 3.76872C7.59056 3.76872 3.90529 7.45399 3.90529 12C3.90529 16.546 7.59056 20.2313 12.1366 20.2313C16.6826 20.2313 20.3679 16.546 20.3679 12C20.3679 7.45399 16.6826 3.76872 12.1366 3.76872ZM2.40869 12C2.40869 6.62744 6.76401 2.27212 12.1366 2.27212C17.5091 2.27212 21.8645 6.62744 21.8645 12C21.8645 17.3726 17.5091 21.7279 12.1366 21.7279C6.76401 21.7279 2.40869 17.3726 2.40869 12Z" fill="#F5F5F5" />
  <path d="M12.1366 18.1304C12.7565 18.1304 13.2591 17.6279 13.2591 17.008C13.2591 16.3881 12.7565 15.8855 12.1366 15.8855C11.5167 15.8855 11.0142 16.3881 11.0142 17.008C11.0142 17.6279 11.5167 18.1304 12.1366 18.1304Z" fill="#F5F5F5" />
  <path fill-rule="evenodd" clip-rule="evenodd" d="M10.8482 6.65384C11.4636 6.39897 12.1406 6.33229 12.7938 6.46222C13.447 6.59215 14.047 6.91286 14.5179 7.38379C14.9889 7.85472 15.3096 8.45472 15.4395 9.10792C15.5694 9.76113 15.5028 10.4382 15.2479 11.0535C14.993 11.6688 14.5614 12.1947 14.0077 12.5647C13.6644 12.7941 13.2837 12.9572 12.8852 13.048V14.1205C12.8852 14.5338 12.5501 14.8688 12.1369 14.8688C11.7236 14.8688 11.3886 14.5338 11.3886 14.1205V12.3839C11.3886 12.1854 11.4674 11.9951 11.6077 11.8548C11.7481 11.7144 11.9384 11.6356 12.1369 11.6356C12.5069 11.6356 12.8686 11.5259 13.1762 11.3203C13.4838 11.1148 13.7236 10.8226 13.8652 10.4808C14.0068 10.1389 14.0439 9.76278 13.9717 9.3999C13.8995 9.03701 13.7213 8.70367 13.4597 8.44204C13.1981 8.18041 12.8647 8.00224 12.5018 7.93006C12.139 7.85788 11.7628 7.89492 11.421 8.03651C11.0791 8.17811 10.787 8.41789 10.5814 8.72553C10.3758 9.03317 10.2661 9.39486 10.2661 9.76486C10.2661 10.1781 9.9311 10.5132 9.51783 10.5132C9.10456 10.5132 8.76953 10.1781 8.76953 9.76486C8.76953 9.09886 8.96702 8.44782 9.33703 7.89406C9.70704 7.34031 10.2329 6.90871 10.8482 6.65384Z" fill="#F5F5F5" />
</svg>
  