<svg width="24" height="25" viewBox="0 0 24 25" fill="none" xmlns="http://www.w3.org/2000/svg">
<path fill-rule="evenodd" clip-rule="evenodd" d="M21.6455 12.8324C21.6455 18.2061 17.2893 22.5624 11.9155 22.5624C6.54182 22.5624 2.18555 18.2061 2.18555 12.8324C2.18555 7.45869 6.54182 3.10242 11.9155 3.10242C17.2893 3.10242 21.6455 7.45869 21.6455 12.8324ZM12.6571 7.37275C12.0039 7.24282 11.3268 7.3095 10.7115 7.56437C10.0962 7.81924 9.57032 8.25084 9.20031 8.80459C8.8303 9.35835 8.63281 10.0094 8.63281 10.6754C8.63281 11.0887 8.96784 11.4237 9.38111 11.4237C9.79438 11.4237 10.1294 11.0887 10.1294 10.6754C10.1294 10.3054 10.2391 9.9437 10.4447 9.63606C10.6502 9.32842 10.9424 9.08864 11.2843 8.94705C11.6261 8.80545 12.0022 8.76841 12.3651 8.84059C12.728 8.91277 13.0613 9.09094 13.323 9.35257C13.5846 9.6142 13.7628 9.94754 13.835 10.3104C13.9071 10.6733 13.8701 11.0495 13.7285 11.3913C13.5869 11.7331 13.3471 12.0253 13.0395 12.2309C12.7318 12.4364 12.3702 12.5461 12.0002 12.5461C11.8017 12.5461 11.6114 12.625 11.471 12.7653C11.3307 12.9056 11.2519 13.096 11.2519 13.2944V15.031C11.2519 15.4443 11.5869 15.7793 12.0002 15.7793C12.4134 15.7793 12.7485 15.4443 12.7485 15.031V13.9585C13.1469 13.8677 13.5276 13.7046 13.871 13.4752C14.4247 13.1052 14.8563 12.5793 15.1112 11.964C15.366 11.3487 15.4327 10.6717 15.3028 10.0185C15.1729 9.36525 14.8522 8.76525 14.3812 8.29432C13.9103 7.82339 13.3103 7.50268 12.6571 7.37275ZM13.1223 17.9185C13.1223 18.5384 12.6198 19.0409 11.9999 19.0409C11.38 19.0409 10.8774 18.5384 10.8774 17.9185C10.8774 17.2986 11.38 16.7961 11.9999 16.7961C12.6198 16.7961 13.1223 17.2986 13.1223 17.9185Z" fill="#F5F5F5"/>
</svg>
