<svg width="31" height="31" viewBox="0 0 31 31" fill="none" xmlns="http://www.w3.org/2000/svg">
<path fill-rule="evenodd" clip-rule="evenodd" d="M15.0536 25.6553C17.2185 25.6553 18.9735 23.9003 18.9735 21.7354C18.9735 19.5705 17.2185 17.8154 15.0536 17.8154C12.8887 17.8154 11.1337 19.5705 11.1337 21.7354C11.1337 23.9003 12.8887 25.6553 15.0536 25.6553ZM20.5266 21.7354C20.5266 24.758 18.0763 27.2084 15.0536 27.2084C12.0309 27.2084 9.58057 24.758 9.58057 21.7354C9.58057 18.7127 12.0309 16.2623 15.0536 16.2623C18.0763 16.2623 20.5266 18.7127 20.5266 21.7354Z" fill="#F5F5F5"/>
<path d="M15.0535 22.9509C15.7249 22.9509 16.2692 22.4067 16.2692 21.7353C16.2692 21.0639 15.7249 20.5197 15.0535 20.5197C14.3822 20.5197 13.8379 21.0639 13.8379 21.7353C13.8379 22.4067 14.3822 22.9509 15.0535 22.9509Z" fill="#F5F5F5"/>
<path fill-rule="evenodd" clip-rule="evenodd" d="M15.06 13.1048C17.2256 13.1048 18.9813 11.3492 18.9813 9.1835C18.9813 7.01781 17.2256 5.26217 15.06 5.26217C12.8943 5.26217 11.1386 7.01781 11.1386 9.1835C11.1386 11.3492 12.8943 13.1048 15.06 13.1048ZM20.535 9.1835C20.535 12.2073 18.0837 14.6585 15.06 14.6585C12.0362 14.6585 9.58496 12.2073 9.58496 9.1835C9.58496 6.15974 12.0362 3.7085 15.06 3.7085C18.0837 3.7085 20.535 6.15974 20.535 9.1835Z" fill="#F5F5F5"/>
</svg>
