<svg width="31" height="31" viewBox="0 0 31 31" fill="none" xmlns="http://www.w3.org/2000/svg">
<path fill-rule="evenodd" clip-rule="evenodd" d="M15.0537 25.7085C20.7146 25.7085 25.3037 21.1194 25.3037 15.4585C25.3037 9.79758 20.7146 5.2085 15.0537 5.2085C9.39279 5.2085 4.80371 9.79758 4.80371 15.4585C4.80371 21.1194 9.39279 25.7085 15.0537 25.7085ZM26.8037 15.4585C26.8037 21.9478 21.5431 27.2085 15.0537 27.2085C8.56436 27.2085 3.30371 21.9478 3.30371 15.4585C3.30371 8.96915 8.56436 3.7085 15.0537 3.7085C21.5431 3.7085 26.8037 8.96915 26.8037 15.4585Z" fill="#F5F5F5"/>
<path d="M15.054 18.8826C16.9451 18.8826 18.4782 17.3495 18.4782 15.4584C18.4782 13.5673 16.9451 12.0343 15.054 12.0343C13.1629 12.0343 11.6299 13.5673 11.6299 15.4584C11.6299 17.3495 13.1629 18.8826 15.054 18.8826Z" fill="#F5F5F5"/>
</svg>
