<svg width="25" height="25" viewBox="0 0 25 25" fill="none" xmlns="http://www.w3.org/2000/svg">
  <path fill-rule="evenodd" clip-rule="evenodd" d="M18.1675 12.6071C18.1675 9.27605 15.4671 6.57571 12.1361 6.57571C9.97943 6.57571 8.08618 7.70734 7.01925 9.41235H9.40674C9.82095 9.41235 10.1567 9.74814 10.1567 10.1624C10.1567 10.5766 9.82095 10.9124 9.40674 10.9124H5.34117C4.92696 10.9124 4.59117 10.5766 4.59117 10.1624V6.09679C4.59117 5.68257 4.92696 5.34679 5.34117 5.34679C5.75538 5.34679 6.09117 5.68257 6.09117 6.09679V8.11989C7.46236 6.27569 9.65912 5.07912 12.1361 5.07912C16.2937 5.07912 19.6641 8.4495 19.6641 12.6071C19.6641 16.7647 16.2937 20.1351 12.1361 20.1351C8.85735 20.1351 6.07 18.0394 5.03682 15.1167C4.89907 14.7271 5.10328 14.2996 5.49292 14.1618C5.88257 14.0241 6.3101 14.2283 6.44784 14.6179C7.27627 16.9613 9.51129 18.6385 12.1361 18.6385C15.4671 18.6385 18.1675 15.9381 18.1675 12.6071Z" fill="#F5F5F5" />
</svg>
  