<svg width="31" height="31" viewBox="0 0 31 31" fill="none" xmlns="http://www.w3.org/2000/svg">
<path d="M3.93994 25.6045C3.93994 25.1903 4.27573 24.8545 4.68994 24.8545C5.10415 24.8545 5.43994 25.1903 5.43994 25.6045C5.43994 26.0187 5.10415 26.3545 4.68994 26.3545C4.27573 26.3545 3.93994 26.0187 3.93994 25.6045Z" fill="#F5F5F5"/>
<path d="M3.93994 11.8628C3.93994 11.4486 4.27573 11.1128 4.68994 11.1128C5.10415 11.1128 5.43994 11.4486 5.43994 11.8628C5.43994 12.277 5.10415 12.6128 4.68994 12.6128C4.27573 12.6128 3.93994 12.277 3.93994 11.8628Z" fill="#F5F5F5"/>
<path d="M24.8335 11.8628C24.8335 11.4486 25.1693 11.1128 25.5835 11.1128C25.9977 11.1128 26.3335 11.4486 26.3335 11.8628C26.3335 12.277 25.9977 12.6128 25.5835 12.6128C25.1693 12.6128 24.8335 12.277 24.8335 11.8628Z" fill="#F5F5F5"/>
<path d="M3.93994 18.7339C3.93994 18.3197 4.27573 17.9839 4.68994 17.9839C5.10415 17.9839 5.43994 18.3197 5.43994 18.7339C5.43994 19.1481 5.10415 19.4839 4.68994 19.4839C4.27573 19.4839 3.93994 19.1481 3.93994 18.7339Z" fill="#F5F5F5"/>
<path d="M3.93994 4.9917C3.93994 4.57749 4.27573 4.2417 4.68994 4.2417C5.10415 4.2417 5.43994 4.57749 5.43994 4.9917C5.43994 5.40591 5.10415 5.7417 4.68994 5.7417C4.27573 5.7417 3.93994 5.40591 3.93994 4.9917Z" fill="#F5F5F5"/>
<path d="M17.6821 4.9917C17.6821 4.57749 18.0179 4.2417 18.4321 4.2417C18.8463 4.2417 19.1821 4.57749 19.1821 4.9917C19.1821 5.40591 18.8463 5.7417 18.4321 5.7417C18.0179 5.7417 17.6821 5.40591 17.6821 4.9917Z" fill="#F5F5F5"/>
<path d="M10.811 4.9917C10.811 4.57749 11.1468 4.2417 11.561 4.2417C11.9752 4.2417 12.311 4.57749 12.311 4.9917C12.311 5.40591 11.9752 5.7417 11.561 5.7417C11.1468 5.7417 10.811 5.40591 10.811 4.9917Z" fill="#F5F5F5"/>
<path d="M10.811 25.6045C10.811 25.1903 11.1468 24.8545 11.561 24.8545C11.9752 24.8545 12.311 25.1903 12.311 25.6045C12.311 26.0187 11.9752 26.3545 11.561 26.3545C11.1468 26.3545 10.811 26.0187 10.811 25.6045Z" fill="#F5F5F5"/>
<path d="M24.5532 4.9917C24.5532 4.57749 24.889 4.2417 25.3032 4.2417C25.7174 4.2417 26.0532 4.57749 26.0532 4.9917C26.0532 5.40591 25.7174 5.7417 25.3032 5.7417C24.889 5.7417 24.5532 5.40591 24.5532 4.9917Z" fill="#F5F5F5"/>
<path fill-rule="evenodd" clip-rule="evenodd" d="M24.5532 18.6043L24.5532 17.5883C24.5532 17.1741 24.889 16.8383 25.3032 16.8383C25.7174 16.8383 26.0532 17.1741 26.0532 17.5883L26.0532 18.6043C26.0532 22.8845 22.5834 26.3543 18.3032 26.3543L17.2872 26.3543C16.873 26.3543 16.5372 26.0185 16.5372 25.6043C16.5372 25.1901 16.873 24.8543 17.2872 24.8543L18.3032 24.8543C21.755 24.8543 24.5532 22.0561 24.5532 18.6043Z" fill="#F5F5F5"/>
</svg>
