<svg width="25" height="24" viewBox="0 0 25 24" fill="none" xmlns="http://www.w3.org/2000/svg">
  <path fill-rule="evenodd" clip-rule="evenodd" d="M5.40987 10.0134C5.40987 7.07147 7.79479 4.68656 10.7367 4.68656C13.6787 4.68656 16.0636 7.07147 16.0636 10.0134C16.0636 12.9553 13.6787 15.3403 10.7367 15.3403C7.79479 15.3403 5.40987 12.9553 5.40987 10.0134ZM10.7367 2.9759C6.85002 2.9759 3.69922 6.1267 3.69922 10.0134C3.69922 13.9001 6.85002 17.0509 10.7367 17.0509C12.0693 17.0509 13.3153 16.6806 14.3775 16.0372L19.114 20.7737C19.448 21.1077 19.9896 21.1077 20.3236 20.7737C20.6577 20.4397 20.6577 19.8981 20.3236 19.5641L15.7311 14.9715C16.994 13.6994 17.7742 11.9475 17.7742 10.0134C17.7742 6.1267 14.6234 2.9759 10.7367 2.9759Z" fill="#F5F5F5" />
</svg>
  