<svg width="24" height="24" viewBox="0 0 24 24" fill="none" xmlns="http://www.w3.org/2000/svg">
  <path fill-rule="evenodd" clip-rule="evenodd" d="M13.1199 16.9116C13.1199 15.8071 14.0154 14.9116 15.1199 14.9116C16.2245 14.9116 17.1199 15.8071 17.1199 16.9116C17.1199 18.0162 16.2245 18.9116 15.1199 18.9116C14.0154 18.9116 13.1199 18.0162 13.1199 16.9116ZM11.6993 16.167C12.0406 14.5917 13.4425 13.4116 15.1199 13.4116C16.7974 13.4116 18.1992 14.5917 18.5406 16.167L20.25 16.167C20.6642 16.167 21 16.5028 21 16.917C21 17.3312 20.6642 17.667 20.25 17.667L18.5382 17.667C18.1929 19.2369 16.7936 20.4116 15.1199 20.4116C13.4463 20.4116 12.047 19.2369 11.7016 17.667L3.75 17.667C3.33579 17.667 3 17.3312 3 16.917C3 16.5028 3.33579 16.167 3.75 16.167L11.6993 16.167ZM8.88007 9.08838C9.98464 9.08838 10.8801 8.19295 10.8801 7.08838C10.8801 5.98381 9.98464 5.08838 8.88007 5.08838C7.7755 5.08838 6.88007 5.98381 6.88007 7.08838C6.88007 8.19295 7.7755 9.08838 8.88007 9.08838ZM20.25 6.33301L12.2984 6.33301C11.953 4.76311 10.5537 3.58838 8.88007 3.58838C7.20642 3.58838 5.80714 4.76311 5.4618 6.33301L3.75 6.333C3.33579 6.333 3 6.66879 3 7.083C3 7.49722 3.33579 7.833 3.75 7.833L5.45945 7.83301C5.80077 9.40829 7.20261 10.5884 8.88007 10.5884C10.5575 10.5884 11.9594 9.40829 12.3007 7.83301L20.25 7.83301C20.6642 7.83301 21 7.49722 21 7.08301C21 6.66879 20.6642 6.33301 20.25 6.33301Z" fill="#F5F5F5" />
</svg>
  