<svg width="25" height="25" viewBox="0 0 25 25" fill="none" xmlns="http://www.w3.org/2000/svg">
  <path fill-rule="evenodd" clip-rule="evenodd" d="M17.0483 11.1433C15.9438 11.1433 15.0483 10.2478 15.0483 9.14326C15.0483 8.03869 15.9438 7.14326 17.0483 7.14326C18.1529 7.14326 19.0483 8.03869 19.0483 9.14326C19.0483 10.2478 18.1529 11.1433 17.0483 11.1433ZM16.3037 12.5639C14.7284 12.2226 13.5483 10.8207 13.5483 9.14326C13.5483 7.46579 14.7284 6.06395 16.3037 5.72263L16.3037 4.01318C16.3037 3.59897 16.6395 3.26318 17.0537 3.26318C17.4679 3.26318 17.8037 3.59897 17.8037 4.01318L17.8037 5.72498C19.3736 6.07033 20.5483 7.46961 20.5483 9.14326C20.5483 10.8169 19.3736 12.2162 17.8037 12.5615L17.8037 20.5132C17.8037 20.9274 17.4679 21.2632 17.0537 21.2632C16.6395 21.2632 16.3037 20.9274 16.3037 20.5132L16.3037 12.5639ZM9.2251 15.3831C9.2251 14.2785 8.32967 13.3831 7.2251 13.3831C6.12053 13.3831 5.2251 14.2785 5.2251 15.3831C5.2251 16.4877 6.12053 17.3831 7.2251 17.3831C8.32967 17.3831 9.2251 16.4877 9.2251 15.3831ZM6.46973 4.01318L6.46973 11.9648C4.89983 12.3102 3.7251 13.7095 3.7251 15.3831C3.7251 17.0568 4.89983 18.456 6.46972 18.8014L6.46972 20.5132C6.46972 20.9274 6.80551 21.2632 7.21972 21.2632C7.63394 21.2632 7.96972 20.9274 7.96972 20.5132L7.96972 18.8037C9.54501 18.4624 10.7251 17.0606 10.7251 15.3831C10.7251 13.7056 9.54501 12.3038 7.96973 11.9625L7.96973 4.01318C7.96973 3.59897 7.63394 3.26318 7.21973 3.26318C6.80551 3.26318 6.46973 3.59897 6.46973 4.01318Z" fill="#F5F5F5" />
</svg>
  