<svg width="31" height="31" viewBox="0 0 31 31" fill="none" xmlns="http://www.w3.org/2000/svg">
<path fill-rule="evenodd" clip-rule="evenodd" d="M4.30713 10.3201H25.8038C26.356 10.3201 26.8038 10.7678 26.8038 11.3201V18.693C26.8038 19.2453 26.356 19.7663 25.8038 19.7663H4.30713C3.75484 19.7663 3.30713 19.2453 3.30713 18.693V11.3201C3.30713 10.7678 3.75484 10.3201 4.30713 10.3201ZM7.08831 12.2277C7.08831 11.8134 6.75252 11.4777 6.33831 11.4777C5.92409 11.4777 5.58831 11.8134 5.58831 12.2277L5.58831 17.8586C5.58831 18.2729 5.92409 18.6086 6.33831 18.6086C6.75252 18.6086 7.08831 18.2729 7.08831 17.8586L7.08831 12.2277Z" fill="#F5F5F5"/>
</svg>
