<svg width="31" height="31" viewBox="0 0 31 31" fill="none" xmlns="http://www.w3.org/2000/svg">
<path fill-rule="evenodd" clip-rule="evenodd" d="M5.26204 3.7085H24.8454C25.9269 3.7085 26.8037 4.58527 26.8037 5.66683V25.2502C26.8037 26.3317 25.9269 27.2085 24.8454 27.2085H5.26204C4.18049 27.2085 3.30371 26.3317 3.30371 25.2502V5.66683C3.30371 4.58527 4.18049 3.7085 5.26204 3.7085ZM10.4307 12.0092V10.7823H14.1834V20.7632H12.5119C12.0312 20.7632 11.6416 21.1529 11.6416 21.6336C11.6416 22.1143 12.0312 22.5039 12.5119 22.5039H17.6179C18.0986 22.5039 18.4883 22.1143 18.4883 21.6336C18.4883 21.1529 18.0986 20.7632 17.6179 20.7632H15.9242V10.7823H19.677V12.0092C19.677 12.4899 20.0667 12.8796 20.5474 12.8796C21.028 12.8796 21.4177 12.4899 21.4177 12.0092V10.086C21.4177 9.50919 20.9501 9.04158 20.3733 9.04158H9.73436C9.15752 9.04158 8.68991 9.50919 8.68991 10.086V12.0092C8.68991 12.4899 9.07959 12.8796 9.56028 12.8796C10.041 12.8796 10.4307 12.4899 10.4307 12.0092Z" fill="#F5F5F5"/>
</svg>
