<svg width="25" height="25" viewBox="0 0 25 25" fill="none" xmlns="http://www.w3.org/2000/svg">
<path fill-rule="evenodd" clip-rule="evenodd" d="M12.8624 3.66061C7.7533 3.66061 3.61154 7.80237 3.61154 12.9115C3.61154 15.2316 4.46564 17.3522 5.87657 18.9761C6.54981 17.9035 7.46295 16.9973 8.54791 16.3314C8.99048 16.0597 9.45573 15.8317 9.93713 15.6491C8.72904 14.7534 7.94601 13.3169 7.94601 11.6975C7.94601 8.98251 10.1469 6.78158 12.8619 6.78158C15.5769 6.78158 17.7778 8.98251 17.7778 11.6975C17.7778 13.3166 16.9951 14.7529 15.7874 15.6486C16.2693 15.8313 16.735 16.0595 17.178 16.3314C18.2627 16.9972 19.1757 17.9031 19.8489 18.9754C21.2594 17.3516 22.1133 15.2313 22.1133 12.9115C22.1133 7.80237 17.9715 3.66061 12.8624 3.66061ZM18.7444 20.0519C18.182 19.0525 17.3733 18.2113 16.3933 17.6098C15.3488 16.9687 14.1498 16.6243 12.925 16.613C12.904 16.6133 12.883 16.6134 12.8619 16.6134C12.8412 16.6134 12.8204 16.6133 12.7997 16.613C11.5754 16.6245 10.3768 16.9689 9.33259 17.6098C8.35234 18.2115 7.54352 19.0528 6.98114 20.0525C8.57978 21.3706 10.6286 22.1624 12.8624 22.1624C15.0965 22.1624 17.1457 21.3704 18.7444 20.0519ZM12.9201 15.1129C14.7798 15.0819 16.2778 13.5646 16.2778 11.6975C16.2778 9.81094 14.7485 8.28158 12.8619 8.28158C10.9754 8.28158 9.44601 9.81094 9.44601 11.6975C9.44601 13.5648 10.9444 15.0822 12.8044 15.1129C12.8239 15.1128 12.8434 15.1127 12.8629 15.1127C12.882 15.1127 12.901 15.1128 12.9201 15.1129ZM2.11154 12.9115C2.11154 6.97394 6.92487 2.16061 12.8624 2.16061C18.8 2.16061 23.6133 6.97394 23.6133 12.9115C23.6133 18.849 18.8 23.6624 12.8624 23.6624C6.92487 23.6624 2.11154 18.849 2.11154 12.9115Z" fill="#F5F5F5"/>
</svg>
