<svg width="31" height="31" viewBox="0 0 31 31" fill="none" xmlns="http://www.w3.org/2000/svg">
<path fill-rule="evenodd" clip-rule="evenodd" d="M10.3037 25.8395C10.3037 25.2872 10.7514 24.8395 11.3037 24.8395H18.8037C19.356 24.8395 19.8037 25.2872 19.8037 25.8395C19.8037 26.3918 19.356 26.8395 18.8037 26.8395H11.3037C10.7514 26.8395 10.3037 26.3918 10.3037 25.8395Z" fill="#F5F5F5"/>
<path fill-rule="evenodd" clip-rule="evenodd" d="M24.8454 21.7025H5.26204C4.18049 21.7025 3.30371 20.8257 3.30371 19.7442V6.03585C3.30371 4.95429 4.18049 4.07751 5.26204 4.07751H24.8454C25.9269 4.07751 26.8037 4.95429 26.8037 6.03585V19.7442C26.8037 20.8257 25.9269 21.7025 24.8454 21.7025ZM18.6841 13.4171C19.0468 13.1828 19.0468 12.5972 18.6841 12.3629L13.2641 8.86159C12.9015 8.62732 12.4482 8.92016 12.4482 9.3887V16.3913C12.4482 16.8598 12.9015 17.1527 13.2641 16.9184L18.6841 13.4171Z" fill="#F5F5F5"/>
</svg>
