<svg width="24" height="25" viewBox="0 0 24 25" fill="none" xmlns="http://www.w3.org/2000/svg">
<path fill-rule="evenodd" clip-rule="evenodd" d="M2.07812 4.73488C2.07812 3.76838 2.86163 2.98488 3.82812 2.98488H20.1753C21.1418 2.98488 21.9253 3.76838 21.9253 4.73488V21.0862C21.9253 22.0527 21.1418 22.8362 20.1753 22.8362H3.82812C2.86163 22.8362 2.07812 22.0527 2.07812 21.0862V4.73488ZM3.82812 4.48488C3.69005 4.48488 3.57812 4.59681 3.57812 4.73488V21.0862C3.57812 21.2242 3.69005 21.3362 3.82812 21.3362H20.1753C20.3134 21.3362 20.4253 21.2242 20.4253 21.0862V4.73488C20.4253 4.59681 20.3134 4.48488 20.1753 4.48488H3.82812Z" fill="#B8B8B8"/>
<path fill-rule="evenodd" clip-rule="evenodd" d="M17.7765 7.13446C18.0694 7.42736 18.0694 7.90223 17.7765 8.19512L13.7225 12.2491C13.4296 12.542 12.9547 12.542 12.6619 12.2491C12.369 11.9562 12.369 11.4814 12.6619 11.1885L16.7159 7.13446C17.0087 6.84157 17.4836 6.84157 17.7765 7.13446Z" fill="#B8B8B8"/>
<path fill-rule="evenodd" clip-rule="evenodd" d="M17.2463 6.91497C17.6605 6.91497 17.9963 7.25076 17.9963 7.66497V11.3527C17.9963 11.767 17.6605 12.1027 17.2463 12.1027C16.8321 12.1027 16.4963 11.767 16.4963 11.3527V8.41497H13.5586C13.1443 8.41497 12.8086 8.07919 12.8086 7.66497C12.8086 7.25076 13.1443 6.91497 13.5586 6.91497H17.2463Z" fill="#B8B8B8"/>
<path fill-rule="evenodd" clip-rule="evenodd" d="M6.22578 18.6866C5.93289 18.3937 5.93289 17.9188 6.22578 17.6259L10.2798 13.5719C10.5727 13.279 11.0476 13.279 11.3404 13.5719C11.6333 13.8648 11.6333 14.3397 11.3404 14.6326L7.28644 18.6866C6.99355 18.9795 6.51868 18.9795 6.22578 18.6866Z" fill="#B8B8B8"/>
<path fill-rule="evenodd" clip-rule="evenodd" d="M6.75598 18.9061C6.34176 18.9061 6.00598 18.5703 6.00598 18.1561L6.00598 14.4683C6.00598 14.0541 6.34176 13.7183 6.75598 13.7183C7.17019 13.7183 7.50598 14.0541 7.50598 14.4683V17.4061H10.4437C10.858 17.4061 11.1937 17.7419 11.1937 18.1561C11.1937 18.5703 10.858 18.9061 10.4437 18.9061H6.75598Z" fill="#B8B8B8"/>
</svg>
