<svg width="24" height="25" viewBox="0 0 24 25" fill="none" xmlns="http://www.w3.org/2000/svg">
<path fill-rule="evenodd" clip-rule="evenodd" d="M1.06299 5.51865C1.06299 4.55215 1.84649 3.76865 2.81299 3.76865H21.1929C22.1594 3.76865 22.9429 4.55215 22.9429 5.51865V20.3024C22.9429 21.2689 22.1594 22.0524 21.1929 22.0524H2.81299C1.84649 22.0524 1.06299 21.2689 1.06299 20.3024V5.51865ZM2.81299 5.26865C2.67492 5.26865 2.56299 5.38058 2.56299 5.51865V20.3024C2.56299 20.4404 2.67492 20.5524 2.81299 20.5524H21.1929C21.3309 20.5524 21.4429 20.4404 21.4429 20.3024V5.51865C21.4429 5.38057 21.3309 5.26865 21.1929 5.26865H2.81299Z" fill="#B8B8B8"/>
<path fill-rule="evenodd" clip-rule="evenodd" d="M19.2861 12.9105C19.2861 13.3247 18.9503 13.6605 18.5361 13.6605H5.46423C5.05002 13.6605 4.71423 13.3247 4.71423 12.9105C4.71423 12.4963 5.05002 12.1605 5.46423 12.1605H18.5361C18.9503 12.1605 19.2861 12.4963 19.2861 12.9105Z" fill="#B8B8B8"/>
<path fill-rule="evenodd" clip-rule="evenodd" d="M19.0665 12.3802C19.3594 12.6731 19.3594 13.1479 19.0665 13.4408L16.0665 16.4408C15.7736 16.7337 15.2987 16.7337 15.0058 16.4408C14.7129 16.1479 14.7129 15.6731 15.0058 15.3802L17.4755 12.9105L15.0058 10.4408C14.7129 10.1479 14.7129 9.67307 15.0058 9.38018C15.2987 9.08728 15.7736 9.08728 16.0665 9.38018L19.0665 12.3802Z" fill="#B8B8B8"/>
<path fill-rule="evenodd" clip-rule="evenodd" d="M4.93354 12.3802C4.64064 12.6731 4.64064 13.1479 4.93354 13.4408L7.93354 16.4408C8.22643 16.7337 8.7013 16.7337 8.9942 16.4408C9.28709 16.1479 9.28709 15.6731 8.9942 15.3802L6.52453 12.9105L8.9942 10.4408C9.28709 10.1479 9.28709 9.67307 8.9942 9.38018C8.7013 9.08728 8.22643 9.08728 7.93354 9.38018L4.93354 12.3802Z" fill="#B8B8B8"/>
</svg>
