<svg width="25" height="25" viewBox="0 0 25 25" fill="none" xmlns="http://www.w3.org/2000/svg">
<path fill-rule="evenodd" clip-rule="evenodd" d="M19.9019 1.97154C20.8684 1.97154 21.6519 2.75505 21.6519 3.72154V22.1014C21.6519 23.0679 20.8684 23.8514 19.9019 23.8514H5.11816C4.15166 23.8514 3.36816 23.0679 3.36816 22.1014L3.36816 3.72154C3.36816 2.75504 4.15167 1.97154 5.11816 1.97154L19.9019 1.97154ZM20.1519 3.72154C20.1519 3.58347 20.04 3.47154 19.9019 3.47154L5.11816 3.47154C4.98009 3.47154 4.86816 3.58347 4.86816 3.72154L4.86816 22.1014C4.86816 22.2395 4.98009 22.3514 5.11816 22.3514H19.9019C20.04 22.3514 20.1519 22.2395 20.1519 22.1014V3.72154Z" fill="#B8B8B8"/>
<path fill-rule="evenodd" clip-rule="evenodd" d="M12.51 20.1947C12.0958 20.1947 11.76 19.8589 11.76 19.4447L11.76 6.37279C11.76 5.95857 12.0958 5.62279 12.51 5.62279C12.9242 5.62279 13.26 5.95857 13.26 6.37279L13.26 19.4447C13.26 19.8589 12.9242 20.1947 12.51 20.1947Z" fill="#B8B8B8"/>
<path fill-rule="evenodd" clip-rule="evenodd" d="M13.0404 19.975C12.7475 20.2679 12.2726 20.2679 11.9797 19.975L8.9797 16.975C8.68681 16.6821 8.68681 16.2072 8.9797 15.9144C9.2726 15.6215 9.74747 15.6215 10.0404 15.9144L12.51 18.384L14.9797 15.9144C15.2726 15.6215 15.7475 15.6215 16.0404 15.9144C16.3333 16.2073 16.3333 16.6821 16.0404 16.975L13.0404 19.975Z" fill="#B8B8B8"/>
<path fill-rule="evenodd" clip-rule="evenodd" d="M13.0404 5.84209C12.7475 5.5492 12.2726 5.5492 11.9797 5.84209L8.9797 8.84209C8.68681 9.13498 8.68681 9.60986 8.9797 9.90275C9.27259 10.1956 9.74747 10.1956 10.0404 9.90275L12.51 7.43308L14.9797 9.90275C15.2726 10.1956 15.7475 10.1956 16.0404 9.90275C16.3333 9.60986 16.3333 9.13498 16.0404 8.84209L13.0404 5.84209Z" fill="#B8B8B8"/>
</svg>
