<svg width="31" height="32" viewBox="0 0 31 32" fill="none" xmlns="http://www.w3.org/2000/svg">
<path fill-rule="evenodd" clip-rule="evenodd" d="M13.7313 10.8858C13.7462 10.8513 13.7603 10.8153 13.7723 10.7786C14.5374 8.50875 14.2286 6.01474 12.933 3.99933C11.6656 2.05 9.66342 0.884498 7.43941 0.79772C7.30801 0.792782 7.1759 0.791371 7.04802 0.793487C3.72756 0.848517 0.830987 3.35308 0.154178 6.748C-0.0464951 7.74648 -0.0512936 8.77435 0.140048 9.77465C0.398474 11.0612 0.997656 12.255 1.87517 13.2317L6.01303 17.9043L7.31295 14.8303L4.04265 11.1384C3.53674 10.5834 3.18888 9.90326 3.03521 9.16861C2.92229 8.57532 2.92565 7.9658 3.0451 7.37379C3.44073 5.38002 5.14405 3.90973 7.09536 3.87728C7.17307 3.87728 7.2529 3.87728 7.33203 3.87728C7.41115 3.87728 7.47332 3.88433 7.54397 3.89068C8.73369 4.00215 9.79906 4.66322 10.4921 5.72924C11.2507 6.90703 11.4403 8.36254 11.0086 9.69492L4.39095 25.3361C2.80278 25.389 1.46187 26.6766 1.31634 28.3698C1.1595 30.2041 2.45801 31.8268 4.21291 31.987C5.96781 32.1471 7.51995 30.7946 7.67467 28.9638C7.74601 28.1518 7.52535 27.3409 7.05226 26.6766L13.7313 10.8858ZM28.9983 5.52926C27.8081 3.69559 25.9647 2.55307 23.9004 2.3556L24.0415 0.672153C24.0616 0.455396 23.9679 0.24369 23.7938 0.112884C23.6239 -0.0145492 23.3968 -0.0358082 23.2062 0.057874L17.5995 2.77664C17.4061 2.87383 17.2776 3.06512 17.2609 3.2809C17.2407 3.49766 17.3345 3.70936 17.5085 3.84017L22.5642 7.55687C22.648 7.61859 22.747 7.65659 22.8506 7.66689C22.9541 7.67637 23.0583 7.65734 23.1518 7.61188C23.3456 7.51502 23.4742 7.32355 23.4905 7.10762L23.6316 5.42559C24.8105 5.54407 25.8652 6.20137 26.5523 7.26278C27.3181 8.4538 27.5011 9.92808 27.0497 11.2701L21.3352 28.1201C21.211 28.5134 20.885 28.8096 20.4815 28.8958C20.0828 28.9849 19.6677 28.8455 19.4035 28.534L11.5612 19.6591L10.263 22.7312L17.2475 30.6216C18.1925 31.723 19.6655 32.2177 21.084 31.9101C22.5021 31.6047 23.6379 30.5701 24.1226 29.1441L29.8372 12.2941C30.5984 10.0287 30.2898 7.54031 28.9983 5.52926V5.52926Z" fill="#131313"/>
</svg>
