<svg width="22" height="22" viewBox="0 0 22 22" fill="none" xmlns="http://www.w3.org/2000/svg">
<path fill-rule="evenodd" clip-rule="evenodd" d="M15.9408 9.56067C15.4733 7.20484 13.4017 5.49984 11 5.49984C9.11167 5.49984 7.40667 6.54484 6.53583 8.22234L6.0775 9.09317L5.09667 9.194C3.23583 9.3865 1.83333 10.954 1.83333 12.8332C1.83333 14.859 3.47417 16.4998 5.5 16.4998H10V18.3332H5.5C2.46583 18.3332 0 15.8673 0 12.8332C0 10.0007 2.145 7.66317 4.90417 7.36984C6.05 5.16984 8.35083 3.6665 11 3.6665C14.3367 3.6665 17.1142 6.04067 17.7375 9.20317C20.1208 9.36817 22 11.3298 22 13.7498C22 16.2798 19.9467 18.3332 17.4167 18.3332H17V16.4998H17.4167C18.9292 16.4998 20.1667 15.2623 20.1667 13.7498C20.1667 12.329 19.0483 11.1282 17.6183 11.0365L16.2158 10.9357L15.9408 9.56067Z" fill="white"/>
<rect x="11" y="12" width="5" height="2" fill="white"/>
<rect x="11" y="15" width="5" height="2" fill="white"/>
<rect x="11" y="18" width="5" height="2" fill="white"/>
</svg>
