<svg width="20" height="20" viewBox="0 0 20 20" fill="none" xmlns="http://www.w3.org/2000/svg">
<path d="M15.8333 17.4999H6.66663V5.83325H15.8333V17.4999ZM15.8333 4.16658H6.66663C6.2246 4.16658 5.80068 4.34218 5.48811 4.65474C5.17555 4.9673 4.99996 5.39122 4.99996 5.83325V17.4999C4.99996 17.9419 5.17555 18.3659 5.48811 18.6784C5.80068 18.991 6.2246 19.1666 6.66663 19.1666H15.8333C16.2753 19.1666 16.6992 18.991 17.0118 18.6784C17.3244 18.3659 17.5 17.9419 17.5 17.4999V5.83325C17.5 5.39122 17.3244 4.9673 17.0118 4.65474C16.6992 4.34218 16.2753 4.16658 15.8333 4.16658V4.16658ZM13.3333 0.833252H3.33329C2.89127 0.833252 2.46734 1.00885 2.15478 1.32141C1.84222 1.63397 1.66663 2.05789 1.66663 2.49992V14.1666H3.33329V2.49992H13.3333V0.833252Z" fill="white"/>
</svg>
