<svg width="20" height="20" viewBox="0 0 20 20" fill="none" xmlns="http://www.w3.org/2000/svg">
<path fill-rule="evenodd" clip-rule="evenodd" d="M15.0001 17.5L13.3334 17.5L13.3334 9.02441C12.3624 8.68121 11.6667 7.75518 11.6667 6.66667C11.6667 5.57815 12.3624 4.65212 13.3334 4.30892L13.3334 2.5L15.0001 2.5L15.0001 4.30892C15.9711 4.65212 16.6667 5.57815 16.6667 6.66667C16.6667 7.75518 15.9711 8.68121 15.0001 9.02441L15.0001 17.5ZM14.1667 5C13.2462 5 12.5 5.74619 12.5 6.66667C12.5 7.58714 13.2462 8.33333 14.1667 8.33333C15.0871 8.33333 15.8333 7.58714 15.8333 6.66667C15.8333 5.74619 15.0871 5 14.1667 5Z" fill="white"/>
<path fill-rule="evenodd" clip-rule="evenodd" d="M4.99992 2.5H6.66659V10.9756C7.63758 11.3188 8.33325 12.2448 8.33325 13.3333C8.33325 14.4219 7.63758 15.3479 6.66659 15.6911V17.5H4.99992V15.6911C4.02893 15.3479 3.33325 14.4219 3.33325 13.3333C3.33325 12.2448 4.02893 11.3188 4.99992 10.9756V2.5ZM5.83333 15C6.75381 15 7.5 14.2538 7.5 13.3333C7.5 12.4129 6.75381 11.6667 5.83333 11.6667C4.91286 11.6667 4.16667 12.4129 4.16667 13.3333C4.16667 14.2538 4.91286 15 5.83333 15Z" fill="white"/>
</svg>
