<svg width="22" height="22" viewBox="0 0 22 22" fill="none" xmlns="http://www.w3.org/2000/svg">
<path d="M2.75903 6.58317L2.75903 10.2498C4.58341 10.2498 3.58403 10.2498 4.59237 10.2498L4.5832 10.2498L4.57403 10.2498L4.57403 6.58317L17.4349 6.58317L17.4349 10.2498L17.4165 10.2498C18.4249 10.2498 18.3334 10.2498 19.2407 10.2498L19.2407 6.58317C19.2407 5.57484 18.434 4.74984 17.4257 4.74984L4.59237 4.74984C3.57487 4.74984 2.75903 5.57484 2.75903 6.58317ZM14.6665 12.9998L10.9999 9.33317L7.3332 12.9998L10.0832 12.9998L10.0832 20.1665L11.9165 20.1665L11.9165 12.9998L14.6665 12.9998ZM2.75903 6.58317L2.75903 10.2498C4.58341 10.2498 3.58403 10.2498 4.59237 10.2498L4.5832 10.2498L4.57403 10.2498L4.57403 6.58317L17.4349 6.58317L17.4349 10.2498L17.4165 10.2498C18.4249 10.2498 18.3334 10.2498 19.2407 10.2498L19.2407 6.58317C19.2407 5.57484 18.434 4.74984 17.4257 4.74984L4.59237 4.74984C3.57487 4.74984 2.75903 5.57484 2.75903 6.58317ZM14.6665 12.9998L10.9999 9.33317L7.3332 12.9998L10.0832 12.9998L10.0832 20.1665L11.9165 20.1665L11.9165 12.9998L14.6665 12.9998Z" fill="white"/>
</svg>
