<svg width="22" height="22" viewBox="0 0 22 22" fill="none" xmlns="http://www.w3.org/2000/svg">
<path d="M9.16677 15.1247L14.6668 10.9997L9.16677 6.87467V15.1247ZM11.0001 1.83301C5.9401 1.83301 1.83344 5.93967 1.83344 10.9997C1.83344 16.0597 5.9401 20.1663 11.0001 20.1663C16.0601 20.1663 20.1668 16.0597 20.1668 10.9997C20.1668 5.93967 16.0601 1.83301 11.0001 1.83301ZM11.0001 18.333C6.9576 18.333 3.66677 15.0422 3.66677 10.9997C3.66677 6.95717 6.9576 3.66634 11.0001 3.66634C15.0426 3.66634 18.3334 6.95717 18.3334 10.9997C18.3334 15.0422 15.0426 18.333 11.0001 18.333Z" fill="white"/>
</svg>
