<svg width="24" height="25" viewBox="0 0 24 25" fill="none" xmlns="http://www.w3.org/2000/svg">
<path fill-rule="evenodd" clip-rule="evenodd" d="M12.75 6.6788C12.75 6.26459 12.4142 5.9288 12 5.9288C11.5858 5.9288 11.25 6.26459 11.25 6.6788V12.1605H5.72705C5.31284 12.1605 4.97705 12.4963 4.97705 12.9105C4.97705 13.3247 5.31284 13.6605 5.72705 13.6605H11.25V19.1423C11.25 19.5565 11.5858 19.8923 12 19.8923C12.4142 19.8923 12.75 19.5565 12.75 19.1423V13.6605H18.2725C18.6867 13.6605 19.0225 13.3247 19.0225 12.9105C19.0225 12.4963 18.6867 12.1605 18.2725 12.1605H12.75V6.6788Z" fill="#B8B8B8"/>
</svg>
