<svg width="22" height="22" viewBox="0 0 22 22" fill="none" xmlns="http://www.w3.org/2000/svg">
<path d="M10.0831 16.4997H11.9165V14.6663H10.0831V16.4997ZM10.9998 1.83301C5.9398 1.83301 1.83313 5.93967 1.83313 10.9997C1.83313 16.0597 5.9398 20.1663 10.9998 20.1663C16.0598 20.1663 20.1665 16.0597 20.1665 10.9997C20.1665 5.93967 16.0598 1.83301 10.9998 1.83301ZM10.9998 18.333C6.9573 18.333 3.66646 15.0422 3.66646 10.9997C3.66646 6.95717 6.9573 3.66634 10.9998 3.66634C15.0423 3.66634 18.3331 6.95717 18.3331 10.9997C18.3331 15.0422 15.0423 18.333 10.9998 18.333ZM10.9998 5.49967C8.97396 5.49967 7.33313 7.14051 7.33313 9.16634H9.16646C9.16646 8.15801 9.99146 7.33301 10.9998 7.33301C12.0081 7.33301 12.8331 8.15801 12.8331 9.16634C12.8331 10.9997 10.0831 10.7705 10.0831 13.7497H11.9165C11.9165 11.6872 14.6665 11.458 14.6665 9.16634C14.6665 7.14051 13.0256 5.49967 10.9998 5.49967Z" fill="white"/>
</svg>
