<svg width="22" height="22" viewBox="0 0 22 22" fill="none" xmlns="http://www.w3.org/2000/svg">
<path d="M14.082 12.8333H13.3643L13.1099 12.5858C14.0003 11.5408 14.5363 10.1842 14.5363 8.70833C14.5363 5.4175 11.8925 2.75 8.63092 2.75C5.36934 2.75 2.72556 5.4175 2.72556 8.70833C2.72556 11.9992 5.36934 14.6667 8.63092 14.6667C10.0936 14.6667 11.4382 14.1258 12.474 13.2275L12.7193 13.4842V14.2083L17.2618 18.7825L18.6155 17.4167L14.082 12.8333ZM8.63092 12.8333C6.36871 12.8333 4.54259 10.9908 4.54259 8.70833C4.54259 6.42583 6.36871 4.58333 8.63092 4.58333C10.8931 4.58333 12.7193 6.42583 12.7193 8.70833C12.7193 10.9908 10.8931 12.8333 8.63092 12.8333Z" fill="white"/>
</svg>
