<svg width="13" height="20" viewBox="0 0 13 20" fill="none" xmlns="http://www.w3.org/2000/svg">
<path fill-rule="evenodd" clip-rule="evenodd" d="M4 2C4 2.74028 3.5978 3.38663 3 3.73244V10.6152C4.04768 9.76397 5.32688 9.62314 6.28703 9.51744L6.38957 9.50612C7.5776 9.37411 8.32981 9.25598 8.88664 8.69914C9.31917 8.26662 9.75536 7.42884 9.92554 5.68717C9.36904 5.33203 9 4.70911 9 4C9 2.89543 9.89543 2 11 2C12.1046 2 13 2.89543 13 4C13 4.77032 12.5645 5.43893 11.9263 5.77304C11.7396 7.83384 11.1983 9.21589 10.3009 10.1134C9.20613 11.2081 7.76723 11.3665 6.71297 11.4826L6.61043 11.4939C5.4224 11.6259 4.67019 11.744 4.11336 12.3009C3.60781 12.8064 3.09723 13.8656 3.01231 16.2747C3.60332 16.6223 4 17.2648 4 18C4 19.1046 3.10457 20 2 20C0.895431 20 0 19.1046 0 18C0 17.2597 0.402199 16.6134 1 16.2676V3.73244C0.402199 3.38663 0 2.74028 0 2C0 0.895431 0.895431 0 2 0C3.10457 0 4 0.895431 4 2Z" fill="#FFFFFF"/>
</svg>
